<?xml version="1.0" encoding="UTF-8"?>
<svg width="19px" height="18px" viewBox="0 0 19 18" version="1.1" xmlns="http://www.w3.org/2000/svg" xmlns:xlink="http://www.w3.org/1999/xlink">
    <!-- Generator: Sketch 60.1 (88133) - https://sketch.com -->
    <title>Calendar_Icon</title>
    <desc>Created with Sketch.</desc>
    <g id="Assets" stroke="none" stroke-width="1" fill="none" fill-rule="evenodd">
        <g id="Icons" transform="translate(-44.000000, -1053.000000)" fill="#221F1F">
            <g id="Calendar_Icon" transform="translate(45.000000, 1054.000000)">
                <g id="Group-13" transform="translate(-1.000000, -1.000000)">
                    <g id="Group-11">
                        <path d="M18,3 L1,3 C0.44771525,3 0,3.44771525 0,4 L0,17 C0,17.5522847 0.44771525,18 1,18 L18,18 C18.5522847,18 19,17.5522847 19,17 L19,4 C19,3.44771525 18.5522847,3 18,3 Z M17,5 L17,16 L2,16 L2,5 L17,5 Z" id="Rectangle" fill-rule="nonzero"></path>
                        <rect id="Rectangle" x="4" y="9" width="2" height="2" rx="1"></rect>
                        <rect id="Rectangle" x="7" y="9" width="2" height="2" rx="1"></rect>
                        <rect id="Rectangle" x="10" y="9" width="2" height="2" rx="1"></rect>
                        <rect id="Rectangle" x="13" y="9" width="2" height="2" rx="1"></rect>
                        <rect id="Rectangle" x="4" y="12" width="2" height="2" rx="1"></rect>
                        <rect id="Rectangle" x="7" y="12" width="2" height="2" rx="1"></rect>
                        <rect id="Rectangle" x="10" y="12" width="2" height="2" rx="1"></rect>
                        <rect id="Rectangle" x="13" y="12" width="2" height="2" rx="1"></rect>
                        <path d="M14,0.625 C14.5128358,0.625 14.9355072,1.01104019 14.9932723,1.50837887 L15,1.625 L15,5.375 C15,5.92728475 14.5522847,6.375 14,6.375 C13.4871642,6.375 13.0644928,5.98895981 13.0067277,5.49162113 L13,5.375 L13,1.625 C13,1.07271525 13.4477153,0.625 14,0.625 Z" id="Line-3" fill-rule="nonzero"></path>
                        <path d="M4.5,0.625 C5.01283584,0.625 5.43550716,1.01104019 5.49327227,1.50837887 L5.5,1.625 L5.5,5.375 C5.5,5.92728475 5.05228475,6.375 4.5,6.375 C3.98716416,6.375 3.56449284,5.98895981 3.50672773,5.49162113 L3.5,5.375 L3.5,1.625 C3.5,1.07271525 3.94771525,0.625 4.5,0.625 Z" id="Line-3" fill-rule="nonzero"></path>
                    </g>
                </g>
            </g>
        </g>
    </g>
</svg>