<?xml version="1.0" encoding="utf-8"?>
<!-- Generator: Adobe Illustrator 23.1.1, SVG Export Plug-In . SVG Version: 6.00 Build 0)  -->
<svg version="1.1" id="Layer_1" xmlns="http://www.w3.org/2000/svg" xmlns:xlink="http://www.w3.org/1999/xlink" x="0px" y="0px"
	 viewBox="0 0 183 117" style="enable-background:new 0 0 183 117;" xml:space="preserve">
<style type="text/css">
	.st0{display:none;}
	
		.st1{display:inline;fill-rule:evenodd;clip-rule:evenodd;fill:#FFFFFF;stroke:#221F1F;stroke-width:3;stroke-linejoin:round;stroke-miterlimit:10;}
	.st2{display:inline;}
	.st3{fill:#F01FFF;}
	.st4{fill:#FFFFFF;}
</style>
<g id="Layer_3" class="st0">
	<path id="Fill-1_14_" class="st1" d="M157.5,70.4c-2.9-5.2-7.2-8.3-13.4-9.9c-4.8,4.7-11.3,7.6-18.4,7.6c-7.2,0-13.7-2.9-18.4-7.6
		c-6.3,1.7-10.5,4.7-13.4,9.9c-5,8.9-7.8,26.4-7.9,28.1c0,0.4,0.1,0.7,0.5,0.7c3.4,0.7,24.9,2.7,39.3,2.7s35.9-2,39.3-2.7
		c0.3-0.1,0.5-0.4,0.5-0.7C165.2,96.8,162.5,79.3,157.5,70.4"/>
	<path id="Fill-4_16_" class="st1" d="M125.6,25.2c-11.3,0-20.4,9.2-20.4,20.5c0,11.3,9.1,20.4,20.4,20.4c11.3,0,20.4-9.1,20.4-20.4
		C146,34.4,136.9,25.2,125.6,25.2"/>
	<path id="Fill-1_12_" class="st1" d="M84,70.4c-2.9-5.2-7.2-8.3-13.4-9.9C65.8,65.2,59.3,68,52.1,68c-7.2,0-13.7-2.9-18.4-7.6
		c-6.3,1.7-10.5,4.7-13.4,9.9c-5,8.9-7.8,26.4-7.9,28.1c0,0.4,0.1,0.7,0.5,0.7c3.4,0.7,24.9,2.7,39.3,2.7s36-2,39.3-2.7
		c0.3-0.1,0.5-0.4,0.5-0.7C91.7,96.8,89,79.3,84,70.4"/>
	<path id="Fill-4_14_" class="st1" d="M52.1,25.2c-11.3,0-20.4,9.2-20.4,20.5c0,11.3,9.1,20.4,20.4,20.4c11.3,0,20.4-9.1,20.4-20.4
		C72.5,34.4,63.4,25.2,52.1,25.2"/>
</g>
<g class="st0">
	<g id="Assets_5_" class="st2">
		<g id="Text-Styles_5_" transform="translate(-859.000000, -1297.000000)">
			<path id="Combined-Shape_7_" class="st3" d="M1009.3,1319.6c12.7,0,23,10.3,23,23c0,4.9-1.5,9.4-4.1,13.1c5.3,1.8,9,4.9,11.6,9.8
				c1.9,3.6,3.6,8.6,5,14.6l0.2,0.7l0.3,1.3c0.9,3.9,1.7,8.3,1.9,10.4l0,0.2l0.1,0.5c0.1,1.1-0.5,2.1-1.6,2.3
				c-4.4,0.9-24.8,2.6-36.3,2.6h-0.4h-0.7c-5.8,0-13.2-0.4-20.6-1l-0.9-0.1l-0.7-0.1l0-0.1c0.8,3.8,1.5,7.9,1.8,9.8l0,0.2l0,0.3
				c0.1,1.1-0.5,2.1-1.6,2.3c-4.3,0.9-23.7,2.5-35.2,2.6h-0.4h-1.2c-10.9,0-30.1-1.6-35.4-2.5l-0.2,0l-0.3-0.1
				c-1.1-0.2-1.7-1.3-1.6-2.3c0.2-1.5,0.9-6,1.8-10.2l0,0.1l-0.7,0.1l-0.9,0.1c-7.5,0.6-14.8,1-20.6,1l0,0h-0.7h-0.4
				c-11.4,0-31.8-1.7-36.3-2.6c-1.1-0.2-1.7-1.2-1.6-2.3l0,0l0.1-0.5l0-0.2c0.3-2.1,1-6.5,1.9-10.4l0,0l0.3-1.3l0.2-0.7
				c1.4-5.9,3.1-11,5-14.6c2.6-4.9,6.3-7.9,11.6-9.8c-2.6-3.7-4.1-8.2-4.1-13.1c0-12.7,10.3-23,23-23s23,10.3,23,23
				c0,4.8-1.5,9.2-4,12.9c5.6,1.8,9.4,4.9,12.1,9.9c1.1,2.1,2.1,4.6,3.1,7.6c1.8-1.4,3.8-2.5,6.2-3.3c-2.6-3.6-4.2-8-4.3-12.8l0-0.5
				v-1.7c0-12.4,10-22.5,22.3-22.7h0.4h1.7c12.4,0,22.5,9.9,22.7,22.3v0.4v1.7c0,5-1.6,9.6-4.3,13.3c2.2,0.8,4.2,1.8,5.8,3.1
				l0.3,0.2c1-3,2-5.5,3.1-7.6c2.7-5,6.5-8.2,12.1-9.9c-2.5-3.7-4-8.1-4-12.9C986.3,1329.9,996.6,1319.6,1009.3,1319.6z
				 M932.5,1372.3l-0.4,0.1c-4.7,1.6-7.9,4.2-10.1,8.5c-1.9,3.5-3.6,8.8-5,15.2l-0.2,0.7l-0.1,0.4c-0.7,3.2-1.3,6.6-1.6,8.7l0,0.3
				l-0.1,0.6l0.3,0.1c5.6,0.9,22.3,2.2,32.8,2.3l0.5,0l1.3,0c10.2,0,28.6-1.4,34.6-2.3l0.3,0l0.1,0l0-0.3c-0.3-1.8-0.8-4.9-1.5-8
				l-0.1-0.4l-0.2-0.8l-0.2-1c-1.4-6.3-3.1-11.6-5-15.2c-2.3-4.3-5.4-6.9-10.1-8.5l-0.4-0.1l-0.4,0.3c-4.4,4.1-10,6.5-16,6.8l-0.5,0
				h-0.5c-6.3,0-12.3-2.5-17-6.8L932.5,1372.3L932.5,1372.3z M991.5,1358.3l-0.5,0.1c-4.8,1.6-7.9,4.2-10.2,8.5
				c-1.1,2-2.1,4.6-3.1,7.7l-0.2,0.6l0,0.2l0,0.1c1,1.2,1.9,2.5,2.8,4.1c1.8,3.4,3.4,8.2,4.8,13.9l0.1,0.5l0.7,0.1
				c7.1,0.6,14.3,1,20.2,1.1l0.8,0l1.4,0h0.7c10,0,27.8-1.3,34.3-2.3l0.3,0l0.6-0.1l-0.1-0.6c-0.3-1.7-0.8-4.5-1.3-7.3l-0.1-0.5
				l-0.3-1.3l-0.2-1c-1.4-6.3-3.2-11.6-5.1-15.2c-2.3-4.3-5.5-6.9-10.2-8.5l-0.4-0.1l0,0l-0.4,0.3c-1.1,1-2.2,1.9-3.5,2.7
				c-3.8,2.7-8.4,4.3-13.3,4.3c-2.7,0-5.3-0.5-7.8-1.3c-3.6-1.1-6.9-3-9.7-5.6L991.5,1358.3L991.5,1358.3z M908.1,1358.3
				L908.1,1358.3l-0.4,0.3c-2.8,2.6-6.1,4.5-9.7,5.6c-2.4,0.9-5,1.3-7.8,1.3c-5,0-9.6-1.6-13.3-4.3c-1.2-0.8-2.4-1.7-3.5-2.7l0,0
				l-0.4-0.3l0,0l-0.4,0.1c-4.8,1.6-7.9,4.2-10.2,8.5c-1.9,3.5-3.6,8.8-5.1,15.2l0,0l-0.2,1l-0.3,1.3l-0.1,0.5
				c-0.6,2.8-1.1,5.6-1.3,7.3l0,0l-0.1,0.6l0.6,0.1l0.3,0c6.5,0.9,24.3,2.3,34.3,2.3l0,0h0.7l1.4,0l0.8,0c5.9-0.1,13-0.5,20.2-1.1
				l0,0l0.7-0.1c1.4-5.9,3.1-10.9,4.9-14.4c0.8-1.5,1.8-2.9,2.8-4.1l0-0.2l-0.2-0.6c-1-3.1-2-5.7-3.1-7.7c-2.3-4.3-5.5-6.9-10.2-8.5
				l0,0L908.1,1358.3z M950.6,1335.1H949c-10.8,0-19.5,8.6-19.7,19.3v0.3v1.7c0,10.8,8.6,19.5,19.3,19.7h0.3h1.7
				c10.8,0,19.5-8.6,19.7-19.3v-0.3v-1.7C970.3,1343.9,961.5,1335.1,950.6,1335.1z M1009.3,1322.6c-11,0-20,8.9-20,20
				c0,8.7,5.5,16,13.2,18.8c2.1,0.7,4.3,1,6.5,1c4.3,0,8.4-1.3,11.9-3.6c5.1-3.6,8.4-9.6,8.4-16.3
				C1029.3,1331.6,1020.3,1322.6,1009.3,1322.6z M890.3,1322.6c-11,0-20,8.9-20,20c0,6.7,3.3,12.6,8.3,16.3
				c3.5,2.3,7.7,3.6,11.9,3.6c2.2,0,4.4-0.3,6.5-1c7.7-2.8,13.2-10.2,13.2-18.8C910.3,1331.6,901.3,1322.6,890.3,1322.6z"/>
		</g>
	</g>
</g>
<g>
	<path class="st4" d="M181.5,92.3l-0.1-0.3c0,0,0,0,0,0c-0.2-1.7-0.8-4.9-1.5-8.5l-0.5-2.5c-1.6-7.1-3.4-12.6-5.3-16.3
		c-2.1-4-5.7-7.1-10.8-9.1c1.7-3,2.7-6.6,2.7-10.3c0-11.6-9.4-21.1-21.1-21.1c-11.6,0-21.1,9.5-21.1,21.1c0,3.7,1,7.3,2.7,10.3
		c-5,2-8.6,5-10.7,9.1c-1,2-2,4.5-2.9,7.4c-1.2-0.7-2.5-1.4-3.9-1.9c1.7-3.1,2.7-6.6,2.7-10.3c0-11.6-9.4-21.1-21-21.1
		c-11.6,0-21.1,9.5-21.1,21.1c0,3.7,1,7.3,2.7,10.3c-1.4,0.6-2.7,1.2-3.9,1.9c-0.9-3-1.9-5.5-2.9-7.4c-2.1-4-5.7-7.1-10.8-9.1
		c1.7-3,2.7-6.6,2.7-10.3c0-11.6-9.4-21.1-21-21.1c-11.6,0-21.1,9.5-21.1,21.1c0,3.7,1,7.3,2.7,10.3c-5,2-8.6,5-10.7,9.1
		C5.5,68.4,3.7,73.9,2.1,81l-0.2,1.1c-0.8,3.6-1.4,7.2-1.7,9.2L0,92.4c-0.1,0.8,0.4,1.6,1.2,1.7l0.3,0.1c5.6,0.9,21.9,2.3,33,2.5
		l1.9,0c5.5,0,13-0.4,19.9-0.9l-0.2,1.1c-0.8,3.6-1.4,7.2-1.7,9.2l-0.1,0.9c-0.1,0.8,0.4,1.6,1.2,1.7l0.3,0.1
		c5.6,0.9,21.9,2.3,33,2.5l1.9,0c10.6,0,28.7-1.5,34.9-2.5l0.3,0c0,0,0.1,0,0.1,0c0.8-0.1,1.3-0.9,1.2-1.7l-0.1-0.3c0,0,0,0,0,0
		c-0.2-1.7-0.8-4.9-1.5-8.5l-0.5-2.4c6,0.5,12.6,0.8,18,0.9l1.9,0c10.6,0,28.7-1.5,34.9-2.5l0.3,0c0,0,0.1,0,0.1,0
		C181.1,93.9,181.6,93.1,181.5,92.3z M145,27.2c10,0,18.1,8.1,18.1,18.1c0,7.5-4.5,13.9-10.9,16.6c-0.1,0-0.1,0-0.2,0.1
		c-0.5,0.2-1,0.4-1.5,0.6c0,0-0.1,0-0.1,0c-0.5,0.2-1,0.3-1.5,0.4c-0.1,0-0.2,0-0.3,0.1c-0.5,0.1-1,0.2-1.5,0.2c-0.1,0-0.2,0-0.3,0
		c-0.6,0-1.1,0.1-1.6,0.1s-1.1,0-1.7-0.1c-0.1,0-0.2,0-0.3,0c-0.5-0.1-1-0.1-1.5-0.2c-0.1,0-0.2,0-0.3-0.1c-0.5-0.1-1-0.2-1.5-0.4
		c0,0,0,0,0,0c-0.5-0.2-1.1-0.4-1.6-0.6c-0.1,0-0.1,0-0.2-0.1c-6.4-2.8-11-9.2-11-16.6C126.9,35.3,135,27.2,145,27.2z M90.7,41.8
		c10,0,18,8.1,18,18.1c0,7.4-4.5,13.9-10.9,16.6c-0.1,0-0.1,0.1-0.2,0.1c-0.5,0.2-1,0.4-1.5,0.6c0,0-0.1,0-0.1,0
		c-0.5,0.2-1,0.3-1.5,0.4c-0.1,0-0.2,0.1-0.3,0.1c-0.5,0.1-1,0.2-1.5,0.2c-0.1,0-0.2,0-0.3,0C91.8,78,91.3,78,90.7,78
		c-0.6,0-1.1,0-1.7-0.1c-0.1,0-0.2,0-0.3,0c-0.5-0.1-1-0.1-1.5-0.2c-0.1,0-0.2,0-0.3-0.1c-0.5-0.1-1-0.2-1.5-0.4c0,0,0,0,0,0
		c-0.5-0.2-1.1-0.4-1.6-0.6c-0.1,0-0.1,0-0.2-0.1c-6.4-2.8-11-9.2-11-16.6C72.7,49.9,80.8,41.8,90.7,41.8z M36.5,27.2
		c10,0,18,8.1,18,18.1c0,7.5-4.5,13.9-11,16.6c-0.1,0-0.1,0-0.2,0.1c-0.5,0.2-1,0.4-1.5,0.6c0,0,0,0-0.1,0c-0.5,0.2-1,0.3-1.5,0.4
		c-0.1,0-0.2,0-0.3,0.1c-0.5,0.1-1,0.2-1.5,0.2c-0.1,0-0.2,0-0.3,0c-0.5,0-1.1,0.1-1.7,0.1s-1.1,0-1.7-0.1c-0.1,0-0.2,0-0.3,0
		c-0.5-0.1-1-0.1-1.5-0.2c-0.1,0-0.2,0-0.3-0.1c-0.5-0.1-1-0.2-1.5-0.4c0,0,0,0,0,0c-0.5-0.2-1-0.4-1.5-0.6c-0.1,0-0.1,0-0.2-0.1
		c-6.5-2.8-11-9.2-11-16.6C18.4,35.3,26.5,27.2,36.5,27.2z M36.5,93.6l-1.9,0c-10.3-0.2-25.1-1.4-31.4-2.3c0.3-2,0.9-5.3,1.6-8.5
		L5,81.7c1.5-6.8,3.2-12.2,5-15.6c1.9-3.5,5.1-6.2,9.7-7.9c2.6,3.4,6.2,5.9,10.3,7.2c0.1,0,0.1,0.1,0.2,0.1c0.6,0.2,1.2,0.3,1.8,0.4
		c0.1,0,0.2,0.1,0.4,0.1c0.6,0.1,1.2,0.2,1.8,0.3c0.1,0,0.2,0,0.3,0c0.7,0.1,1.3,0.1,2,0.1s1.3,0,2-0.1c0.1,0,0.2,0,0.3,0
		c0.6-0.1,1.2-0.2,1.8-0.3c0.1,0,0.2-0.1,0.4-0.1c0.6-0.1,1.2-0.3,1.8-0.4c0.1,0,0.2-0.1,0.2-0.1c1.2-0.4,2.5-0.9,3.6-1.5l0,0
		c2.6-1.4,4.8-3.3,6.7-5.7c4.6,1.7,7.9,4.4,9.7,7.9c1,2,2.1,4.7,3,7.9c-1.8,1.5-3.2,3.3-4.3,5.3c-1.6,3.2-3.2,7.6-4.6,13.3
		C50.1,93.1,42.2,93.6,36.5,93.6z M90.7,108.2l-1.9,0c-10.3-0.2-25.1-1.4-31.4-2.3c0.3-2,0.9-5.3,1.6-8.5l0.2-1.1
		c0.1-0.3,0.1-0.6,0.2-0.9c0.2-1.1,0.5-2.1,0.8-3.1c1.3-4.9,2.7-8.9,4.1-11.6c0.7-1.3,1.5-2.4,2.6-3.5c0.8-0.8,1.6-1.5,2.5-2.1
		c1.4-0.9,2.9-1.7,4.6-2.3c2.6,3.4,6.3,5.9,10.3,7.2c0.1,0,0.2,0.1,0.2,0.1c0.6,0.2,1.2,0.3,1.8,0.4c0.1,0,0.2,0.1,0.4,0.1
		c0.6,0.1,1.2,0.2,1.8,0.3c0.1,0,0.2,0,0.3,0c0.7,0.1,1.3,0.1,2,0.1s1.3,0,2-0.1c0.1,0,0.2,0,0.3,0c0.6-0.1,1.2-0.2,1.8-0.3
		c0.1,0,0.2-0.1,0.4-0.1c0.6-0.1,1.2-0.3,1.8-0.4c0.1,0,0.2-0.1,0.2-0.1c1.2-0.4,2.5-0.9,3.6-1.5c0,0,0,0,0,0
		c2.6-1.4,4.8-3.3,6.7-5.7c1.7,0.7,3.3,1.4,4.7,2.3c0.9,0.6,1.8,1.3,2.5,2.1c1,1.1,1.9,2.2,2.6,3.5c1.4,2.7,2.8,6.7,4.1,11.6
		c0.2,1,0.5,2,0.8,3.1c0.1,0.3,0.1,0.6,0.2,0.9l0.5,2.4c0.6,2.7,1,5.4,1.3,7.2C117.1,106.8,100.6,108.2,90.7,108.2z M145,93.6
		l-1.9,0c-5.6-0.1-12.5-0.5-18.7-1c-1.4-5.7-2.9-10.1-4.6-13.3c-1.1-2-2.5-3.8-4.3-5.3c1-3.2,2-5.9,3-7.9c1.8-3.5,5.1-6.2,9.7-7.9
		c2.6,3.4,6.3,5.9,10.3,7.2c0.1,0,0.1,0.1,0.2,0.1c0.6,0.2,1.2,0.3,1.8,0.4c0.1,0,0.2,0.1,0.4,0.1c0.6,0.1,1.2,0.2,1.8,0.3
		c0.1,0,0.2,0,0.3,0c0.6,0.1,1.3,0.1,2,0.1s1.3,0,2-0.1c0.1,0,0.2,0,0.3,0c0.6-0.1,1.2-0.2,1.8-0.3c0.1,0,0.2-0.1,0.4-0.1
		c0.6-0.1,1.2-0.3,1.7-0.4c0.1,0,0.2-0.1,0.2-0.1c1.2-0.4,2.5-0.9,3.6-1.5c0,0,0,0,0,0c2.6-1.4,4.9-3.3,6.7-5.7
		c4.6,1.7,7.9,4.4,9.7,7.9c1.8,3.4,3.5,8.8,5,15.6l0.5,2.4c0.6,2.7,1,5.4,1.3,7.2C171.3,92.2,154.9,93.6,145,93.6z"/>
</g>
</svg>
