<?xml version="1.0" encoding="UTF-8"?>
<svg width="22px" height="22px" viewBox="0 0 22 22" version="1.1" xmlns="http://www.w3.org/2000/svg" xmlns:xlink="http://www.w3.org/1999/xlink">
    <!-- Generator: Sketch 60.1 (88133) - https://sketch.com -->
    <title>Share_Icon</title>
    <desc>Created with Sketch.</desc>
    <defs>
        <polygon id="path-1" points="0.000176 8.8e-05 22 8.8e-05 22 22 0.000176 22"></polygon>
    </defs>
    <g id="Assets" stroke="none" stroke-width="1" fill="none" fill-rule="evenodd">
        <g id="Icons" transform="translate(-131.000000, -1102.000000)">
            <g id="Share_Icon" transform="translate(131.000000, 1102.000000)">
                <g id="Group-8">
                    <g id="Group-3">
                        <mask id="mask-2" fill="white">
                            <use xlink:href="#path-1"></use>
                        </mask>
                        <g id="Clip-2"></g>
                        <path d="M11.000176,8.8e-05 C17.074816,8.8e-05 22.000176,4.925448 22.000176,11.000088 C22.000176,17.074728 17.074816,22.000088 11.000176,22.000088 C4.924656,22.000088 0.000176,17.074728 0.000176,11.000088 C0.000176,4.925448 4.924656,8.8e-05 11.000176,8.8e-05 Z M15.5,13.375 L15.4076421,13.3817766 C15.1062579,13.4264169 14.875,13.6862018 14.875,14 L14.875,14 L14.875,15.375 L7.125,15.375 L7.125,14 L7.1182234,13.9076421 C7.07358314,13.6062579 6.81379815,13.375 6.5,13.375 C6.15482203,13.375 5.875,13.654822 5.875,14 L5.875,14 L5.875,16 L5.8817766,16.0923579 C5.92641686,16.3937421 6.18620185,16.625 6.5,16.625 L6.5,16.625 L15.5,16.625 L15.5923579,16.6182234 C15.8937421,16.5735831 16.125,16.3137982 16.125,16 L16.125,16 L16.125,14 L16.1182234,13.9076421 C16.0735831,13.6062579 15.8137982,13.375 15.5,13.375 L15.5,13.375 Z M10.6363505,4.74892564 L10.5580583,4.81541757 L6.31541757,9.05805826 L6.25490245,9.12815696 C6.09352877,9.34564695 6.0915365,9.64415896 6.24892564,9.8636495 L6.31541757,9.94194174 L6.38551627,10.0024569 C6.60300626,10.1638305 6.90151828,10.1658228 7.12100882,10.0084337 L7.19930105,9.94194174 L10.3743593,6.76633333 L10.375,13.2333333 L10.3817766,13.3256913 C10.4264169,13.6270755 10.6862018,13.8583333 11,13.8583333 C11.3137982,13.8583333 11.5735831,13.6270755 11.6182234,13.3256913 L11.625,13.2333333 L11.6243593,6.76633333 L14.8006989,9.94194174 L14.8707976,10.0024569 C15.1154739,10.1840022 15.4626936,10.1638305 15.6845824,9.94194174 C15.9015404,9.7249838 15.9256468,9.3882033 15.7569017,9.14461812 L15.6845824,9.05805826 L11.4419417,4.81541757 L11.371843,4.75490245 C11.154353,4.59352877 10.855841,4.5915365 10.6363505,4.74892564 Z" id="Combined-Shape" fill="#221F1F" mask="url(#mask-2)"></path>
                    </g>
                </g>
                <g id="Group-9" transform="translate(11.000000, 9.500000) rotate(-90.000000) translate(-11.000000, -9.500000) translate(6.000000, 4.500000)">
                    <g id="Group"></g>
                </g>
            </g>
        </g>
    </g>
</svg>