<?xml version="1.0" encoding="UTF-8"?>
<svg width="14px" height="16px" viewBox="0 0 14 16" version="1.1" xmlns="http://www.w3.org/2000/svg" xmlns:xlink="http://www.w3.org/1999/xlink">
    <!-- Generator: Sketch 63.1 (92452) - https://sketch.com -->
    <title>Group 30</title>
    <desc>Created with Sketch.</desc>
    <g id="Assets" stroke="none" stroke-width="1" fill="none" fill-rule="evenodd">
        <g id="Icons" transform="translate(-659.000000, -3243.000000)" fill="#221F1F" fill-rule="nonzero">
            <g id="Group-30" transform="translate(659.000000, 3243.000000)">
                <path d="M12.25,0 C13.2164983,0 14,0.8954305 14,2 L14,14 C14,15.1045695 13.2164983,16 12.25,16 L1.75,16 C0.783501688,16 0,15.1045695 0,14 L0,2 C0,0.8954305 0.783501688,0 1.75,0 L12.25,0 Z M12.25,1.25 L1.75,1.25 C1.41776621,1.25 1.14319541,1.53215388 1.09974079,1.89822944 L1.09375,2 L1.09375,14 C1.09375,14.3796958 1.34063465,14.693491 1.66095076,14.7431534 L1.75,14.75 L12.25,14.75 C12.5822338,14.75 12.8568046,14.4678461 12.9002592,14.1017706 L12.90625,14 L12.90625,2 C12.90625,1.62030423 12.6593654,1.30650904 12.3390492,1.25684662 L12.25,1.25 Z" id="Rectangle"></path>
                <path d="M10.3103448,4 C10.6912309,4 11,4.27982203 11,4.625 C11,4.93879815 10.7448189,5.19858314 10.412257,5.2432234 L10.3103448,5.25 L3.68965517,5.25 C3.30876914,5.25 3,4.97017797 3,4.625 C3,4.31120185 3.25518111,4.05141686 3.58774299,4.0067766 L3.68965517,4 L10.3103448,4 Z" id="Line-3"></path>
                <path d="M10.3103448,8 C10.6912309,8 11,8.27982203 11,8.625 C11,8.93879815 10.7448189,9.19858314 10.412257,9.2432234 L10.3103448,9.25 L3.68965517,9.25 C3.30876914,9.25 3,8.97017797 3,8.625 C3,8.31120185 3.25518111,8.05141686 3.58774299,8.0067766 L3.68965517,8 L10.3103448,8 Z" id="Line-3"></path>
                <path d="M10.3103448,10 C10.6912309,10 11,10.279822 11,10.625 C11,10.9387982 10.7448189,11.1985831 10.412257,11.2432234 L10.3103448,11.25 L3.68965517,11.25 C3.30876914,11.25 3,10.970178 3,10.625 C3,10.3112018 3.25518111,10.0514169 3.58774299,10.0067766 L3.68965517,10 L10.3103448,10 Z" id="Line-3"></path>
                <path d="M10.3103448,6 C10.6912309,6 11,6.27982203 11,6.625 C11,6.93879815 10.7448189,7.19858314 10.412257,7.2432234 L10.3103448,7.25 L3.68965517,7.25 C3.30876914,7.25 3,6.97017797 3,6.625 C3,6.31120185 3.25518111,6.05141686 3.58774299,6.0067766 L3.68965517,6 L10.3103448,6 Z" id="Line-3"></path>
            </g>
        </g>
    </g>
</svg>