<?xml version="1.0" encoding="utf-8"?>
<!-- Generator: Adobe Illustrator 24.0.1, SVG Export Plug-In . SVG Version: 6.00 Build 0)  -->
<svg version="1.1" xmlns="http://www.w3.org/2000/svg" xmlns:xlink="http://www.w3.org/1999/xlink" x="0px" y="0px"
	 viewBox="0 0 183 117" style="enable-background:new 0 0 183 117;" xml:space="preserve">
<style type="text/css">
	.st0{display:none;}
	
		.st1{display:inline;fill-rule:evenodd;clip-rule:evenodd;fill:#FFFFFF;stroke:#221F1F;stroke-width:3;stroke-linejoin:round;stroke-miterlimit:10;}
	.st2{display:inline;fill:#FB1F1F;}
	.st3{display:inline;}
	.st4{fill:#F01FFF;}
	
		.st5{fill-rule:evenodd;clip-rule:evenodd;fill:#FFFFFF;stroke:#000000;stroke-width:3;stroke-linejoin:round;stroke-miterlimit:10;}
	.st6{fill:none;stroke:#E6E7E8;stroke-width:2;stroke-miterlimit:10;}
	.st7{clip-path:url(#SVGID_4_);}
	.st8{opacity:0.5;fill:#777576;}
	.st9{opacity:0.5;}
	.st10{fill:#777576;}
	.st11{fill:#221F1F;}
	.st12{fill:#59EFF4;}
	.st13{fill:#FFFFFF;}
	.st14{fill:#FFFFFF;stroke:#777576;stroke-miterlimit:10;}
	.st15{fill:none;stroke:#221F1F;stroke-width:2;stroke-miterlimit:10;}
	.st16{fill:none;stroke:#221F1F;stroke-width:2;stroke-linecap:round;stroke-linejoin:round;stroke-miterlimit:10;}
	.st17{opacity:0.15;fill:#EDEDED;}
	.st18{fill:none;stroke:#000000;stroke-width:2;stroke-linecap:round;stroke-miterlimit:10;}
	.st19{fill:#43CBDD;}
	.st20{fill:#53DAEC;}
	.st21{fill:#1FB1C9;}
	.st22{fill-rule:evenodd;clip-rule:evenodd;fill:none;stroke:#221F1F;stroke-width:3;stroke-linejoin:round;stroke-miterlimit:10;}
	.st23{fill:#5A5C61;}
	.st24{fill:#FFFFFF;stroke:#5A5C61;stroke-width:4.2;stroke-linecap:square;stroke-miterlimit:10;}
	
		.st25{fill-rule:evenodd;clip-rule:evenodd;fill:#FFFFFF;stroke:#221F1F;stroke-width:3;stroke-linejoin:round;stroke-miterlimit:10;}
	
		.st26{fill-rule:evenodd;clip-rule:evenodd;fill:#FFFFFF;stroke:#221F1F;stroke-width:3.8903;stroke-linejoin:round;stroke-miterlimit:10;}
	.st27{fill:#FFFFFF;stroke:#221F1F;stroke-width:3;stroke-linejoin:round;stroke-miterlimit:10;}
	.st28{fill:#FB1F1F;}
	
		.st29{opacity:0.8;fill-rule:evenodd;clip-rule:evenodd;fill:#FFFFFF;stroke:#221F1F;stroke-width:3;stroke-linejoin:round;stroke-miterlimit:10;}
	.st30{opacity:0.8;fill:#FFFFFF;stroke:#221F1F;stroke-width:3;stroke-linejoin:round;stroke-miterlimit:10;}
	.st31{fill:none;stroke:#FF45D1;stroke-width:3;stroke-linecap:round;stroke-linejoin:round;stroke-miterlimit:10;}
	.st32{fill:none;stroke:#000000;stroke-width:3;stroke-linecap:round;stroke-linejoin:round;stroke-miterlimit:10;}
	
		.st33{fill-rule:evenodd;clip-rule:evenodd;fill:none;stroke:#FF45D1;stroke-width:3;stroke-linecap:round;stroke-linejoin:round;stroke-miterlimit:10;}
	.st34{fill-rule:evenodd;clip-rule:evenodd;fill:none;stroke:#000000;stroke-width:3;stroke-linejoin:round;stroke-miterlimit:10;}
	.st35{fill:#2745D1;}
</style>
<g id="Layer_3" class="st0">
</g>
<g id="Layer_2" class="st0">
</g>
<g id="Layer_1">
	<g id="Assets_6_">
		<g id="Text-Styles_6_" transform="translate(-1254.000000, -1285.000000)">
			<g id="Group-21_2_" transform="translate(1254.500000, 1285.500000)">
				<path id="Combined-Shape_8_" class="st11" d="M122.13-0.1c0.83,0,1.5,0.67,1.5,1.5l0,0l0,12.65l12.65,0
					c0.78,0,1.42,0.59,1.49,1.36l0.01,0.14v99.06c0,0.78-0.59,1.42-1.36,1.49l-0.14,0.01H59.87c-0.78,0-1.42-0.59-1.49-1.36
					l-0.01-0.14l0-12.65l-12.65,0c-0.78,0-1.42-0.59-1.49-1.36l-0.01-0.14V1.4c0-0.83,0.67-1.5,1.5-1.5l0,0H122.13z M123.63,100.45
					c0,0.83-0.67,1.5-1.5,1.5l0,0l-60.77,0l0,11.15h73.42V17.05l-11.15,0L123.63,100.45z M120.63,2.9H47.22v96.06h73.42V2.9z"/>
				<path id="Line-4_11_" class="st11" d="M105.76,42.09c0.83,0,1.5,0.67,1.5,1.5c0,0.78-0.59,1.42-1.36,1.49l-0.14,0.01H62.09
					c-0.83,0-1.5-0.67-1.5-1.5c0-0.78,0.59-1.42,1.36-1.49l0.14-0.01H105.76z"/>
				<path id="Line-4_10_" class="st11" d="M105.76,25.58c0.83,0,1.5,0.67,1.5,1.5c0,0.78-0.59,1.42-1.36,1.49l-0.14,0.01H62.09
					c-0.83,0-1.5-0.67-1.5-1.5c0-0.78,0.59-1.42,1.36-1.49l0.14-0.01H105.76z"/>
				<path id="Line-4_9_" class="st11" d="M105.76,56.76c0.83,0,1.5,0.67,1.5,1.5c0,0.78-0.59,1.42-1.36,1.49l-0.14,0.01H62.09
					c-0.83,0-1.5-0.67-1.5-1.5c0-0.78,0.59-1.42,1.36-1.49l0.14-0.01H105.76z"/>
				<path id="Line-4_8_" class="st11" d="M105.76,73.27c0.83,0,1.5,0.67,1.5,1.5c0,0.78-0.59,1.42-1.36,1.49l-0.14,0.01H62.09
					c-0.83,0-1.5-0.67-1.5-1.5c0-0.78,0.59-1.42,1.36-1.49l0.14-0.01H105.76z"/>
			</g>
		</g>
	</g>
</g>
</svg>
