<?xml version="1.0" encoding="utf-8"?>
<!-- Generator: Adobe Illustrator 23.1.1, SVG Export Plug-In . SVG Version: 6.00 Build 0)  -->
<svg version="1.1" id="Layer_1" xmlns="http://www.w3.org/2000/svg" xmlns:xlink="http://www.w3.org/1999/xlink" x="0px" y="0px"
	 viewBox="0 0 192 192" style="enable-background:new 0 0 192 192;" xml:space="preserve">
<style type="text/css">
	.st0{filter:url(#Adobe_OpacityMaskFilter);}
	.st1{fill-rule:evenodd;clip-rule:evenodd;fill:#FFFFFF;}
	.st2{mask:url(#mask-2_1_);fill-rule:evenodd;clip-rule:evenodd;}
	.st3{filter:url(#Adobe_OpacityMaskFilter_1_);}
	.st4{mask:url(#mask-4_1_);fill-rule:evenodd;clip-rule:evenodd;}
</style>
<title>ChurchLogomark</title>
<desc>Created with Sketch.</desc>
<g id="Assets">
	<g id="Icons" transform="translate(-307.000000, -549.000000)">
		<g id="ChurchLogomark" transform="translate(307.000000, 549.000000)">
			<g id="Group-7" transform="translate(-0.000000, 0.000000)">
				<g id="Group-3" transform="translate(9.795918, 7.512563)">
					<g id="Clip-2">
					</g>
					<defs>
						<filter id="Adobe_OpacityMaskFilter" filterUnits="userSpaceOnUse" x="62.8" y="55.8" width="119.4" height="119.4">
							<feColorMatrix  type="matrix" values="1 0 0 0 0  0 1 0 0 0  0 0 1 0 0  0 0 0 1 0"/>
						</filter>
					</defs>
					<mask maskUnits="userSpaceOnUse" x="62.8" y="55.8" width="119.4" height="119.4" id="mask-2_1_">
						<g class="st0">
							<polygon id="path-1_1_" class="st1" points="62.8,55.8 182.2,55.8 182.2,175.1 62.8,175.1 							"/>
						</g>
					</mask>
					<path id="Fill-1" class="st2" d="M182.2,162.9c0,6.8-5.5,12.3-12.3,12.3H75.1c-6.8,0-12.3-5.5-12.3-12.3V68
						c0-6.8,5.5-12.3,12.3-12.3h94.9c6.8,0,12.3,5.5,12.3,12.3V162.9z M155.8,143V81.7c0-6.8-5.5-12.3-12.3-12.3h-58
						c-6.8,0-12.3,5.5-12.3,12.3V143c0,6.8,5.5,12.3,12.3,12.3h58C150.3,155.3,155.8,149.8,155.8,143L155.8,143z"/>
				</g>
				<g id="Group-6" transform="translate(0.000000, 0.165624)">
					<g id="Clip-5">
					</g>
					<defs>
						<filter id="Adobe_OpacityMaskFilter_1_" filterUnits="userSpaceOnUse" x="0" y="9.2" width="139.2" height="139.2">
							<feColorMatrix  type="matrix" values="1 0 0 0 0  0 1 0 0 0  0 0 1 0 0  0 0 0 1 0"/>
						</filter>
					</defs>
					<mask maskUnits="userSpaceOnUse" x="0" y="9.2" width="139.2" height="139.2" id="mask-4_1_">
						<g class="st3">
							<polygon id="path-3_1_" class="st1" points="0,9.2 139.2,9.2 139.2,148.3 0,148.3 							"/>
						</g>
					</mask>
					<path id="Fill-4" class="st4" d="M124.9,9.2H14.3C6.4,9.2,0,15.6,0,23.5V134c0,7.9,6.4,14.3,14.3,14.3h58.3v-15.9H45.1
						c-7.9,0-14.3-6.4-14.3-14.3V46.6c0-7.9,6.4-14.3,14.3-14.3h67.6c7.9,0,14.3,6.4,14.3,14.3v71.5c0,7.9-6.4,14.3-14.3,14.3H83
						v15.9h41.8c7.9,0,14.3-6.4,14.3-14.3V23.5C139.2,15.6,132.8,9.2,124.9,9.2"/>
				</g>
			</g>
		</g>
	</g>
</g>
</svg>
