<?xml version="1.0" encoding="UTF-8"?>
<svg width="26px" height="26px" viewBox="0 0 26 26" version="1.1" xmlns="http://www.w3.org/2000/svg" xmlns:xlink="http://www.w3.org/1999/xlink">
    <!-- Generator: Sketch 61 (89581) - https://sketch.com -->
    <title>Give_Icon</title>
    <desc>Created with Sketch.</desc>
    <defs>
        <polygon id="path-1" points="0 0 10.642 0 10.642 13.7826 0 13.7826"></polygon>
    </defs>
    <g id="Symbols" stroke="none" stroke-width="1" fill="none" fill-rule="evenodd">
        <g id="Navigation_Desktop" transform="translate(-1376.000000, -20.000000)">
            <g id="Group-2" transform="translate(1376.000000, 20.000000)">
                <g id="Give_Icon" transform="translate(0.000000, 0.000000)">
                    <g id="Group-6">
                        <g id="Group-4" fill="#221F1F" fill-rule="nonzero">
                            <path d="M13,0.5 C6.09644063,0.5 0.5,6.09644063 0.5,13 C0.5,19.9035594 6.09644063,25.5 13,25.5 C19.9035594,25.5 25.5,19.9035594 25.5,13 C25.5,6.09644063 19.9035594,0.5 13,0.5 Z M13,3.5 C18.2467051,3.5 22.5,7.75329488 22.5,13 C22.5,18.2467051 18.2467051,22.5 13,22.5 C7.75329488,22.5 3.5,18.2467051 3.5,13 C3.5,7.75329488 7.75329488,3.5 13,3.5 Z" id="Rectangle"></path>
                            <path d="M13,5 C13.5128358,5 13.9355072,5.38604019 13.9932723,5.88337887 L14,6 L14.0005389,6.55414749 C15.0495017,6.67536615 16.0134839,7.00088242 16.943336,7.53845317 C17.3017485,7.72709134 17.565842,8.14209533 17.565842,8.59482696 C17.565842,9.2739244 16.9999274,9.83983893 16.3396938,9.83983893 C16.0944642,9.83983893 15.8680984,9.76438366 15.698324,9.65120075 C15.1262359,9.3321516 14.5538269,9.10934804 14.000182,8.97904794 L14.0000416,11.734717 C15.9297087,12.2052904 18.0374374,12.968166 18.0374374,15.463143 C18.0374374,17.5256158 16.7193431,19.1335734 14.0010095,19.4451986 L14,20 C14,20.5522847 13.5522847,21 13,21 C12.4871642,21 12.0644928,20.6139598 12.0067277,20.1166211 L12,20 L12.0001693,19.451154 C10.6169087,19.3116666 9.48530108,18.8796948 8.56591453,18.2361242 C8.22636581,18.0097584 8,17.632482 8,17.1986142 C8,16.500653 8.56591453,15.9347384 9.24501197,15.9347384 C9.50910542,15.9347384 9.75433505,16.0101937 9.96278024,16.1611043 C10.5558624,16.5741321 11.2293102,16.8900146 12.0003453,17.0483252 L12.0005453,13.9610516 C10.1114303,13.4986722 8.07545527,12.7612743 8.07545527,10.2925706 C8.07545527,8.44041932 9.49238587,6.89748366 12.0005065,6.56591465 L12,6 C12,5.44771525 12.4477153,5 13,5 Z M14.0006759,14.471533 L14.0015676,17.0649373 C14.8868422,16.84975 15.3210477,16.3036309 15.3210477,15.7461003 C15.3210477,15.094909 14.8005636,14.7403038 14.0006759,14.471533 Z M10.8107088,10.1227962 C10.8107088,10.6830736 11.2702905,10.9887567 11.9997076,11.2293214 L11.9994271,8.92119557 C11.1901067,9.0966765 10.8107088,9.5428821 10.8107088,10.1227962 Z" id="Combined-Shape"></path>
                        </g>
                        <g id="Group" transform="translate(8.000000, 5.000000)">
                            <g id="Group-3" transform="translate(0.000000, 1.500000)">
                                <mask id="mask-2" fill="white">
                                    <use xlink:href="#path-1"></use>
                                </mask>
                                <g id="Clip-2"></g>
                            </g>
                        </g>
                    </g>
                </g>
            </g>
        </g>
    </g>
</svg>