<?xml version="1.0" encoding="UTF-8"?>
<svg width="17px" height="16px" viewBox="0 0 17 16" version="1.1" xmlns="http://www.w3.org/2000/svg" xmlns:xlink="http://www.w3.org/1999/xlink">
    <!-- Generator: Sketch 63.1 (92452) - https://sketch.com -->
    <title>Group 24</title>
    <desc>Created with Sketch.</desc>
    <g id="Assets" stroke="none" stroke-width="1" fill="none" fill-rule="evenodd">
        <g id="Icons" transform="translate(-616.000000, -3243.000000)" fill="#221F1F" fill-rule="nonzero">
            <g id="Group-24" transform="translate(616.000000, 3243.000000)">
                <path d="M13.9039239,9.04807919 L12.8625163,11.1452833 L16.8475163,11.1452833 L15.8111553,9.05623477 C16.6758379,8.92403898 17.1377265,8.91749075 17.1968212,9.0365901 C17.4676134,9.58234507 17.8738018,10.4009775 18.4153863,11.4924875 C18.6077809,11.8802396 18.3573322,12.3306233 17.9460152,12.3889511 L17.8555163,12.3952833 L11.8555163,12.3952833 C11.4226568,12.3952833 11.1305244,11.9707498 11.2610943,11.5763701 L11.2956463,11.4924875 L12.5267479,9.01132415 L13.9039239,9.04807919 Z" id="Stroke-1" transform="translate(14.855516, 10.673602) scale(-1, 1) rotate(90.000000) translate(-14.855516, -10.673602) "></path>
                <path d="M12,5 C13.1045695,5 14,5.8954305 14,7 L14,14 C14,15.1045695 13.1045695,16 12,16 L2,16 C0.8954305,16 0,15.1045695 0,14 L0,7 C0,5.8954305 0.8954305,5 2,5 L12,5 Z M12,6.25 L2,6.25 C1.62030423,6.25 1.30650904,6.53215388 1.25684662,6.89822944 L1.25,7 L1.25,14 C1.25,14.3796958 1.53215388,14.693491 1.89822944,14.7431534 L2,14.75 L12,14.75 C12.3796958,14.75 12.693491,14.4678461 12.7431534,14.1017706 L12.75,14 L12.75,7 C12.75,6.62030423 12.4678461,6.30650904 12.1017706,6.25684662 L12,6.25 Z" id="Rectangle"></path>
                <path d="M4,0 C5.65685425,0 7,1.34314575 7,3 C7,4.65685425 5.65685425,6 4,6 C2.34314575,6 1,4.65685425 1,3 C1,1.34314575 2.34314575,0 4,0 Z M4,1.25 C3.03350169,1.25 2.25,2.03350169 2.25,3 C2.25,3.96649831 3.03350169,4.75 4,4.75 C4.96649831,4.75 5.75,3.96649831 5.75,3 C5.75,2.03350169 4.96649831,1.25 4,1.25 Z" id="Rectangle"></path>
                <path d="M8.5,1 C9.88071187,1 11,2.11928813 11,3.5 C11,4.88071187 9.88071187,6 8.5,6 C7.11928813,6 6,4.88071187 6,3.5 C6,2.11928813 7.11928813,1 8.5,1 Z M8.5,2.25 C7.80964406,2.25 7.25,2.80964406 7.25,3.5 C7.25,4.19035594 7.80964406,4.75 8.5,4.75 C9.19035594,4.75 9.75,4.19035594 9.75,3.5 C9.75,2.80964406 9.19035594,2.25 8.5,2.25 Z" id="Rectangle"></path>
            </g>
        </g>
    </g>
</svg>