<?xml version="1.0" encoding="utf-8"?>
<!-- Generator: Adobe Illustrator 24.0.1, SVG Export Plug-In . SVG Version: 6.00 Build 0)  -->
<svg version="1.1" xmlns="http://www.w3.org/2000/svg" xmlns:xlink="http://www.w3.org/1999/xlink" x="0px" y="0px"
	 viewBox="0 0 183 117" style="enable-background:new 0 0 183 117;" xml:space="preserve">
<style type="text/css">
	.st0{display:none;}
	
		.st1{display:inline;fill-rule:evenodd;clip-rule:evenodd;fill:#FFFFFF;stroke:#221F1F;stroke-width:3;stroke-linejoin:round;stroke-miterlimit:10;}
	.st2{display:inline;fill:#FB1F1F;}
	.st3{display:inline;}
	.st4{fill:#F01FFF;}
	
		.st5{fill-rule:evenodd;clip-rule:evenodd;fill:#FFFFFF;stroke:#000000;stroke-width:3;stroke-linejoin:round;stroke-miterlimit:10;}
	.st6{fill:none;stroke:#E6E7E8;stroke-width:2;stroke-miterlimit:10;}
	.st7{clip-path:url(#SVGID_4_);}
	.st8{opacity:0.5;fill:#777576;}
	.st9{opacity:0.5;}
	.st10{fill:#777576;}
	.st11{fill:#221F1F;}
	.st12{fill:#59EFF4;}
	.st13{fill:#FFFFFF;}
	.st14{fill:#FFFFFF;stroke:#777576;stroke-miterlimit:10;}
	.st15{fill:none;stroke:#221F1F;stroke-width:2;stroke-miterlimit:10;}
	.st16{fill:none;stroke:#221F1F;stroke-width:2;stroke-linecap:round;stroke-linejoin:round;stroke-miterlimit:10;}
	.st17{opacity:0.15;fill:#EDEDED;}
	.st18{fill:none;stroke:#000000;stroke-width:2;stroke-linecap:round;stroke-miterlimit:10;}
	.st19{fill:#43CBDD;}
	.st20{fill:#53DAEC;}
	.st21{fill:#1FB1C9;}
	.st22{fill-rule:evenodd;clip-rule:evenodd;fill:none;stroke:#221F1F;stroke-width:3;stroke-linejoin:round;stroke-miterlimit:10;}
	.st23{fill:#5A5C61;}
	.st24{fill:#FFFFFF;stroke:#5A5C61;stroke-width:4.2;stroke-linecap:square;stroke-miterlimit:10;}
	
		.st25{fill-rule:evenodd;clip-rule:evenodd;fill:#FFFFFF;stroke:#221F1F;stroke-width:3;stroke-linejoin:round;stroke-miterlimit:10;}
	
		.st26{fill-rule:evenodd;clip-rule:evenodd;fill:#FFFFFF;stroke:#221F1F;stroke-width:3.8903;stroke-linejoin:round;stroke-miterlimit:10;}
	.st27{fill:#FFFFFF;stroke:#221F1F;stroke-width:3;stroke-linejoin:round;stroke-miterlimit:10;}
	.st28{fill:#FB1F1F;}
	
		.st29{opacity:0.8;fill-rule:evenodd;clip-rule:evenodd;fill:#FFFFFF;stroke:#221F1F;stroke-width:3;stroke-linejoin:round;stroke-miterlimit:10;}
	.st30{opacity:0.8;fill:#FFFFFF;stroke:#221F1F;stroke-width:3;stroke-linejoin:round;stroke-miterlimit:10;}
	.st31{fill:none;stroke:#FF45D1;stroke-width:3;stroke-linecap:round;stroke-linejoin:round;stroke-miterlimit:10;}
	.st32{fill:none;stroke:#000000;stroke-width:3;stroke-linecap:round;stroke-linejoin:round;stroke-miterlimit:10;}
	
		.st33{fill-rule:evenodd;clip-rule:evenodd;fill:none;stroke:#FF45D1;stroke-width:3;stroke-linecap:round;stroke-linejoin:round;stroke-miterlimit:10;}
	.st34{fill-rule:evenodd;clip-rule:evenodd;fill:none;stroke:#000000;stroke-width:3;stroke-linejoin:round;stroke-miterlimit:10;}
	.st35{fill:#2745D1;}
</style>
<g id="Layer_3" class="st0">
</g>
<g id="Layer_2" class="st0">
</g>
<g id="Layer_1">
	<path class="st11" d="M122.49,87.7l4.96-4.96c1.36-1.36,2.1-3.16,2.1-5.08s-0.75-3.72-2.1-5.08c-1.08-1.08-2.44-1.76-3.91-2
		l1.09-1.09c1.36-1.36,2.1-3.16,2.1-5.08c0-1.92-0.75-3.72-2.1-5.08c-1.08-1.08-2.44-1.76-3.91-2l0.39-0.39
		c1.36-1.36,2.1-3.16,2.1-5.08s-0.75-3.72-2.1-5.08c-1.08-1.08-2.44-1.76-3.91-2l0.36-0.36c2.8-2.8,2.8-7.36,0-10.16
		s-7.36-2.8-10.16,0L96.84,44.8l-9.48-16.57c4.11-6.04,4.42-13.89,0.74-20.27c-3.27-5.67-10.54-7.62-16.22-4.34l-0.3,0.17
		c-0.34,0.2-0.6,0.53-0.7,0.91s-0.05,0.79,0.15,1.14l5.16,8.94l-2.82,5.86l-6.49-0.48l-5.16-8.94c-0.41-0.72-1.33-0.96-2.05-0.55
		l-0.3,0.17c-5.67,3.27-7.62,10.55-4.34,16.21c3.68,6.38,10.64,10.03,17.92,9.5l3.9,6.84c-1,0.61-1.84,1.45-2.42,2.46l-8.29,12.61
		c-0.29,0.44-0.81,1.21-1.46,2.16c-2.03,2.98-5.1,7.49-5.92,9.13c-6.52,13-5.08,22.93,5.08,33.82c0.06,0.09,0.13,0.18,0.21,0.26
		c0,0,0,0,0,0l1.31,1.31c0.11,0.11,0.23,0.2,0.36,0.27c6.14,5.45,13.27,8.2,20.2,8.2c6.72,0,13.25-2.59,18.49-7.83l5.51-5.51
		c0.04-0.04,0.06-0.1,0.1-0.15c0.05-0.04,0.1-0.05,0.15-0.1l0.14-0.14l1.66,2.87c1.11,1.92,2.9,3.3,5.05,3.88
		c0.72,0.19,1.44,0.29,2.17,0.29c1.44,0,2.86-0.38,4.14-1.12c3.97-2.29,5.34-7.39,3.04-11.36L122.49,87.7z M75.08,34.21
		c-0.3-0.53-0.89-0.82-1.49-0.75c-6.45,0.81-12.71-2.3-15.95-7.92c-2.25-3.9-1.2-8.81,2.28-11.47l4.77,8.26
		c0.25,0.43,0.69,0.71,1.19,0.75l8.3,0.62c0.62,0.04,1.2-0.29,1.46-0.84l3.61-7.5c0.22-0.45,0.2-0.97-0.05-1.4L74.42,5.7
		c4.05-1.68,8.83-0.14,11.08,3.76c3.25,5.62,2.81,12.6-1.12,17.78c-0.36,0.48-0.41,1.13-0.11,1.65L94.64,47l-7.81,7.81L75.08,34.21z
		 M107.95,98.04c-0.05,0.04-0.1,0.05-0.15,0.1l-5.51,5.51c-9.74,9.74-24.59,9.11-35.57-1.41c-8.3-8.56-12.24-17.26-5.28-31.15
		c0.73-1.47,3.86-6.05,5.72-8.79c0.66-0.97,1.19-1.75,1.49-2.2l8.34-12.69c0.34-0.58,0.81-1.05,1.36-1.41l4.53,7.94l-6.67,11.56
		c-0.03,0.05-0.05,0.1-0.07,0.15c-0.01,0.02-0.02,0.04-0.03,0.07c-0.06,0.16-0.09,0.33-0.1,0.5c0,0.02,0,0.04,0,0.07
		c0,0.17,0.04,0.34,0.1,0.5c0.01,0.02,0.01,0.04,0.02,0.06c0.07,0.16,0.17,0.31,0.29,0.44c0.01,0.01,0.01,0.02,0.02,0.03
		c0.01,0.01,0.01,0.01,0.02,0.01c0.09,0.08,0.18,0.16,0.29,0.23c0.05,0.03,0.1,0.05,0.15,0.07c0.02,0.01,0.04,0.02,0.06,0.03
		c0.16,0.06,0.33,0.09,0.5,0.1c0.01,0,0.02,0.01,0.04,0.01c0.01,0,0.02,0,0.03,0c0.17,0,0.34-0.04,0.5-0.1
		c0.02-0.01,0.04-0.01,0.06-0.02c0.16-0.07,0.31-0.17,0.44-0.29c0.01-0.01,0.02-0.01,0.03-0.02l30.95-30.95
		c1.63-1.63,4.29-1.63,5.92,0c1.63,1.63,1.63,4.29,0,5.92l-17.5,17.5c0,0,0,0,0,0l-8.23,8.24c-0.59,0.59-0.59,1.54,0,2.12
		c0.29,0.29,0.68,0.44,1.06,0.44s0.77-0.15,1.06-0.44l21.25-21.25c0.79-0.79,1.84-1.23,2.96-1.23s2.17,0.44,2.96,1.23
		s1.23,1.84,1.23,2.96s-0.44,2.17-1.23,2.96l-4.51,4.51c0,0,0,0,0,0L99.01,74.79c-0.59,0.59-0.59,1.54,0,2.12
		c0.29,0.29,0.68,0.44,1.06,0.44s0.77-0.15,1.06-0.44l15.44-15.44l0.01-0.01c0.79-0.79,1.84-1.23,2.96-1.23
		c1.12,0,2.17,0.44,2.96,1.23c0.79,0.79,1.23,1.84,1.23,2.96c0,1.12-0.44,2.17-1.23,2.96l-5.21,5.21l-13.24,13.24
		c-0.59,0.59-0.59,1.54,0,2.12c0.59,0.59,1.54,0.59,2.12,0l13.24-13.24c0.79-0.79,1.84-1.22,2.96-1.22s2.17,0.43,2.96,1.23
		c0.79,0.79,1.23,1.84,1.23,2.96s-0.44,2.17-1.23,2.96l-17.28,17.28C108.01,97.94,107.99,97.99,107.95,98.04z M121.82,103.19
		c-1.23,0.71-2.66,0.9-4.03,0.53c-1.37-0.37-2.52-1.25-3.23-2.48l-2.06-3.56l7.79-7.79l3.48,6.03
		C125.24,98.47,124.36,101.73,121.82,103.19z"/>
</g>
</svg>
