<svg xmlns="http://www.w3.org/2000/svg" viewBox="0 0 26 26"><g fill="#221f1f"><path d="M13 .5C7.8.5 3.5 4.7 3.5 9.8c0 2.8 1.4 6 3.8 9.4.8 1.2 1.7 2.3 2.6 3.4l.5.6c.3.4.6.7.8.9l.8.8c.6.6 1.6.6 2.2 0l.8-.8c.3-.3.8-.9 1.3-1.5.9-1.1 1.7-2.2 2.6-3.4 2.4-3.5 3.8-6.7 3.8-9.4C22.5 4.7 18.2.5 13 .5zm0 3c3.6 0 6.5 2.8 6.5 6.3 0 2-1.2 4.7-3.2 7.7-.8 1.1-1.6 2.2-2.4 3.2l-.5.6-.4.5-.4-.4c-.1-.2-.3-.4-.5-.6-.8-1-1.6-2.1-2.4-3.2-2-3-3.2-5.7-3.2-7.7 0-3.6 2.9-6.4 6.5-6.4z"/><path d="M13 7c1.7 0 3 1.3 3 3s-1.3 3-3 3-3-1.3-3-3 1.3-3 3-3z" fill-rule="evenodd" clip-rule="evenodd"/></g></svg>