<?xml version="1.0" encoding="utf-8"?>
<!-- Generator: Adobe Illustrator 23.1.1, SVG Export Plug-In . SVG Version: 6.00 Build 0)  -->
<svg version="1.1" id="Layer_1" xmlns="http://www.w3.org/2000/svg" xmlns:xlink="http://www.w3.org/1999/xlink" x="0px" y="0px"
	 viewBox="0 0 60 60" style="enable-background:new 0 0 60 60;" xml:space="preserve">
<style type="text/css">
	.st0{fill:#221F1F;}
	.st1{fill-rule:evenodd;clip-rule:evenodd;fill:#221F1F;}
</style>
<title>LocationMarker_Icon</title>
<desc>Created with Sketch.</desc>
<g id="Assets">
	<g id="Icons" transform="translate(-135.000000, -947.000000)">
		<g id="LocationMarker_Icon" transform="translate(137.000000, 949.000000)">
			<g id="Group-4" transform="translate(-2.000000, -2.000000)">
				<path id="Stroke-1" class="st0" d="M30,2C18.3,2,8.7,11.4,8.7,22.9c0,6.2,3.2,13.4,8.4,21.1c1.8,2.7,3.8,5.2,5.7,7.6L24,53
					c0.7,0.8,1.3,1.5,1.8,2l1.7,1.9c1.3,1.4,3.6,1.4,4.9,0l1.7-1.9c0.7-0.8,1.7-1.9,2.9-3.4c2-2.4,3.9-5,5.7-7.6
					c5.3-7.8,8.4-14.9,8.4-21.1C51.3,11.4,41.7,2,30,2z M30,8.7c8,0,14.6,6.4,14.6,14.2c0,4.5-2.7,10.6-7.3,17.4
					c-1.7,2.5-3.5,4.9-5.4,7.1l-1.1,1.3l-0.9,1l-0.9-1c-0.3-0.4-0.7-0.8-1.1-1.3c-1.8-2.2-3.7-4.6-5.4-7.1
					c-4.6-6.7-7.3-12.9-7.3-17.4C15.4,15.1,22,8.7,30,8.7z"/>
				<path id="Rectangle" class="st1" d="M30,16.6L30,16.6c3.7,0,6.7,3,6.7,6.7l0,0c0,3.7-3,6.7-6.7,6.7l0,0c-3.7,0-6.7-3-6.7-6.7
					l0,0C23.3,19.6,26.3,16.6,30,16.6z"/>
			</g>
		</g>
	</g>
</g>
</svg>
