<?xml version="1.0" encoding="UTF-8"?>
<svg width="20px" height="26px" viewBox="0 0 20 26" version="1.1" xmlns="http://www.w3.org/2000/svg" xmlns:xlink="http://www.w3.org/1999/xlink">
    <!-- Generator: Sketch 60.1 (88133) - https://sketch.com -->
    <title>LocationMarker_Icon</title>
    <desc>Created with Sketch.</desc>
    <g id="Assets" stroke="none" stroke-width="1" fill="none" fill-rule="evenodd">
        <g id="Icons" transform="translate(-135.000000, -947.000000)" fill="#221F1F">
            <g id="LocationMarker_Icon" transform="translate(137.000000, 949.000000)">
                <g id="Group-4" transform="translate(-2.000000, -2.000000)">
                    <path d="M9.99948417,0.5 C4.76769838,0.5 0.5,4.67678107 0.5,9.8293791 C0.5,12.5965847 1.91293368,15.7900998 4.26447667,19.2613936 C5.07229652,20.4538787 5.94174358,21.6010404 6.82104461,22.6693696 L7.33441592,23.2831263 C7.65147152,23.6556584 7.91760232,23.9554949 8.12956288,24.18613 L8.89752835,25.0176902 C9.49143232,25.6607699 10.507536,25.6607699 11.10144,25.0176902 L11.866931,24.1888159 C12.1879696,23.8394991 12.6272345,23.3385458 13.1780196,22.669449 C14.0574525,21.6011089 14.9270175,20.4539563 15.7349506,19.2614775 C18.086853,15.7901586 19.5,12.5966327 19.5,9.8293791 C19.5,4.67659414 15.2321127,0.5 9.99948417,0.5 Z M9.99948417,3.5 C13.5896037,3.5 16.5,6.34814084 16.5,9.8293791 C16.5,11.8371318 15.2923457,14.5662712 13.2513154,17.5787547 C12.4997942,18.6879716 11.6854698,19.7622494 10.8618283,20.7628138 L10.3853175,21.3325587 L9.999,21.778 L9.61385715,21.3326957 C9.46748048,21.1606293 9.30846347,20.9707716 9.13736664,20.7628932 C8.31385219,19.7623433 7.49964042,18.6880599 6.74822563,17.5788386 C4.70748569,14.5663452 3.5,11.8371839 3.5,9.8293791 C3.5,6.3482666 6.41026571,3.5 9.99948417,3.5 Z" id="Stroke-1" fill-rule="nonzero"></path>
                    <rect id="Rectangle" x="7" y="7" width="6" height="6" rx="3"></rect>
                </g>
            </g>
        </g>
    </g>
</svg>