<?xml version="1.0" encoding="utf-8"?>
<!-- Generator: Adobe Illustrator 23.1.1, SVG Export Plug-In . SVG Version: 6.00 Build 0)  -->
<svg version="1.1" id="Layer_1" xmlns="http://www.w3.org/2000/svg" xmlns:xlink="http://www.w3.org/1999/xlink" x="0px" y="0px"
	 viewBox="0 0 183 117" style="enable-background:new 0 0 183 117;" xml:space="preserve">
<style type="text/css">
	.st0{display:none;}
	.st1{fill:#FFFFFF;}
</style>
<g id="Layer_3" class="st0">
</g>
<path id="Combined-Shape_8_" class="st1" d="M122.6,0.4c0.8,0,1.5,0.7,1.5,1.5l0,0v12.6h12.7c0.8,0,1.4,0.6,1.5,1.4V16v99.1
	c0,0.8-0.6,1.4-1.4,1.5h-0.1H60.4c-0.8,0-1.4-0.6-1.5-1.4v-0.1v-12.6H46.2c-0.8,0-1.4-0.6-1.5-1.4V101V1.9c0-0.8,0.7-1.5,1.5-1.5
	l0,0C46.2,0.4,122.6,0.4,122.6,0.4z M124.1,100.9c0,0.8-0.7,1.5-1.5,1.5l0,0H61.9v11.2h73.4V17.5h-11.2
	C124.1,17.5,124.1,100.9,124.1,100.9z M121.1,3.4H47.7v96.1h73.4L121.1,3.4L121.1,3.4z"/>
<path id="Line-4_11_" class="st1" d="M106.3,42.6c0.8,0,1.5,0.7,1.5,1.5s-0.6,1.4-1.4,1.5h-0.1H62.6c-0.8,0-1.5-0.7-1.5-1.5
	s0.6-1.4,1.4-1.5h0.1H106.3z"/>
<path id="Line-4_10_" class="st1" d="M106.3,26.1c0.8,0,1.5,0.7,1.5,1.5s-0.6,1.4-1.4,1.5h-0.1H62.6c-0.8,0-1.5-0.7-1.5-1.5
	s0.6-1.4,1.4-1.5h0.1H106.3z"/>
<path id="Line-4_9_" class="st1" d="M106.3,57.3c0.8,0,1.5,0.7,1.5,1.5s-0.6,1.4-1.4,1.5h-0.1H62.6c-0.8,0-1.5-0.7-1.5-1.5
	s0.6-1.4,1.4-1.5h0.1H106.3z"/>
<path id="Line-4_8_" class="st1" d="M106.3,73.8c0.8,0,1.5,0.7,1.5,1.5s-0.6,1.4-1.4,1.5h-0.1H62.6c-0.8,0-1.5-0.7-1.5-1.5
	s0.6-1.4,1.4-1.5h0.1H106.3z"/>
</svg>
