<?xml version="1.0" encoding="utf-8"?>
<!-- Generator: Adobe Illustrator 23.1.1, SVG Export Plug-In . SVG Version: 6.00 Build 0)  -->
<svg version="1.1" id="Layer_1" xmlns="http://www.w3.org/2000/svg" xmlns:xlink="http://www.w3.org/1999/xlink" x="0px" y="0px"
	 viewBox="0 0 183 117" style="enable-background:new 0 0 183 117;" xml:space="preserve">
<style type="text/css">
	.st0{display:none;}
	.st1{fill:#FFFFFF;}
</style>
<g id="Layer_3" class="st0">
</g>
<g>
	<g id="Assets_6_">
		<g id="Text-Styles_6_" transform="translate(-1254.000000, -1285.000000)">
			<g id="Group-21_2_" transform="translate(1254.500000, 1285.500000)">
				<path id="Combined-Shape_8_" class="st1" d="M122.1-0.1c0.8,0,1.5,0.7,1.5,1.5l0,0V14h12.7c0.8,0,1.4,0.6,1.5,1.4l0,0.1v99.1
					c0,0.8-0.6,1.4-1.4,1.5l-0.1,0H59.9c-0.8,0-1.4-0.6-1.5-1.4l0-0.1V102H45.7c-0.8,0-1.4-0.6-1.5-1.4l0-0.1V1.4
					c0-0.8,0.7-1.5,1.5-1.5l0,0C45.7-0.1,122.1-0.1,122.1-0.1z M123.6,100.4c0,0.8-0.7,1.5-1.5,1.5l0,0H61.4v11.2h73.4V17h-11.2
					V100.4z M120.6,2.9H47.2V99h73.4L120.6,2.9L120.6,2.9z"/>
				<path id="Line-4_11_" class="st1" d="M105.8,42.1c0.8,0,1.5,0.7,1.5,1.5c0,0.8-0.6,1.4-1.4,1.5l-0.1,0H62.1
					c-0.8,0-1.5-0.7-1.5-1.5c0-0.8,0.6-1.4,1.4-1.5l0.1,0H105.8z"/>
				<path id="Line-4_10_" class="st1" d="M105.8,25.6c0.8,0,1.5,0.7,1.5,1.5c0,0.8-0.6,1.4-1.4,1.5l-0.1,0H62.1
					c-0.8,0-1.5-0.7-1.5-1.5c0-0.8,0.6-1.4,1.4-1.5l0.1,0H105.8z"/>
				<path id="Line-4_9_" class="st1" d="M105.8,56.8c0.8,0,1.5,0.7,1.5,1.5c0,0.8-0.6,1.4-1.4,1.5l-0.1,0H62.1
					c-0.8,0-1.5-0.7-1.5-1.5c0-0.8,0.6-1.4,1.4-1.5l0.1,0H105.8z"/>
				<path id="Line-4_8_" class="st1" d="M105.8,73.3c0.8,0,1.5,0.7,1.5,1.5c0,0.8-0.6,1.4-1.4,1.5l-0.1,0H62.1
					c-0.8,0-1.5-0.7-1.5-1.5c0-0.8,0.6-1.4,1.4-1.5l0.1,0H105.8z"/>
			</g>
		</g>
	</g>
</g>
</svg>
