<?xml version="1.0" encoding="UTF-8"?>
<svg width="16px" height="16px" viewBox="0 0 16 16" version="1.1" xmlns="http://www.w3.org/2000/svg" xmlns:xlink="http://www.w3.org/1999/xlink">
    <!-- Generator: Sketch 63.1 (92452) - https://sketch.com -->
    <title>Group 26</title>
    <desc>Created with Sketch.</desc>
    <g id="Assets" stroke="none" stroke-width="1" fill="none" fill-rule="evenodd">
        <g id="Icons" transform="translate(-709.000000, -3243.000000)" fill="#221F1F">
            <g id="Group-26" transform="translate(709.000000, 3243.000000)">
                <g id="Group-3" transform="translate(3.555556, 3.415205)">
                    <path d="M3.68476178,2.09055366 C3.86579757,1.87141643 4.16979734,1.85957338 4.36376426,2.06410145 C5.59600247,3.36343285 5.66259756,5.54530215 4.51250857,6.93744293 C4.46465106,6.9953727 4.41504016,7.05142141 4.36376426,7.10548919 C4.16979734,7.31001726 3.86579757,7.29817421 3.68476178,7.07903699 C3.50372599,6.85989977 3.51420874,6.51645118 3.70817566,6.31192311 L3.81009222,6.19678126 C4.59810963,5.24291492 4.55248004,3.74794278 3.70817566,2.85766753 C3.51420874,2.65313946 3.50372599,2.30969088 3.68476178,2.09055366 Z" id="Rectangle" fill-rule="nonzero"></path>
                    <path d="M5.4816921,0.328057726 C5.68956324,0.0894985999 6.03865754,0.0765739588 6.26134467,0.299261092 C8.47102481,2.50830728 8.59044479,6.21779207 6.52807666,8.58462727 C6.44225738,8.68311603 6.35328074,8.77839356 6.26134471,8.87032959 C6.03865758,9.09301673 5.68956324,9.08009204 5.4816921,8.84153292 C5.27382095,8.60297379 5.28585759,8.22908572 5.50857667,8.00643054 C5.58199032,7.93303795 5.65302011,7.85695643 5.72153951,7.77832152 C7.36816536,5.88860457 7.27281865,2.92689593 5.50857667,1.16316011 C5.28585759,0.940504923 5.27382095,0.566616852 5.4816921,0.328057726 Z" id="Rectangle" fill-rule="nonzero"></path>
                    <rect id="Rectangle" x="0.873123389" y="3.69267335" width="1.9869281" height="1.9869281" rx="0.993464052"></rect>
                </g>
                <path d="M8,0 C12.418278,0 16,3.581722 16,8 C16,12.418278 12.418278,16 8,16 C3.581722,16 0,12.418278 0,8 C0,3.581722 3.581722,0 8,0 Z M8,1.25 C4.27207794,1.25 1.25,4.27207794 1.25,8 C1.25,11.7279221 4.27207794,14.75 8,14.75 C11.7279221,14.75 14.75,11.7279221 14.75,8 C14.75,4.27207794 11.7279221,1.25 8,1.25 Z" id="Rectangle" fill-rule="nonzero"></path>
            </g>
        </g>
    </g>
</svg>