<?xml version="1.0" encoding="UTF-8"?>
<svg width="24px" height="16px" viewBox="0 0 24 16" version="1.1" xmlns="http://www.w3.org/2000/svg" xmlns:xlink="http://www.w3.org/1999/xlink">
    <!-- Generator: Sketch 60.1 (88133) - https://sketch.com -->
    <title>Email_Icon</title>
    <desc>Created with Sketch.</desc>
    <g id="Assets" stroke="none" stroke-width="1" fill="none" fill-rule="evenodd">
        <g id="Icons" transform="translate(-64.000000, -1156.000000)" fill="#231F20">
            <g id="Email_Icon" transform="translate(65.000000, 1157.000000)">
                <g id="Group-4" transform="translate(-2.000000, -1.000000)">
                    <path d="M24,0 C24.0418926,0 24.0831836,0.002576033 24.1237232,0.00757833654 C24.4411404,0.0433983794 24.6890818,0.219100264 24.8394007,0.454557658 C24.8419921,0.46025421 24.844991,0.464951518 24.8479516,0.469675329 C24.8624805,0.491779815 24.8758022,0.515473933 24.8881682,0.539645798 C24.892906,0.54915533 24.8976031,0.558561885 24.9021549,0.568051384 C24.9122482,0.5893589 24.9216102,0.611002656 24.9302271,0.632937214 C24.933992,0.641825639 24.9373511,0.650705455 24.9405864,0.659644553 L24.9302271,0.632937214 C24.9608915,0.71099494 24.9821187,0.792735422 24.9931481,0.875994802 C24.997424,0.916816368 25,0.958107351 25,1 L24.9953658,0.893951854 C25.0019213,0.95118112 25.0036569,1.00905142 25.0003274,1.06686524 L25,15 C25,15.5522847 24.5522847,16 24,16 L24,16 L2,16 C1.44771525,16 1,15.5522847 1,15 L1,15 L0.999067218,1.05509334 C0.991288051,0.886651784 1.02646027,0.718259003 1.09837454,0.567040488 C1.10387731,0.555509326 1.10965442,0.544071021 1.11564213,0.53276136 C1.12663458,0.511337557 1.13863929,0.49017488 1.15138887,0.469453614 C1.15610505,0.463202625 1.1602338,0.456779684 1.16443349,0.450407628 C1.33361977,0.187150446 1.62587464,3.90798505e-14 2,3.90798505e-14 L2,3.90798505e-14 Z M22.9990059,3.084 L13.4052162,10.7800673 C13.0338731,11.0779233 12.5040384,11.0727178 12.1386192,10.7676233 L12.1386192,10.7676233 L2.99900586,3.136 L3,14 L23,14 L22.9990059,3.084 Z M21.154,2 L4.757,2 L12.791,8.707 L21.154,2 Z" id="Combined-Shape" fill-rule="nonzero"></path>
                </g>
            </g>
        </g>
    </g>
</svg>