<?xml version="1.0" encoding="utf-8"?>
<!-- Generator: Adobe Illustrator 24.0.1, SVG Export Plug-In . SVG Version: 6.00 Build 0)  -->
<svg version="1.1" xmlns="http://www.w3.org/2000/svg" xmlns:xlink="http://www.w3.org/1999/xlink" x="0px" y="0px"
	 viewBox="0 0 183 117" style="enable-background:new 0 0 183 117;" xml:space="preserve">
<style type="text/css">
	.st0{display:none;}
	
		.st1{display:inline;fill-rule:evenodd;clip-rule:evenodd;fill:#FFFFFF;stroke:#221F1F;stroke-width:3;stroke-linejoin:round;stroke-miterlimit:10;}
	.st2{display:inline;fill:#FB1F1F;}
	.st3{display:inline;}
	.st4{fill:#F01FFF;}
	
		.st5{fill-rule:evenodd;clip-rule:evenodd;fill:#FFFFFF;stroke:#000000;stroke-width:3;stroke-linejoin:round;stroke-miterlimit:10;}
	.st6{fill:none;stroke:#E6E7E8;stroke-width:2;stroke-miterlimit:10;}
	.st7{clip-path:url(#SVGID_4_);}
	.st8{opacity:0.5;fill:#777576;}
	.st9{opacity:0.5;}
	.st10{fill:#777576;}
	.st11{fill:#221F1F;}
	.st12{fill:#59EFF4;}
	.st13{fill:#FFFFFF;}
	.st14{fill:#FFFFFF;stroke:#777576;stroke-miterlimit:10;}
	.st15{fill:none;stroke:#221F1F;stroke-width:2;stroke-miterlimit:10;}
	.st16{fill:none;stroke:#221F1F;stroke-width:2;stroke-linecap:round;stroke-linejoin:round;stroke-miterlimit:10;}
	.st17{opacity:0.15;fill:#EDEDED;}
	.st18{fill:none;stroke:#000000;stroke-width:2;stroke-linecap:round;stroke-miterlimit:10;}
	.st19{fill:#43CBDD;}
	.st20{fill:#53DAEC;}
	.st21{fill:#1FB1C9;}
	.st22{fill-rule:evenodd;clip-rule:evenodd;fill:none;stroke:#221F1F;stroke-width:3;stroke-linejoin:round;stroke-miterlimit:10;}
	.st23{fill:#5A5C61;}
	.st24{fill:#FFFFFF;stroke:#5A5C61;stroke-width:4.2;stroke-linecap:square;stroke-miterlimit:10;}
	
		.st25{fill-rule:evenodd;clip-rule:evenodd;fill:#FFFFFF;stroke:#221F1F;stroke-width:3;stroke-linejoin:round;stroke-miterlimit:10;}
	
		.st26{fill-rule:evenodd;clip-rule:evenodd;fill:#FFFFFF;stroke:#221F1F;stroke-width:3.8903;stroke-linejoin:round;stroke-miterlimit:10;}
	.st27{fill:#FFFFFF;stroke:#221F1F;stroke-width:3;stroke-linejoin:round;stroke-miterlimit:10;}
	.st28{fill:#FB1F1F;}
	
		.st29{opacity:0.8;fill-rule:evenodd;clip-rule:evenodd;fill:#FFFFFF;stroke:#221F1F;stroke-width:3;stroke-linejoin:round;stroke-miterlimit:10;}
	.st30{opacity:0.8;fill:#FFFFFF;stroke:#221F1F;stroke-width:3;stroke-linejoin:round;stroke-miterlimit:10;}
	.st31{fill:none;stroke:#FF45D1;stroke-width:3;stroke-linecap:round;stroke-linejoin:round;stroke-miterlimit:10;}
	.st32{fill:none;stroke:#000000;stroke-width:3;stroke-linecap:round;stroke-linejoin:round;stroke-miterlimit:10;}
	
		.st33{fill-rule:evenodd;clip-rule:evenodd;fill:none;stroke:#FF45D1;stroke-width:3;stroke-linecap:round;stroke-linejoin:round;stroke-miterlimit:10;}
	.st34{fill-rule:evenodd;clip-rule:evenodd;fill:none;stroke:#000000;stroke-width:3;stroke-linejoin:round;stroke-miterlimit:10;}
	.st35{fill:#2745D1;}
</style>
<g id="Layer_3" class="st0">
	<path id="Fill-1_14_" class="st1" d="M157.48,70.42c-2.95-5.25-7.16-8.27-13.42-9.93c-4.75,4.67-11.26,7.56-18.42,7.56
		c-7.18,0-13.69-2.89-18.44-7.56c-6.26,1.66-10.48,4.67-13.43,9.93c-5.01,8.93-7.76,26.39-7.93,28.06
		c-0.04,0.36,0.13,0.67,0.47,0.74c3.37,0.68,24.93,2.67,39.31,2.67c14.38,0,35.95-2,39.31-2.67c0.34-0.07,0.5-0.38,0.47-0.74
		C165.24,96.81,162.49,79.35,157.48,70.42"/>
	<path id="Fill-4_16_" class="st1" d="M125.64,25.18c-11.28,0-20.42,9.19-20.42,20.47c0,11.32,9.13,20.44,20.42,20.44
		c11.26,0,20.4-9.12,20.4-20.44C146.03,34.38,136.9,25.18,125.64,25.18"/>
	<path id="Fill-1_12_" class="st1" d="M83.97,70.42c-2.95-5.25-7.16-8.27-13.42-9.93c-4.75,4.67-11.26,7.56-18.42,7.56
		c-7.18,0-13.69-2.89-18.44-7.56c-6.26,1.66-10.48,4.67-13.43,9.93c-5.01,8.93-7.76,26.39-7.93,28.06
		c-0.04,0.36,0.13,0.67,0.47,0.74c3.37,0.68,24.93,2.67,39.31,2.67c14.38,0,35.95-2,39.31-2.67c0.34-0.07,0.5-0.38,0.47-0.74
		C91.73,96.81,88.98,79.35,83.97,70.42"/>
	<path id="Fill-4_14_" class="st1" d="M52.13,25.18c-11.28,0-20.42,9.19-20.42,20.47c0,11.32,9.13,20.44,20.42,20.44
		c11.26,0,20.4-9.12,20.4-20.44C72.52,34.38,63.39,25.18,52.13,25.18"/>
</g>
<g id="Layer_2" class="st0">
	<g id="Assets_5_" class="st3">
		<g id="Text-Styles_5_" transform="translate(-859.000000, -1297.000000)">
			<path id="Combined-Shape_7_" class="st4" d="M1009.3,1319.62c12.7,0,23,10.3,23,23c0,4.87-1.51,9.38-4.09,13.1
				c5.29,1.83,8.97,4.93,11.58,9.78c1.91,3.56,3.59,8.6,5.02,14.55l0.16,0.67l0.31,1.35c0.89,3.95,1.66,8.31,1.93,10.41l0.03,0.21
				l0.06,0.5c0.09,1.06-0.5,2.08-1.62,2.31c-4.44,0.93-24.85,2.57-36.27,2.62l-0.4,0l-0.72,0c-5.81-0.03-13.19-0.41-20.64-0.99
				l-0.93-0.07l-0.72-0.06l-0.02-0.1c0.83,3.84,1.53,7.91,1.76,9.79l0.02,0.19l0.03,0.32c0.09,1.06-0.49,2.07-1.62,2.31
				c-4.3,0.91-23.7,2.5-35.16,2.61l-0.41,0l-1.21,0c-10.92-0.04-30.11-1.57-35.44-2.51l-0.2-0.04l-0.34-0.07
				c-1.12-0.24-1.71-1.26-1.61-2.33c0.15-1.54,0.9-6.02,1.81-10.24l-0.01,0.06l-0.72,0.06l-0.93,0.07
				c-7.45,0.58-14.83,0.96-20.64,0.99l0,0l-0.72,0l-0.4,0c-11.42-0.04-31.83-1.68-36.27-2.62c-1.13-0.24-1.71-1.25-1.62-2.31l0,0
				l0.06-0.5l0.03-0.21c0.28-2.1,1.05-6.47,1.93-10.41l0,0l0.31-1.35l0.16-0.67c1.43-5.95,3.11-10.99,5.02-14.55
				c2.61-4.86,6.28-7.95,11.58-9.78c-2.58-3.72-4.09-8.23-4.09-13.1c0-12.7,10.3-23,23-23c12.7,0,23,10.3,23,23
				c0,4.8-1.47,9.25-3.98,12.94c5.56,1.8,9.38,4.94,12.07,9.95c1.1,2.05,2.13,4.61,3.08,7.58c1.76-1.4,3.79-2.49,6.15-3.33
				c-2.63-3.61-4.21-8.03-4.31-12.82l-0.01-0.5v-1.66c0-12.39,9.95-22.46,22.29-22.67l0.37,0h1.66c12.39,0,22.47,9.95,22.67,22.29
				l0,0.37v1.66c0,4.97-1.6,9.57-4.32,13.31c2.22,0.79,4.16,1.8,5.84,3.09l0.3,0.24c0.95-2.97,1.98-5.53,3.08-7.58
				c2.69-5.01,6.51-8.15,12.07-9.95c-2.51-3.69-3.98-8.14-3.98-12.94C986.3,1329.92,996.59,1319.62,1009.3,1319.62z M932.46,1372.31
				l-0.43,0.14c-4.72,1.57-7.86,4.2-10.13,8.47c-1.89,3.54-3.58,8.85-5.01,15.15l-0.15,0.66l-0.09,0.42
				c-0.7,3.18-1.31,6.58-1.63,8.7l-0.04,0.29l-0.08,0.59l0.33,0.05c5.64,0.87,22.28,2.18,32.76,2.33l0.49,0.01l1.34,0.01
				c10.25,0,28.6-1.43,34.59-2.35l0.26-0.04l0.07-0.01l-0.05-0.34c-0.26-1.79-0.8-4.91-1.45-8l-0.09-0.44l-0.18-0.84l-0.23-1.03
				c-1.44-6.3-3.13-11.61-5.02-15.15c-2.27-4.27-5.41-6.89-10.14-8.47l-0.42-0.14l-0.36,0.34c-4.41,4.11-10.03,6.53-16.03,6.76
				l-0.49,0.01l-0.46,0c-6.35,0-12.35-2.46-17-6.78l-0.34-0.32L932.46,1372.31z M991.52,1358.31l-0.45,0.14
				c-4.76,1.57-7.93,4.2-10.22,8.47c-1.08,2.02-2.12,4.64-3.08,7.74l-0.18,0.59l-0.05,0.16l0.05,0.06c1.03,1.19,1.94,2.53,2.75,4.05
				c1.83,3.43,3.43,8.23,4.82,13.89l0.13,0.52l0.67,0.06c7.11,0.59,14.28,1,20.15,1.11l0.79,0.01l1.41,0.01l0.68,0
				c10.03,0,27.77-1.34,34.32-2.26l0.3-0.04l0.6-0.09l-0.08-0.59c-0.26-1.73-0.75-4.5-1.33-7.3l-0.1-0.47l-0.27-1.26l-0.23-1.03
				c-1.45-6.3-3.16-11.61-5.06-15.15c-2.29-4.27-5.46-6.89-10.22-8.47l-0.42-0.14l-0.02-0.01l-0.36,0.34
				c-1.09,1.01-2.25,1.91-3.48,2.71c-3.76,2.68-8.36,4.26-13.33,4.26c-2.72,0-5.33-0.47-7.75-1.34c-3.57-1.12-6.86-3.04-9.67-5.64
				l-0.34-0.32L991.52,1358.31z M908.07,1358.31l-0.02,0.02l-0.34,0.32c-2.81,2.59-6.1,4.51-9.67,5.64
				c-2.42,0.87-5.03,1.34-7.75,1.34c-4.97,0-9.57-1.58-13.33-4.26c-1.22-0.8-2.39-1.7-3.48-2.71l0,0l-0.36-0.34l-0.02,0.01
				l-0.42,0.14c-4.76,1.58-7.93,4.2-10.22,8.47c-1.9,3.54-3.61,8.85-5.06,15.15l0,0l-0.23,1.03l-0.27,1.26l-0.1,0.47
				c-0.58,2.8-1.07,5.57-1.33,7.3l0,0l-0.08,0.59l0.6,0.09l0.3,0.04c6.55,0.92,24.28,2.26,34.32,2.26l0,0l0.68,0l1.41-0.01
				l0.79-0.01c5.87-0.11,13.03-0.52,20.15-1.11l0,0l0.67-0.06c1.41-5.89,3.06-10.88,4.94-14.41c0.82-1.54,1.75-2.91,2.8-4.11
				l-0.05-0.15l-0.18-0.59c-0.96-3.09-1.99-5.72-3.08-7.74c-2.29-4.28-5.46-6.9-10.22-8.47l0,0L908.07,1358.31z M950.63,1335.12
				h-1.66c-10.75,0-19.48,8.62-19.67,19.33l0,0.34v1.66c0,10.75,8.62,19.48,19.33,19.67l0.34,0h1.66c10.75,0,19.48-8.62,19.67-19.33
				l0-0.34v-1.66C970.3,1343.93,961.49,1335.12,950.63,1335.12z M1009.3,1322.62c-11.05,0-20,8.95-20,20
				c0,8.66,5.51,16.04,13.21,18.82c2.08,0.65,4.26,0.99,6.49,0.99c4.29,0,8.4-1.26,11.94-3.55c5.06-3.63,8.35-9.56,8.35-16.26
				C1029.3,1331.57,1020.34,1322.62,1009.3,1322.62z M890.3,1322.62c-11.05,0-20,8.95-20,20c0,6.7,3.29,12.63,8.35,16.26
				c3.54,2.29,7.65,3.55,11.94,3.55c2.23,0,4.41-0.34,6.49-0.99c7.71-2.78,13.21-10.16,13.21-18.82
				C910.3,1331.57,901.34,1322.62,890.3,1322.62z"/>
		</g>
	</g>
</g>
<g id="Layer_1">
	<path class="st11" d="M181.48,92.34l-0.05-0.35c0,0,0,0,0-0.01c-0.23-1.67-0.76-4.89-1.5-8.52l-0.52-2.46
		c-1.59-7.13-3.37-12.62-5.29-16.31c-2.1-4.05-5.72-7.09-10.75-9.1c1.71-3.05,2.7-6.56,2.7-10.3c0-11.65-9.44-21.13-21.05-21.13
		c-11.62,0-21.07,9.48-21.07,21.13c0,3.74,0.99,7.26,2.7,10.31c-5.01,2-8.63,5.04-10.74,9.1c-1.02,1.97-2.01,4.46-2.94,7.43
		c-1.18-0.72-2.46-1.37-3.87-1.93c1.71-3.05,2.7-6.56,2.7-10.3c0-11.65-9.44-21.13-21.05-21.13c-11.62,0-21.07,9.48-21.07,21.13
		c0,3.74,0.99,7.26,2.71,10.31c-1.4,0.56-2.68,1.21-3.86,1.93c-0.94-2.97-1.92-5.46-2.94-7.43c-2.1-4.05-5.72-7.09-10.75-9.1
		c1.71-3.05,2.7-6.56,2.7-10.3c0-11.65-9.44-21.13-21.05-21.13c-11.62,0-21.07,9.48-21.07,21.13c0,3.74,0.99,7.26,2.71,10.31
		c-5.01,2-8.63,5.04-10.74,9.1c-1.92,3.69-3.7,9.18-5.29,16.32l-0.25,1.14c-0.78,3.63-1.4,7.25-1.69,9.25l-0.13,0.94
		c-0.11,0.81,0.44,1.56,1.25,1.69l0.34,0.06c5.61,0.88,21.92,2.31,32.98,2.47l1.9,0.01c5.5,0,13.03-0.41,19.88-0.94l-0.24,1.12
		c-0.78,3.63-1.4,7.25-1.69,9.25l-0.13,0.94c-0.11,0.81,0.44,1.55,1.24,1.69l0.34,0.06c5.61,0.88,21.92,2.31,32.98,2.47l1.9,0.01
		c10.56,0,28.66-1.51,34.88-2.49l0.27-0.04c0.01,0,0.09-0.02,0.1-0.02c0.79-0.14,1.32-0.88,1.22-1.68l-0.05-0.35c0,0,0,0,0-0.01
		c-0.23-1.67-0.77-4.9-1.51-8.52l-0.52-2.44c6.01,0.47,12.61,0.84,17.97,0.92l1.9,0.01c10.56,0,28.66-1.51,34.88-2.49l0.27-0.04
		c0.01,0,0.09-0.02,0.11-0.02C181.05,93.87,181.58,93.14,181.48,92.34z M145.01,27.17c9.96,0,18.05,8.13,18.05,18.13
		c0,7.45-4.52,13.86-10.95,16.63c-0.06,0.03-0.13,0.05-0.19,0.08c-0.5,0.21-1.01,0.4-1.53,0.56c-0.02,0.01-0.05,0.01-0.07,0.02
		c-0.48,0.15-0.98,0.27-1.48,0.38c-0.11,0.02-0.21,0.05-0.32,0.07c-0.51,0.1-1.02,0.18-1.54,0.24c-0.11,0.01-0.21,0.02-0.32,0.03
		c-0.55,0.05-1.09,0.08-1.65,0.08c-0.56,0-1.11-0.03-1.66-0.08c-0.11-0.01-0.21-0.02-0.32-0.03c-0.52-0.06-1.04-0.14-1.54-0.24
		c-0.1-0.02-0.21-0.04-0.31-0.07c-0.51-0.11-1.01-0.24-1.51-0.39c-0.01,0-0.03-0.01-0.04-0.01c-0.53-0.17-1.05-0.36-1.56-0.57
		c-0.05-0.02-0.11-0.04-0.16-0.07c-6.45-2.77-10.98-9.18-10.98-16.64C126.94,35.3,135.04,27.17,145.01,27.17z M90.74,41.77
		c9.96,0,18.05,8.13,18.05,18.13c0,7.45-4.52,13.86-10.95,16.63c-0.06,0.03-0.13,0.05-0.19,0.08c-0.5,0.21-1.01,0.4-1.53,0.56
		c-0.02,0.01-0.05,0.01-0.07,0.02c-0.48,0.15-0.98,0.27-1.48,0.38c-0.11,0.02-0.21,0.05-0.32,0.07c-0.51,0.1-1.02,0.18-1.54,0.24
		c-0.11,0.01-0.21,0.02-0.32,0.03c-0.55,0.05-1.09,0.08-1.65,0.08c-0.56,0-1.11-0.03-1.66-0.08c-0.11-0.01-0.21-0.02-0.32-0.03
		c-0.52-0.06-1.04-0.14-1.54-0.24c-0.1-0.02-0.21-0.04-0.31-0.07c-0.51-0.11-1.01-0.24-1.51-0.39c-0.01,0-0.03-0.01-0.04-0.01
		c-0.53-0.17-1.05-0.36-1.56-0.57c-0.05-0.02-0.11-0.04-0.16-0.07c-6.45-2.77-10.98-9.18-10.98-16.64
		C72.66,49.9,80.77,41.77,90.74,41.77z M36.46,27.17c9.96,0,18.05,8.13,18.05,18.13c0,7.45-4.52,13.86-10.95,16.63
		c-0.06,0.03-0.13,0.05-0.19,0.08c-0.5,0.21-1.01,0.4-1.54,0.56c-0.02,0.01-0.05,0.01-0.07,0.02c-0.49,0.15-0.98,0.27-1.48,0.38
		c-0.1,0.02-0.21,0.05-0.31,0.07c-0.51,0.1-1.02,0.18-1.54,0.24c-0.11,0.01-0.21,0.02-0.32,0.03c-0.55,0.05-1.09,0.08-1.65,0.08
		c-0.56,0-1.11-0.03-1.66-0.08c-0.11-0.01-0.21-0.02-0.32-0.03c-0.52-0.06-1.04-0.14-1.54-0.24c-0.1-0.02-0.21-0.04-0.31-0.07
		c-0.51-0.11-1.01-0.24-1.51-0.39c-0.02,0-0.03-0.01-0.05-0.01c-0.53-0.17-1.05-0.36-1.55-0.57c-0.06-0.02-0.11-0.05-0.17-0.07
		c-6.45-2.77-10.97-9.18-10.97-16.64C18.39,35.3,26.5,27.17,36.46,27.17z M36.47,93.57l-1.87-0.01c-10.26-0.15-25.09-1.4-31.42-2.27
		c0.31-2.02,0.88-5.26,1.58-8.5L5,81.66c1.51-6.78,3.24-12.17,5.02-15.58c1.85-3.55,5.14-6.22,9.73-7.93
		c2.64,3.44,6.25,5.94,10.31,7.23c0.08,0.02,0.15,0.05,0.23,0.08c0.58,0.18,1.16,0.33,1.76,0.45c0.12,0.03,0.24,0.05,0.36,0.07
		c0.6,0.12,1.2,0.21,1.8,0.28c0.1,0.01,0.19,0.02,0.29,0.03c0.65,0.06,1.31,0.1,1.97,0.1c0.66,0,1.31-0.04,1.96-0.1
		c0.1-0.01,0.19-0.02,0.29-0.03c0.61-0.06,1.21-0.16,1.8-0.28c0.12-0.02,0.24-0.05,0.37-0.08c0.59-0.13,1.17-0.28,1.75-0.45
		c0.08-0.02,0.16-0.05,0.24-0.08c1.25-0.4,2.46-0.92,3.62-1.54c0,0,0,0,0,0c2.57-1.39,4.85-3.31,6.67-5.68
		c4.63,1.73,7.91,4.39,9.74,7.93c1.03,1.99,2.05,4.66,3.02,7.88c-1.8,1.52-3.24,3.3-4.3,5.34c-1.64,3.15-3.17,7.61-4.57,13.27
		C50.06,93.12,42.16,93.57,36.47,93.57z M90.74,108.17l-1.87-0.01c-10.26-0.15-25.09-1.4-31.42-2.27c0.31-2.02,0.88-5.26,1.58-8.5
		l0.24-1.12c0.07-0.3,0.14-0.59,0.21-0.89c0.24-1.06,0.49-2.09,0.75-3.07c1.27-4.92,2.65-8.9,4.06-11.62
		c0.66-1.28,1.52-2.44,2.55-3.48c0.75-0.76,1.6-1.47,2.54-2.1c1.36-0.91,2.9-1.7,4.64-2.34c2.64,3.44,6.26,5.94,10.31,7.23
		c0.07,0.02,0.15,0.05,0.22,0.07c0.58,0.18,1.17,0.33,1.76,0.45c0.12,0.03,0.24,0.05,0.36,0.07c0.6,0.12,1.2,0.21,1.81,0.28
		c0.1,0.01,0.19,0.02,0.29,0.02c0.65,0.06,1.31,0.1,1.97,0.1c0.66,0,1.31-0.04,1.96-0.1c0.1-0.01,0.19-0.01,0.29-0.03
		c0.61-0.07,1.21-0.16,1.8-0.28c0.12-0.02,0.25-0.05,0.37-0.08c0.59-0.13,1.17-0.27,1.75-0.45c0.08-0.03,0.16-0.05,0.24-0.08
		c1.25-0.4,2.46-0.92,3.61-1.54c0,0,0.01,0,0.01-0.01c2.57-1.39,4.85-3.31,6.67-5.68c1.74,0.65,3.29,1.44,4.65,2.35
		c0.94,0.64,1.79,1.34,2.54,2.1c1.03,1.05,1.89,2.2,2.55,3.48c1.41,2.71,2.8,6.7,4.07,11.62c0.25,0.99,0.5,2.01,0.75,3.07
		c0.07,0.3,0.14,0.58,0.21,0.88l0.51,2.41c0.55,2.71,1.02,5.37,1.31,7.21C117.06,106.84,100.58,108.16,90.74,108.17z M145.01,93.57
		l-1.87-0.01c-5.6-0.08-12.54-0.49-18.74-0.99c-1.4-5.66-2.93-10.12-4.57-13.27c-1.06-2.03-2.5-3.81-4.3-5.33
		c0.97-3.22,1.99-5.89,3.03-7.88c1.85-3.55,5.14-6.22,9.73-7.93c2.64,3.44,6.26,5.94,10.31,7.23c0.08,0.02,0.15,0.05,0.22,0.07
		c0.58,0.18,1.16,0.33,1.76,0.45c0.12,0.03,0.24,0.05,0.36,0.07c0.6,0.12,1.2,0.21,1.8,0.28c0.1,0.01,0.19,0.02,0.29,0.03
		c0.65,0.06,1.31,0.1,1.97,0.1c0.66,0,1.31-0.04,1.96-0.1c0.1-0.01,0.19-0.02,0.29-0.03c0.61-0.06,1.2-0.16,1.8-0.28
		c0.12-0.02,0.25-0.05,0.37-0.08c0.59-0.13,1.17-0.27,1.74-0.45c0.08-0.03,0.16-0.05,0.25-0.08c1.25-0.4,2.46-0.91,3.61-1.54
		c0,0,0.01,0,0.01-0.01c2.56-1.39,4.85-3.31,6.67-5.68c4.63,1.73,7.91,4.39,9.74,7.93c1.78,3.41,3.51,8.8,5.02,15.57l0.51,2.41
		c0.55,2.71,1.02,5.37,1.31,7.21C171.33,92.24,154.85,93.56,145.01,93.57z"/>
</g>
</svg>
