<?xml version="1.0" encoding="UTF-8"?>
<svg width="21px" height="20px" viewBox="0 0 21 20" version="1.1" xmlns="http://www.w3.org/2000/svg" xmlns:xlink="http://www.w3.org/1999/xlink">
    <!-- Generator: Sketch 60.1 (88133) - https://sketch.com -->
    <title>Combined Shape</title>
    <desc>Created with Sketch.</desc>
    <g id="Assets" stroke="none" stroke-width="1" fill="none" fill-rule="evenodd">
        <g id="Icons" transform="translate(-486.000000, -1549.000000)" fill="#221F1F" fill-rule="nonzero">
            <g id="Group-14" transform="translate(496.292893, 1559.000000) rotate(45.000000) translate(-496.292893, -1559.000000) translate(482.792893, 1545.500000)">
                <path d="M13.6984848,0.378679656 C14.4781809,0.378679656 15.1189335,0.97356774 15.1916182,1.73421965 L15.1984848,1.87867966 L15.1974848,11.8786797 L25.1984848,11.8786797 C26.0269119,11.8786797 26.6984848,12.5502525 26.6984848,13.3786797 C26.6984848,14.1583758 26.1035967,14.7991283 25.3429448,14.8718131 L25.1984848,14.8786797 L15.1974848,14.8786797 L15.1984848,24.8786797 C15.1984848,25.7071068 14.5269119,26.3786797 13.6984848,26.3786797 C12.9187887,26.3786797 12.2780361,25.7837916 12.2053514,25.0231397 L12.1984848,24.8786797 L12.1974848,14.8786797 L2.19848481,14.8786797 C1.37005769,14.8786797 0.69848481,14.2071068 0.69848481,13.3786797 C0.69848481,12.5989835 1.29337289,11.958231 2.0540248,11.8855462 L2.19848481,11.8786797 L12.1974848,11.8786797 L12.1984848,1.87867966 C12.1984848,1.05025253 12.8700577,0.378679656 13.6984848,0.378679656 Z" id="Combined-Shape"></path>
            </g>
        </g>
    </g>
</svg>