<?xml version="1.0" encoding="UTF-8"?>
<svg width="20px" height="120px" viewBox="0 0 20 120" version="1.1" xmlns="http://www.w3.org/2000/svg" xmlns:xlink="http://www.w3.org/1999/xlink">
    <!-- Generator: Sketch 60.1 (88133) - https://sketch.com -->
    <title>ChurchLogo_White</title>
    <desc>Created with Sketch.</desc>
    <defs>
        <polygon id="path-1" points="0 19.33526 119.711789 19.33526 119.711789 6e-05 0 6e-05"></polygon>
    </defs>
    <g id="Assets" stroke="none" stroke-width="1" fill="none" fill-rule="evenodd">
        <g id="Icons" transform="translate(-100.000000, -720.000000)">
            <g id="ChurchLogo_Black" transform="translate(110.000000, 780.000000) rotate(90.000000) translate(-110.000000, -780.000000) translate(50.000000, 770.000000)">
                <g id="Group-26" transform="translate(0.175953, 0.400000)">
                    <path d="M24.4707977,6.14742 C23.576956,6.14742 22.8326745,6.58742 22.2548446,7.45862 L22.2548446,6.30182 L21.2937889,6.30182 L21.2937889,14.47122 L22.2548446,14.47122 L22.2548446,8.82822 C22.8245806,7.76242 23.554434,7.22202 24.4255777,7.22202 C25.6255777,7.22202 26.20939,8.07742 26.20939,9.83502 L26.20939,14.47122 L27.1700938,14.47122 L27.1700938,9.51702 C27.1700938,8.47402 26.9232317,7.64322 26.4365455,7.04782 C25.9473959,6.45082 25.2859883,6.14742 24.4707977,6.14742" id="Fill-1" fill="#211E1E"></path>
                    <path d="M31.7100528,13.55102 C30.9575015,13.55102 30.318088,13.25122 29.8129267,12.65982 C29.3097009,12.06102 29.0554487,11.29862 29.0554487,10.39522 C29.0554487,9.48562 29.3097009,8.72062 29.8123988,8.12302 C30.3184399,7.52562 30.9575015,7.22202 31.7100528,7.22202 C32.4529267,7.22202 33.0833666,7.52882 33.5851848,8.13122 C34.0935132,8.73542 34.3509326,9.49722 34.3509326,10.39522 C34.3502287,11.29862 34.0958006,12.06102 33.5934545,12.65982 C33.0925161,13.25122 32.4589091,13.55102 31.7100528,13.55102 M31.7100528,6.14742 C30.6747449,6.14742 29.7948035,6.55662 29.0948622,7.36402 C28.4007273,8.17082 28.049349,9.19022 28.049349,10.39522 C28.049349,11.59442 28.4007273,12.61162 29.0957419,13.41882 C29.7948035,14.22002 30.6747449,14.62562 31.7100528,14.62562 C32.7467683,14.62562 33.6210792,14.22002 34.3111672,13.41822 C35.0047742,12.61162 35.3573842,11.59442 35.3573842,10.39522 C35.3570323,9.19022 35.0047742,8.17082 34.3111672,7.36402 C33.6210792,6.55662 32.7464164,6.14742 31.7100528,6.14742" id="Fill-3" fill="#211E1E"></path>
                    <path d="M39.5639296,6.14742 C38.7904399,6.14742 37.9975953,6.81982 37.2040469,8.14622 L37.2040469,6.30182 L36.2431672,6.30182 L36.2431672,14.47122 L37.2040469,14.47122 L37.2040469,9.40522 C37.9664516,7.95682 38.6808211,7.22202 39.3292082,7.22202 C39.6527859,7.22202 40.0993548,7.51522 40.6567742,8.09322 L40.7535484,8.19462 L41.3026979,7.18662 L41.2347801,7.11722 C40.597478,6.46462 40.049912,6.14742 39.5639296,6.14742" id="Fill-5" fill="#211E1E"></path>
                    <path d="M45.4471848,13.55102 C45.0245455,13.55102 44.7535777,13.45142 44.6659531,13.26642 C44.568827,13.04422 44.5193842,12.55882 44.5193842,11.82462 L44.5193842,7.23942 L46.4733431,7.23942 L46.4733431,6.30182 L44.5193842,6.30182 L44.5193842,3.67642 L44.1213783,3.67642 L43.5579765,4.49782 L43.5579765,6.30182 L41.6798534,6.30182 L41.6798534,7.23942 L43.5579765,7.23942 L43.5579765,12.81362 C43.5579765,13.37862 43.7263636,13.82622 44.058915,14.14862 C44.3853079,14.46482 44.7965103,14.62562 45.2809091,14.62562 C45.764956,14.62562 46.2646628,14.48582 46.7673607,14.20942 L46.8291202,14.17482 L46.8291202,13.09282 L46.6734018,13.17562 C46.2060704,13.42502 45.7929326,13.55102 45.4471848,13.55102" id="Fill-7" fill="#211E1E"></path>
                    <path d="M50.6936481,6.14742 C49.7999824,6.14742 49.055349,6.58742 48.477695,7.45862 L48.477695,2.19522 L47.5164633,2.19522 L47.5164633,14.47122 L48.477695,14.47122 L48.477695,8.82962 C49.0662581,7.76282 49.7968152,7.22202 50.6479003,7.22202 C51.8486041,7.22202 52.4320645,8.07742 52.4320645,9.83502 L52.4320645,14.47122 L53.3931202,14.47122 L53.3931202,9.50082 C53.3931202,8.46782 53.1457302,7.64322 52.6593959,7.04782 C52.1698944,6.45082 51.5090147,6.14742 50.6936481,6.14742" id="Fill-9" fill="#211E1E"></path>
                    <polygon id="Fill-11" fill="#211E1E" points="57.1053783 12.78736 54.5579296 6.30196 53.5613314 6.30196 56.8247331 14.62556 57.4305396 14.62556 60.5142933 6.30196 59.5497185 6.30196"></polygon>
                    <mask id="mask-2" fill="white">
                        <use xlink:href="#path-1"></use>
                    </mask>
                    <g id="Clip-14"></g>
                    <polygon id="Fill-13" fill="#211E1E" mask="url(#mask-2)" points="61.439824 14.47106 62.4087977 14.47106 62.4087977 6.30186 61.439824 6.30186"></polygon>
                    <polygon id="Fill-15" fill="#211E1E" mask="url(#mask-2)" points="61.439824 3.89026 62.4087977 3.89026 62.4087977 2.19526 61.439824 2.19526"></polygon>
                    <path d="M66.6618299,7.22202 C67.7793079,7.22202 68.4579589,7.89882 68.731566,9.29002 L64.4884575,9.29002 C64.6276364,8.65702 64.8824164,8.15742 65.2480469,7.80302 C65.6444692,7.41862 66.1200704,7.22202 66.6618299,7.22202 M66.6618299,6.14742 C65.7143226,6.14742 64.9170792,6.54642 64.2935015,7.33242 C63.6706276,8.11082 63.3553196,9.10622 63.3553196,10.29182 C63.3553196,11.54122 63.6973724,12.58842 64.3698651,13.39862 C65.0444692,14.21302 65.9101584,14.62562 66.9410674,14.62562 C67.9522698,14.62562 68.8761994,14.26342 69.6901584,13.54962 L69.732563,13.51222 L69.732563,12.23362 L69.5539707,12.40022 C68.7338534,13.16402 67.8861114,13.55102 67.0315073,13.55102 C66.3079883,13.55102 65.6710381,13.25262 65.1387801,12.66602 C64.6079296,12.07802 64.3390733,11.35182 64.3390733,10.50722 C64.3390733,10.41202 64.3436481,10.31502 64.3506862,10.21802 L69.8536188,10.21802 L69.8536188,10.09382 C69.852739,8.88902 69.5413021,7.92062 68.9281056,7.21722 C68.3140293,6.50742 67.5512727,6.14742 66.6618299,6.14742" id="Fill-16" fill="#211E1E" mask="url(#mask-2)"></path>
                    <polygon id="Fill-17" fill="#211E1E" mask="url(#mask-2)" points="80.1215543 6.3019 77.7775073 12.5477 75.7258944 6.3019 75.1660117 6.3019 73.0547507 12.5495 70.754868 6.3019 69.7899413 6.3019 72.8298827 14.5499 72.8575073 14.6257 73.3471848 14.6257 75.4302933 8.4207 77.497566 14.6257 78.0023754 14.6257 81.101261 6.3019"></polygon>
                    <path d="M86.0560117,13.55102 C85.2735484,13.55102 84.6395894,13.26902 84.1743695,12.71262 C83.7119648,12.14822 83.4768915,11.37322 83.4768915,10.41202 C83.4768915,9.46782 83.7119648,8.69062 84.1750733,8.10242 C84.9698534,7.10782 86.1904399,6.92622 87.7615249,7.71102 L87.9147801,7.78702 L87.9147801,6.56822 L87.840176,6.54082 C87.1409384,6.28002 86.5073314,6.14742 85.957654,6.14742 C84.9464516,6.14742 84.1004692,6.56082 83.4452199,7.37582 C82.7989443,8.18222 82.4711437,9.23582 82.4711437,10.50722 C82.4711437,11.72902 82.7966569,12.73142 83.441349,13.48762 C84.0892082,14.24242 84.9503226,14.62562 85.9960117,14.62562 C86.6009384,14.62562 87.266217,14.48782 87.9689736,14.21462 L88.0446334,14.18582 L88.0446334,13.03482 L87.8943695,13.10422 C87.2535484,13.40042 86.6354252,13.55102 86.0560117,13.55102" id="Fill-18" fill="#211E1E" mask="url(#mask-2)"></path>
                    <path d="M92.1059472,6.14742 C91.2110499,6.14742 90.468176,6.58742 89.8892903,7.45862 L89.8892903,2.19522 L88.9282346,2.19522 L88.9282346,14.47122 L89.8892903,14.47122 L89.8892903,8.82962 C90.479085,7.76282 91.2087625,7.22202 92.0594956,7.22202 C93.2603754,7.22202 93.8445396,8.07742 93.8445396,9.83502 L93.8445396,14.47122 L94.8048915,14.47122 L94.8048915,9.50082 C94.8048915,8.46782 94.5583812,7.64322 94.071871,7.04782 C93.5827214,6.45082 92.92061,6.14742 92.1059472,6.14742" id="Fill-19" fill="#211E1E" mask="url(#mask-2)"></path>
                    <path d="M100.69105,11.952 C100.364129,12.537 100.034745,12.9544 99.7108152,13.1934 C99.392868,13.4308 98.9964457,13.551 98.5358006,13.551 C97.9966804,13.551 97.5717537,13.3584 97.236739,12.9616 C96.9057713,12.5678 96.7366804,12.015 96.7366804,11.3166 L96.7366804,6.302 L95.7765044,6.302 L95.7765044,11.333 C95.7765044,12.3734 96.0337478,13.1902 96.5433079,13.7634 C97.0519883,14.3354 97.7023109,14.6256 98.4768563,14.6256 C99.0186158,14.6256 99.4722229,14.5068 99.8253607,14.2736 C100.121842,14.0814 100.411109,13.778 100.69105,13.3692 L100.69105,14.4712 L101.652985,14.4712 L101.652985,6.302 L100.69105,6.302 L100.69105,11.952 Z" id="Fill-20" fill="#211E1E" mask="url(#mask-2)"></path>
                    <path d="M107.629689,7.11714 C106.992035,6.46474 106.445525,6.14734 105.958839,6.14734 C105.184997,6.14734 104.392504,6.81994 103.599132,8.14754 L103.599132,6.30194 L102.638252,6.30194 L102.638252,14.47114 L103.599132,14.47114 L103.599132,9.40514 C104.361713,7.95694 105.07661,7.22194 105.724645,7.22194 C106.048575,7.22194 106.49444,7.51534 107.051683,8.09314 L107.149337,8.19454 L107.698311,7.18674 L107.629689,7.11714 Z" id="Fill-21" fill="#211E1E" mask="url(#mask-2)"></path>
                    <path d="M111.181566,13.55102 C110.398399,13.55102 109.765496,13.26902 109.299396,12.71262 C108.835935,12.14822 108.601742,11.37322 108.601742,10.41202 C108.601742,9.46782 108.837695,8.69062 109.3001,8.10242 C110.09488,7.10782 111.314411,6.92622 112.886375,7.71102 L113.039806,7.78702 L113.039806,6.56822 L112.965202,6.54082 C112.265261,6.28002 111.632886,6.14742 111.083208,6.14742 C110.071126,6.14742 109.226199,6.56082 108.57095,7.37582 C107.923795,8.18222 107.595114,9.23582 107.595114,10.50722 C107.595114,11.72902 107.921507,12.73142 108.565496,13.48762 C109.215114,14.24242 110.075349,14.62562 111.120158,14.62562 C111.726493,14.62562 112.390188,14.48782 113.09488,14.21462 L113.169484,14.18582 L113.169484,13.03482 L113.017636,13.10422 C112.377519,13.40042 111.760452,13.55102 111.181566,13.55102" id="Fill-22" fill="#211E1E" mask="url(#mask-2)"></path>
                    <path d="M118.978997,7.0479 C118.488968,6.4507 117.827912,6.1475 117.012194,6.1475 C116.11888,6.1475 115.374422,6.5875 114.796416,7.4585 L114.796416,2.1953 L113.835537,2.1953 L113.835537,14.4711 L114.796416,14.4711 L114.796416,8.8297 C115.385331,7.7629 116.115185,7.2221 116.966622,7.2221 C118.167501,7.2221 118.751666,8.0775 118.751666,9.8351 L118.751666,14.4711 L119.711842,14.4711 L119.711842,9.5009 C119.711842,8.4689 119.464804,7.6431 118.978997,7.0479" id="Fill-23" fill="#211E1E" mask="url(#mask-2)"></path>
                    <path d="M18.8442581,17.96744 C18.8442581,18.72244 18.3053138,19.33524 17.6403871,19.33524 L8.33070968,19.33524 C7.6664868,19.33524 7.12719062,18.72244 7.12719062,17.96744 L7.12719062,7.38584 C7.12719062,6.62984 7.6664868,6.01744 8.33070968,6.01744 L17.6403871,6.01744 C18.3053138,6.01744 18.8442581,6.62984 18.8442581,7.38584 L18.8442581,17.96744 Z M16.2507097,15.75204 L16.2507097,8.90884 C16.2507097,8.15304 15.7122933,7.53984 15.0473666,7.53984 L9.35141349,7.53984 C8.6864868,7.53984 8.14719062,8.15304 8.14719062,8.90884 L8.14719062,15.75204 C8.14719062,16.50724 8.6864868,17.12104 9.35141349,17.12104 L15.0473666,17.12104 C15.7122933,17.12104 16.2507097,16.50724 16.2507097,15.75204 L16.2507097,15.75204 Z" id="Fill-24" fill="#211E1E" mask="url(#mask-2)"></path>
                    <path d="M12.2540059,-4e-05 L1.40368328,-4e-05 C0.628082111,-4e-05 -7.03812317e-05,0.71436 -7.03812317e-05,1.59496 L-7.03812317e-05,13.92816 C-7.03812317e-05,14.80936 0.628082111,15.52416 1.40368328,15.52416 L7.12708504,15.52416 L7.12708504,13.74856 L4.42602933,13.74856 C3.65042815,13.74856 3.02209971,13.03476 3.02209971,12.15356 L3.02209971,4.17656 C3.02209971,3.29496 3.65042815,2.58136 4.42602933,2.58136 L11.064915,2.58136 C11.8403402,2.58136 12.4683167,3.29496 12.4683167,4.17656 L12.4683167,12.15356 C12.4683167,13.03476 11.8403402,13.74856 11.064915,13.74856 L8.14708504,13.74856 L8.14708504,15.52416 L12.2540059,15.52416 C13.0292551,15.52416 13.6577595,14.80936 13.6577595,13.92816 L13.6577595,1.59496 C13.6577595,0.71436 13.0292551,-4e-05 12.2540059,-4e-05" id="Fill-25" fill="#211E1E" mask="url(#mask-2)"></path>
                </g>
            </g>
        </g>
    </g>
</svg>