<?xml version="1.0" encoding="UTF-8"?>
<svg width="193px" height="93px" viewBox="0 0 193 93" version="1.1" xmlns="http://www.w3.org/2000/svg" xmlns:xlink="http://www.w3.org/1999/xlink">
    <!-- Generator: Sketch 60.1 (88133) - https://sketch.com -->
    <title>Group 19</title>
    <desc>Created with Sketch.</desc>
    <g id="Assets" stroke="none" stroke-width="1" fill="none" fill-rule="evenodd" stroke-linejoin="round">
        <g id="Text-Styles" transform="translate(-861.000000, -1496.000000)" stroke="#FFFFFF" stroke-width="3">
            <g id="Group-19" transform="translate(863.000000, 1498.000000)">
                <path d="M53.5275275,35 C59.2799921,36.6068168 63.1590995,39.521346 65.866531,44.5956873 C67.0497626,46.8117268 68.0959008,49.5714237 68.9998999,52.4765334 C66.7851715,54.0820808 65.0093267,56.1742265 63.5651184,58.8814016 C61.4165659,62.905362 59.7207649,68.7218995 58.5072544,73.9466161 C51.4976792,74.512797 43.2058066,74.9982558 36.5779467,75 L36.1492515,74.9992247 C22.934104,74.9552329 3.49940667,73.0627024 0.434728233,72.4158769 C0.12360529,72.3497957 -0.0286463632,72.0506912 0.00445182223,71.6994174 C0.156703475,70.0960786 2.68209502,53.2245022 7.28936244,44.5956873 C10.0001038,39.5143901 13.8792112,36.5998609 19.6349856,35 C24.0039461,39.5109121 29.9914078,42.3071907 36.5878762,42.3071907 C43.1777249,42.3071907 49.1618768,39.5143901 53.5275275,35 Z" id="Combined-Shape"></path>
                <path d="M169.250358,35 C175.037601,36.6068168 178.940161,39.521346 181.663962,44.5956873 C186.299084,53.2245022 188.843074,70.0960786 188.996246,71.6994174 C189.026215,72.0506912 188.876372,72.3497957 188.560039,72.4158769 C185.446648,73.0697331 165.49431,74.996522 152.198302,75 C144.592527,74.998011 134.813003,74.3669847 127.250609,73.7047546 C126.032754,68.5429789 124.345386,62.8433248 122.217168,58.8814016 C121.290686,57.1553981 120.227824,55.6792794 119.000801,54.4195123 C120.031398,50.8185226 121.279024,47.3017639 122.732641,44.5956873 C125.459772,39.5143901 129.362332,36.5998609 135.152905,35 C139.54828,39.5109121 145.571941,42.3071907 152.208291,42.3071907 C158.837981,42.3071907 164.858313,39.5143901 169.250358,35 Z" id="Combined-Shape"></path>
                <rect id="Rectangle" x="132" y="0" width="42" height="42" rx="21"></rect>
                <rect id="Rectangle" x="16" y="0" width="42" height="42" rx="21"></rect>
                <rect id="Rectangle" x="72" y="14" width="42" height="42" rx="21"></rect>
                <path d="M110.411571,49 C106.055378,53.5143901 100.084189,56.3071907 93.5086161,56.3071907 C86.9264377,56.3071907 80.9519465,53.5109121 76.5924505,49 C70.8491447,50.5998609 66.9784407,53.5143901 64.2735715,58.5956873 C59.6762848,67.2245022 57.156364,84.0960786 57.0044422,85.6994174 C56.9714157,86.0506912 57.1233375,86.3497957 57.4337865,86.4158769 C60.5250655,87.0697331 80.30793,88.996522 93.4987082,89 C106.686184,88.996522 126.475654,87.0697331 129.56363,86.4158769 C129.877381,86.3497957 130.026001,86.0506912 129.996277,85.6994174 C129.844355,84.0960786 127.321132,67.2245022 122.723845,58.5956873 C120.022278,53.521346 116.151574,50.6068168 110.411571,49 Z" id="Stroke-1"></path>
            </g>
        </g>
    </g>
</svg>