<?xml version="1.0" encoding="UTF-8"?>
<svg width="27px" height="27px" viewBox="0 0 27 27" version="1.1" xmlns="http://www.w3.org/2000/svg" xmlns:xlink="http://www.w3.org/1999/xlink">
    <!-- Generator: Sketch 60.1 (88133) - https://sketch.com -->
    <title>Ornament_PlusSigns</title>
    <desc>Created with Sketch.</desc>
    <g id="Assets" stroke="none" stroke-width="1" fill="none" fill-rule="evenodd">
        <g id="Icons" transform="translate(-165.000000, -1222.000000)" fill="#221F1F">
            <g id="Ornament_PlusSigns" transform="translate(166.000000, 1223.000000)">
                <g id="Group-8" transform="translate(-1.000000, -1.000000)">
                    <g id="Group-7" fill-rule="nonzero">
                        <path d="M13.25,0 C13.8972087,0 14.4295339,0.491874664 14.4935464,1.12219476 L14.5,1.25 L14.5,12 L25.25,12 C25.9403559,12 26.5,12.5596441 26.5,13.25 C26.5,13.8972087 26.0081253,14.4295339 25.3778052,14.4935464 L25.25,14.5 L14.5,14.5 L14.5,25.25 C14.5,25.9403559 13.9403559,26.5 13.25,26.5 C12.6027913,26.5 12.0704661,26.0081253 12.0064536,25.3778052 L12,25.25 L12,14.5 L1.25,14.5 C0.559644063,14.5 3.42683155e-17,13.9403559 7.65404249e-17,13.25 C1.16170528e-16,12.6027913 0.491874664,12.0704661 1.12219476,12.0064536 L1.25,12 L12,12 L12,1.25 C12,0.559644063 12.5596441,0 13.25,0 Z" id="Combined-Shape"></path>
                    </g>
                </g>
            </g>
        </g>
    </g>
</svg>