<svg width="159" height="159" xmlns="http://www.w3.org/2000/svg" xmlns:xlink="http://www.w3.org/1999/xlink"><defs><path id="a" d="M.749.836h8.413V14.91H.749z"/><path id="c" d="M.417.87h5.571v2.762H.417z"/><path id="e" d="M.581.286H9.87V14.27H.581z"/></defs><g fill="none" fill-rule="evenodd"><path fill="#221F1F" d="M1.852 63.938l9.02 2.87-.004.033-9.502.261-.427 2.78 8.966 2.987-.006.033-9.446.143L0 76l13.555-.852.492-3.2-7.664-2.671.006-.036 8.121-.318.49-3.198L2.3 61zM7.346 47.162l4.728 2.3 1.068-2.28-4.728-2.303L9.759 42 22 47.961l-1.346 2.879-4.998-2.434-1.065 2.283 4.995 2.432L18.241 56 6 50.041zM20.581 27l2.122 1.749-2.606 3.122 1.98 1.632 1.905-2.281 1.851 1.526-1.904 2.281 2.29 1.89 2.7-3.23L31 35.403 26.325 41 16 32.486zM35.558 21.691l.84-.621c.688-.514.568-1.046-.125-1.984-.792-1.07-1.214-1.15-1.89-.648l-.793.589 1.968 2.664zm2.025 1.446l-.617.458 3.047 4.122-2.484 1.843-7.975-10.786 3.38-2.51c2.307-1.711 4.178-1.185 5.65.808 1.012 1.368 1.295 2.703.714 3.826l5.346 3.382-2.616 1.94-4.445-3.083zM52.75 5.498l1.064 2.544-3.762 1.583.993 2.373 2.75-1.158.929 2.218-2.75 1.158 1.15 2.748 3.897-1.641 1.042 2.493-6.747 2.842-5.178-12.376zM71.526 14.73l-3.238.492-5.585-12.735 3.327-.505 3.274 9.057.037-.004.432-9.622 3.33-.505z"/><g transform="translate(81.813)"><mask id="b" fill="#fff"><use xlink:href="#a"/></mask><path fill="#221F1F" mask="url(#b)" d="M9.162 1.528l-.264 2.748-4.057-.395-.245 2.564 2.965.287L7.33 9.13l-2.964-.288-.284 2.968 4.2.41-.26 2.69-7.273-.705L2.032.835z"/></g><path d="M102.958 10.526l.985.344c.81.283 1.182-.118 1.564-1.22.439-1.26.264-1.654-.53-1.931l-.933-.327-1.086 3.134zm-.051 2.493l-.727-.253-1.682 4.85-2.917-1.018 4.404-12.691 3.97 1.386c2.71.944 3.33 2.788 2.515 5.135-.558 1.61-1.5 2.597-2.754 2.748l.221 6.335-3.073-1.07.043-5.422zM127.514 29.486l-2.586 2.852-2.275-2.075 2.588-2.852 3.817-9.475 2.504 2.288-2.884 5.689.026.024 5.349-3.44 2.502 2.285zM142.419 39.639c1.26-.844 1.434-1.447.908-2.24-.528-.793-1.162-.877-2.405-.045l-3.746 2.51c-1.292.863-1.513 1.497-.975 2.305.528.795 1.198.831 2.486-.03l3.732-2.5zm1.716 2.579l-3.731 2.499c-2.38 1.594-4.717 1.284-6.322-1.128-1.612-2.425-1.003-4.71 1.378-6.305l3.731-2.499c2.379-1.594 4.717-1.282 6.331 1.144 1.603 2.41.992 4.694-1.387 6.289zM155.757 58.252l-8.472 2.958c-2.738.956-4.87-.008-5.795-2.676-.93-2.685.069-4.764 2.736-5.694l8.612-3.007 1.022 2.946-8.63 3.01c-1.081.38-1.356 1-1.073 1.813.288.832.881 1.13 1.962.752l8.629-3.01 1.01 2.908z" fill="#221F1F"/><g transform="translate(152.906 68.27)"><mask id="d" fill="#fff"><use xlink:href="#c"/></mask><path d="M5.69.87l.299 2.46-2.052.253c-1.263.155-2.37-.06-3.52-.66l.242-1.064c.715.226 1.379.328 2.149.234l.024-.872L5.69.87z" fill="#221F1F" mask="url(#d)"/></g><path d="M152.54 85.447l-.09 1.042c-.078.86.4 1.123 1.557 1.225 1.325.116 1.662-.149 1.737-.989l.085-.989-3.288-.289zm-2.419.56l.067-.768-5.092-.448.272-3.09 13.325 1.176-.37 4.203c-.251 2.872-1.882 3.926-4.346 3.71-1.69-.149-2.872-.826-3.323-2.008l-6.066 1.77.289-3.256 5.244-1.288zM153.237 109.059l-2.605-.885 1.307-3.88-2.43-.827-.954 2.836-2.271-.773.954-2.836-2.813-.956-1.355 4.018-2.55-.868 2.343-6.955 12.669 4.307zM133.893 133.432l.912-2.246c1.046.434 1.66.267 2.143-.284.784-.895.662-1.71-.533-2.762l-3.162-2.793c-1.083-.954-1.926-.89-2.627-.093-.361.413-.475.825-.357 1.392l1.373 1.213.76-.869 1.554 1.372-2.521 2.877-5.273-4.652 1.64-1.871.5.44.025-.027c-.018-.823.278-1.61.881-2.297 1.498-1.708 3.655-1.95 6.041.153l3.22 2.84c2.192 1.936 2.669 4.309.63 6.635-1.422 1.624-3.362 2.012-5.206.972M120.52 142.513c.852 1.255 1.455 1.426 2.241.888.786-.536.864-1.172.023-2.413l-2.537-3.737c-.874-1.286-1.508-1.502-2.308-.956-.786.538-.816 1.209.057 2.495l2.525 3.723zm-2.554 1.746l-2.525-3.722c-1.611-2.373-1.325-4.72 1.062-6.356 2.403-1.643 4.686-1.052 6.297 1.323l2.527 3.723c1.61 2.372 1.324 4.72-1.079 6.364-2.389 1.634-4.67 1.043-6.282-1.332zM107.597 154.084l-4.974-12.467 2.868-1.156 4.972 12.47zM94.354 157.835l-4.641-6.01-.037.007 1.067 6.586-2.673.432-2.147-13.264 2.076-.336 4.858 6.313.037-.006-1.121-6.915 2.673-.432 2.149 13.264z" fill="#221F1F"/><g transform="translate(67.594 144.73)"><mask id="f" fill="#fff"><use xlink:href="#e"/></mask><path d="M.581 10.57l2.35-.572c.26 1.104.754 1.506 1.481 1.577 1.182.115 1.771-.46 1.926-2.044l.41-4.206c.14-1.437-.402-2.083-1.456-2.187-.545-.053-.947.094-1.337.522l-.179 1.824 1.148.113-.203 2.063-3.8-.37.684-7.004 2.474.24-.065.663.037.005C4.705.698 5.515.48 6.425.57c2.255.218 3.713 1.828 3.402 5L9.41 9.847c-.284 2.913-1.928 4.688-5.001 4.39-2.145-.21-3.593-1.56-3.827-3.667" fill="#221F1F" mask="url(#f)"/></g></g></svg>