<?xml version="1.0" encoding="UTF-8"?>
<svg width="16px" height="16px" viewBox="0 0 16 16" version="1.1" xmlns="http://www.w3.org/2000/svg" xmlns:xlink="http://www.w3.org/1999/xlink">
    <!-- Generator: Sketch 63.1 (92452) - https://sketch.com -->
    <title>Group 28</title>
    <desc>Created with Sketch.</desc>
    <g id="Assets" stroke="none" stroke-width="1" fill="none" fill-rule="evenodd">
        <g id="Icons" transform="translate(-682.000000, -3243.000000)" fill="#221F1F" fill-rule="nonzero">
            <g id="Group-28" transform="translate(682.000000, 3243.000000)">
                <g id="Group-29">
                    <path d="M7.538273,5.20588235 L4.87160633,10.2058824 C4.64957089,10.6221988 4.95125161,11.125 5.42307692,11.125 L10.7564103,11.125 C11.2282356,11.125 11.5299163,10.6221988 11.3078808,10.2058824 L8.64121418,5.20588235 C8.40592006,4.76470588 7.77356712,4.76470588 7.538273,5.20588235 Z M8.089,6.828 L9.714,9.875 L6.464,9.875 L8.089,6.828 Z" id="Stroke-1" transform="translate(8.089744, 8.000000) rotate(90.000000) translate(-8.089744, -8.000000) "></path>
                    <path d="M14,0 C15.1045695,0 16,0.8954305 16,2 L16,14 C16,15.1045695 15.1045695,16 14,16 L2,16 C0.8954305,16 0,15.1045695 0,14 L0,2 C0,0.8954305 0.8954305,0 2,0 L14,0 Z M14,1.25 L2,1.25 C1.62030423,1.25 1.30650904,1.53215388 1.25684662,1.89822944 L1.25,2 L1.25,14 C1.25,14.3796958 1.53215388,14.693491 1.89822944,14.7431534 L2,14.75 L14,14.75 C14.3796958,14.75 14.693491,14.4678461 14.7431534,14.1017706 L14.75,14 L14.75,2 C14.75,1.62030423 14.4678461,1.30650904 14.1017706,1.25684662 L14,1.25 Z" id="Rectangle"></path>
                </g>
            </g>
        </g>
    </g>
</svg>