<?xml version="1.0" encoding="UTF-8"?>
<svg width="22px" height="22px" viewBox="0 0 22 22" version="1.1" xmlns="http://www.w3.org/2000/svg" xmlns:xlink="http://www.w3.org/1999/xlink">
    <!-- Generator: Sketch 60.1 (88133) - https://sketch.com -->
    <title>Audio_Icon</title>
    <desc>Created with Sketch.</desc>
    <defs>
        <polygon id="path-1" points="0 8.8e-05 21.999824 8.8e-05 21.999824 22 0 22"></polygon>
    </defs>
    <g id="Assets" stroke="none" stroke-width="1" fill="none" fill-rule="evenodd">
        <g id="Icons" transform="translate(-24.000000, -1102.000000)">
            <g id="Audio_Icon" transform="translate(24.000000, 1102.000000)">
                <g id="Group-3" transform="translate(0.000000, -0.000000)">
                    <mask id="mask-2" fill="white">
                        <use xlink:href="#path-1"></use>
                    </mask>
                    <g id="Clip-2"></g>
                    <path d="M10.999824,8.8e-05 C17.075344,8.8e-05 21.999824,4.925448 21.999824,11.000088 C21.999824,17.074728 17.075344,22.000088 10.999824,22.000088 C4.925184,22.000088 -0.000176,17.074728 -0.000176,11.000088 C-0.000176,4.925448 4.925184,8.8e-05 10.999824,8.8e-05 Z M11.02448,4.706064 C9.43696,4.706064 8.05272,5.256944 6.90872,6.342864 C5.7656,7.429664 5.14608,8.799824 5.06952,10.413744 C5.03696,10.809744 5.022,11.084304 5.022,11.276144 L5.02288,11.378224 C5.00616,11.506704 5,11.573584 5,11.635184 L5,14.776784 C5,15.097984 5.11968,15.378704 5.35288,15.611904 C5.58432,15.839824 5.88,15.960384 6.20912,15.960384 L7.17624,15.960384 C7.4904,15.960384 7.77816,15.838944 8.0096,15.610144 C8.24016,15.380464 8.3616,15.092704 8.3616,14.776784 L8.3616,11.657184 C8.3616,11.327184 8.24104,11.031504 8.01136,10.804464 C7.77816,10.570384 7.49656,10.450704 7.17624,10.450704 L6.23992,10.450704 L6.27512,10.144464 C6.408,8.985504 6.88584,8.028064 7.73592,7.219344 C8.66608,6.334944 9.74232,5.904624 11.02448,5.904624 C12.2644,5.904624 13.30456,6.292704 14.20568,7.089104 C15.10592,7.887264 15.60664,8.873744 15.73688,10.106624 L15.77032,10.419024 L15.4676,10.450704 L14.84896,10.450704 C14.51896,10.450704 14.22328,10.573024 13.99448,10.802704 C13.76304,11.031504 13.6416,11.327184 13.6416,11.657184 L13.6416,14.755664 C13.6416,15.084784 13.76304,15.380464 13.99448,15.611024 C14.22504,15.838944 14.52072,15.960384 14.84896,15.960384 L15.79496,15.960384 C16.12496,15.960384 16.42064,15.838944 16.65208,15.609264 C16.88176,15.379584 17.0032,15.084784 17.0032,14.755664 L17.0032,11.657184 C17.0032,11.614944 17.00056,11.571824 16.9944,11.530464 L16.98912,11.488224 L16.99616,11.445984 C17.00144,11.418704 17.0032,11.392304 17.0032,11.365024 C17.0032,10.851104 16.98032,10.382944 16.93368,9.969344 C16.76296,8.448704 16.11528,7.178864 15.00912,6.192384 C13.90472,5.205904 12.5636,4.706064 11.02448,4.706064 Z" id="Combined-Shape" fill="#221F1F"></path>
                </g>
            </g>
        </g>
    </g>
</svg>