<?xml version="1.0" encoding="UTF-8"?>
<svg width="27px" height="24px" viewBox="0 0 27 24" version="1.1" xmlns="http://www.w3.org/2000/svg" xmlns:xlink="http://www.w3.org/1999/xlink">
    <!-- Generator: Sketch 60.1 (88133) - https://sketch.com -->
    <title>ChurchLogomark</title>
    <desc>Created with Sketch.</desc>
    <defs>
        <polygon id="path-1" points="0.123942857 0.100432653 16.4321633 0.100432653 16.4321633 16.4081633 0.123942857 16.4081633"></polygon>
        <polygon id="path-3" points="0 0.0793469388 19.0093469 0.0793469388 19.0093469 19.088498 0 19.088498"></polygon>
    </defs>
    <g id="Assets" stroke="none" stroke-width="1" fill="none" fill-rule="evenodd">
        <g id="Icons" transform="translate(-307.000000, -549.000000)">
            <g id="ChurchLogomark" transform="translate(307.000000, 549.000000)">
                <g id="Group-7" transform="translate(-0.000000, 0.000000)">
                    <g id="Group-3" transform="translate(9.795918, 7.512563)">
                        <mask id="mask-2" fill="white">
                            <use xlink:href="#path-1"></use>
                        </mask>
                        <g id="Clip-2"></g>
                        <path d="M16.4321878,14.7333306 C16.4321878,15.6578204 15.6820653,16.4081878 14.7565959,16.4081878 L1.7990449,16.4081878 C0.874555102,16.4081878 0.123942857,15.6578204 0.123942857,14.7333306 L0.123942857,1.77602449 C0.123942857,0.850555102 0.874555102,0.100432653 1.7990449,0.100432653 L14.7565959,0.100432653 C15.6820653,0.100432653 16.4321878,0.850555102 16.4321878,1.77602449 L16.4321878,14.7333306 Z M12.8223918,12.0205959 L12.8223918,3.64092245 C12.8223918,2.71545306 12.0730041,1.96484082 11.1475347,1.96484082 L3.21969796,1.96484082 C2.29422857,1.96484082 1.54361633,2.71545306 1.54361633,3.64092245 L1.54361633,12.0205959 C1.54361633,12.9453306 2.29422857,13.6969224 3.21969796,13.6969224 L11.1475347,13.6969224 C12.0730041,13.6969224 12.8223918,12.9453306 12.8223918,12.0205959 L12.8223918,12.0205959 Z" id="Fill-1" fill="#FFFFFF" mask="url(#mask-2)"></path>
                    </g>
                    <g id="Group-6" transform="translate(0.000000, 0.165624)">
                        <mask id="mask-4" fill="white">
                            <use xlink:href="#path-3"></use>
                        </mask>
                        <g id="Clip-5"></g>
                        <path d="M17.055551,0.0792734694 L1.95367347,0.0792734694 C0.874163265,0.0792734694 -0.00012244898,0.95404898 -0.00012244898,2.0320898 L-0.00012244898,17.1342122 C-0.00012244898,18.2132327 0.874163265,19.088498 1.95367347,19.088498 L9.91971429,19.088498 L9.91971429,16.9142939 L6.16028571,16.9142939 C5.08077551,16.9142939 4.2062449,16.0402531 4.2062449,14.9612327 L4.2062449,5.19323265 C4.2062449,4.11396735 5.08077551,3.24017143 6.16028571,3.24017143 L15.4005306,3.24017143 C16.4797959,3.24017143 17.3538367,4.11396735 17.3538367,5.19323265 L17.3538367,14.9612327 C17.3538367,16.0402531 16.4797959,16.9142939 15.4005306,16.9142939 L11.3393878,16.9142939 L11.3393878,19.088498 L17.055551,19.088498 C18.1345714,19.088498 19.0093469,18.2132327 19.0093469,17.1342122 L19.0093469,2.0320898 C19.0093469,0.95404898 18.1345714,0.0792734694 17.055551,0.0792734694" id="Fill-4" fill="#FFFFFF" mask="url(#mask-4)"></path>
                    </g>
                </g>
            </g>
        </g>
    </g>
</svg>