<svg class="f1rst-icon" width="63" height="63" viewBox="0 0 63 63" fill="none" xmlns="http://www.w3.org/2000/svg">
<path d="M61.3537 21.4215C61.0315 20.4687 60.6617 19.5327 60.2456 18.617C59.9452 17.9347 59.6197 17.315 59.3567 16.7892C58.9085 15.9292 58.4153 15.0934 57.8794 14.2852C56.4644 12.1132 54.7819 10.1279 52.8714 8.3758C52.596 8.11288 52.3143 7.85622 52.0389 7.6246C46.3331 2.7111 39.0549 0.00592981 31.525 0C30.5798 0 29.6158 0.0438203 28.5704 0.137719C25.4353 0.424752 22.3619 1.18673 19.4559 2.39755C19.0991 2.54153 18.7485 2.69804 18.4042 2.8608C14.1171 4.83846 10.3259 7.74872 7.30753 11.3791C4.28912 15.0094 2.11974 19.2681 0.957786 23.8441V23.9129C0.920226 24.0632 0.882658 24.2134 0.851358 24.3637L0.676081 25.1024C0.632261 25.3152 0.594694 25.5218 0.550875 25.7283C-0.794833 33.0051 0.45961 40.5233 4.09494 46.969C7.73026 53.4146 13.5152 58.3776 20.4387 60.9906L21.0647 61.2284L21.1523 61.2597L21.4403 61.3474C22.7092 61.786 24.0084 62.1312 25.3277 62.3803C25.5092 62.4303 25.7033 62.4679 25.8786 62.4992L26.4107 62.5868L26.5296 61.8357L26.4921 62.5994C32.5088 63.5594 38.6747 62.7581 44.2462 60.2923C49.8177 57.8264 54.5568 53.8013 57.8919 48.7023C57.9482 48.6272 57.9983 48.5521 58.0734 48.4331L58.1235 48.358C58.305 48.0638 58.4928 47.7633 58.6681 47.4628C60.9525 43.5658 62.3748 39.2243 62.8391 34.731C63.3034 30.2377 62.799 25.6971 61.3599 21.4152L61.3537 21.4215ZM56.5648 47.4879L56.4146 47.4065L56.5523 47.4879H56.5648ZM25.2025 57.9983C24.9108 58.2675 24.695 58.6085 24.5765 58.9874C24.5064 59.1888 24.4683 59.4001 24.4638 59.6134C23.9192 59.4756 23.3621 59.3192 22.7924 59.1376C22.8299 58.9162 22.8509 58.6923 22.855 58.4678C22.8473 57.4056 22.6806 56.3506 22.3605 55.3378C22.2854 55.1 22.1915 54.8558 22.0913 54.5866C22.0475 54.4927 22.0037 54.3988 21.9661 54.305L21.8847 54.1359C21.7497 53.8572 21.6428 53.5657 21.5655 53.2658C21.4774 52.6121 21.5114 51.9477 21.6656 51.3064C21.8865 50.3316 21.9057 49.3218 21.722 48.3392C21.5786 47.7783 21.3347 47.2481 21.0021 46.7742C20.5658 46.1579 20.0154 45.6309 19.3808 45.2218C18.8081 44.8521 18.1948 44.5496 17.5529 44.3203C17.1647 44.1701 16.7641 44.0449 16.3697 43.9197L16.2571 43.8884C15.9878 43.8242 15.7302 43.7187 15.4934 43.5754C15.4219 43.4243 15.3815 43.2604 15.3744 43.0934C15.235 42.039 15.3465 40.9666 15.6999 39.9634C15.7562 39.7944 15.8189 39.6317 15.8689 39.5127L15.9566 39.3249L16.0943 39.0244C16.2696 38.6614 16.4574 38.267 16.6139 37.8476C16.9577 37.0083 17.0084 36.0776 16.7578 35.2059C16.4927 34.4814 16.0492 33.8355 15.4683 33.3279L15.3682 33.2215C13.847 31.7316 11.9502 29.8787 9.38992 29.3779L9.1896 29.3403C9.72039 29.2343 10.2315 29.0463 10.7045 28.7832L11.1928 28.514L11.462 28.3638C11.7094 28.9468 12.0498 29.4859 12.4698 29.96C12.6606 30.1801 12.8344 30.4145 12.9894 30.6612C13.2142 31.0847 13.5333 31.451 13.9221 31.7316C14.3245 31.9866 14.7813 32.1432 15.2555 32.1886C16.1563 32.34 17.0658 32.4341 17.9785 32.4703L19.0553 32.5329C19.2431 32.5329 19.3995 32.5329 19.5873 32.5329H19.6562C19.8038 32.6278 19.9385 32.7414 20.0568 32.8709L20.4262 33.2152C20.8086 33.5952 21.2703 33.886 21.7783 34.0666C22.184 34.1897 22.6064 34.2488 23.0303 34.2418C23.1179 34.2418 23.2056 34.2418 23.3746 34.2418C24.0147 34.286 24.637 34.4721 25.1963 34.7865C25.8028 35.1065 26.3665 35.5019 26.8739 35.9633C27.4296 36.479 27.9503 37.0311 28.4326 37.616L28.9147 38.1731C29.4016 38.7719 29.9609 39.3081 30.5798 39.7694C31.0785 40.1126 31.6192 40.3903 32.1886 40.5957C32.9308 40.8503 33.6994 41.0204 34.4797 41.1027L34.8992 41.1466C35.256 41.1779 35.5752 41.2092 35.8382 41.2592C36.009 41.2897 36.1766 41.3358 36.3389 41.397C36.5974 41.4762 36.8193 41.6449 36.9649 41.8727L37.0025 41.9541C37.0199 42.079 37.008 42.2062 36.9678 42.3257C36.9276 42.4452 36.8602 42.5537 36.7709 42.6427C36.0253 43.4463 35.4371 44.3828 35.0369 45.4033C34.7758 46.1186 34.63 46.8708 34.6049 47.6319C34.4163 47.8232 34.1777 47.9577 33.9163 48.02L33.6597 48.0951H33.5595C32.684 48.2633 31.8829 48.7011 31.2684 49.3471C30.8703 49.8364 30.6205 50.4294 30.5485 51.056C30.5178 51.3829 30.5178 51.712 30.5485 52.0389C30.5417 52.1577 30.5417 52.2768 30.5485 52.3957V52.6961C30.6027 53.0614 30.6027 53.4326 30.5485 53.7979C30.527 53.879 30.4998 53.9585 30.4671 54.0358C30.2898 54.3986 30.0552 54.7305 29.7723 55.0186C29.6322 55.1785 29.4838 55.3311 29.3278 55.4756C28.5793 56.1696 27.7176 56.7307 26.78 57.1344L26.6548 57.1783C26.1198 57.3497 25.6256 57.6288 25.2025 57.9983ZM17.3776 9.67159C17.8196 10.226 18.4235 10.6287 19.1053 10.8234C19.2942 10.8883 19.4732 10.9789 19.6374 11.0926C19.709 11.183 19.7759 11.277 19.8378 11.3743L19.9066 11.4807C19.9692 11.5684 20.0318 11.6623 20.1257 11.7749L20.2321 11.9001C20.4546 12.176 20.7439 12.3905 21.0726 12.5231C21.4013 12.6556 21.7585 12.7019 22.1101 12.6576C22.327 12.6338 22.5384 12.5745 22.7361 12.4823C23.229 12.1932 23.617 11.7547 23.8441 11.2303L23.9505 11.0363H24.0507C24.342 11.0233 24.6293 10.9641 24.902 10.861C25.017 10.8208 25.1264 10.7661 25.2276 10.6982C25.5992 10.4425 25.8949 10.0911 26.0833 9.68122C26.2717 9.27132 26.3459 8.81812 26.298 8.36953L26.2667 7.98142C26.2657 7.82201 26.2404 7.66368 26.1916 7.51192C26.219 7.54655 26.2422 7.58438 26.2605 7.6246C26.3297 7.75336 26.4114 7.87497 26.5046 7.98767C26.8461 8.46453 27.3241 8.82681 27.8755 9.02682C28.3894 9.22071 28.9351 9.31628 29.4843 9.30852C29.6552 9.31913 29.8267 9.31913 29.9976 9.30852H30.1979C30.3958 9.29034 30.5948 9.29034 30.7926 9.30852C30.9001 9.62525 30.9571 9.9569 30.9616 10.2913L31.0055 10.9737C31.0055 11.1677 31.0368 11.3618 31.0555 11.5621C30.9151 11.6121 30.7661 11.6334 30.6173 11.6247C28.8082 11.5871 26.2917 11.9064 24.5327 13.6279C24.3095 13.8658 24.1005 14.1166 23.9067 14.3791C23.6626 14.6983 23.4936 14.9174 23.2807 15.0051C23.1278 15.0534 22.9706 15.087 22.8112 15.1052H22.6923L22.2666 15.1929C22.0284 15.2568 21.796 15.3405 21.5717 15.4433C21.0811 15.675 20.6292 15.9812 20.2321 16.351C19.7722 16.7787 19.4515 17.3349 19.3119 17.9472V18.0286C19.2497 18.3002 19.1206 18.552 18.9363 18.761C18.8214 18.8889 18.686 18.9968 18.5357 19.0803C18.4071 19.1529 18.2731 19.2157 18.135 19.2681L17.966 19.3432C17.6063 19.4854 17.264 19.6681 16.9457 19.8878C16.3422 20.3247 15.9017 20.9503 15.6937 21.6656C15.6614 21.7532 15.6363 21.8432 15.6186 21.9348C15.5869 22.0836 15.5639 22.2341 15.5497 22.3855C15.4208 22.2403 15.2759 22.1101 15.1177 21.9974C14.6935 21.7095 14.2016 21.5369 13.6905 21.4966C13.5752 21.4723 13.4578 21.4597 13.3399 21.4591C12.84 21.4176 12.3375 21.4176 11.8375 21.4591C10.8531 21.5366 9.89471 21.8135 9.02057 22.2728C8.37498 22.5913 7.80008 23.0364 7.33011 23.5816C6.86014 24.1269 6.5047 24.7611 6.28498 25.4466C5.94768 25.904 5.79564 26.4719 5.85931 27.0367C5.915 27.4905 6.08725 27.9222 6.35931 28.2897C6.63137 28.6572 6.99395 28.948 7.41176 29.1338H7.44309C7.08627 29.1338 6.74195 29.0962 6.40392 29.0461C6.09266 29.0273 5.78848 28.9454 5.50978 28.8055C5.23109 28.6656 4.9837 28.4706 4.7826 28.2323C4.72389 28.115 4.67974 27.991 4.65114 27.863L4.58854 27.6564C4.55098 27.4936 4.52595 27.3246 4.49465 27.1619L4.35066 26.4545C4.1368 25.8719 3.78193 25.3515 3.31777 24.9396V24.902C4.24441 21.0021 5.96285 17.3342 8.36642 14.1262C10.77 10.9182 13.8074 8.2386 17.29 6.25367C17.2303 6.42819 17.1801 6.60582 17.1397 6.78577L17.0896 6.9986C16.9943 7.3537 16.9479 7.72017 16.9519 8.08783C16.9213 8.64763 17.0705 9.20256 17.3776 9.67159ZM37.5033 41.7538L37.7161 41.7037L37.1402 41.904L37.5033 41.7538ZM2.59789 29.6471C2.98276 30.2115 3.48993 30.6819 4.08168 31.0233C4.67343 31.3647 5.33452 31.5683 6.01581 31.6189C6.42896 31.6753 6.83586 31.694 7.26779 31.7191H7.48065C7.84372 31.7191 8.20678 31.7504 8.51351 31.7817L8.95798 31.8568C10.7671 32.2074 12.3509 33.7348 13.6341 34.9868L13.7155 35.0682C14.001 35.3076 14.2334 35.604 14.3979 35.9383C14.4736 36.2677 14.4315 36.6132 14.2789 36.9148C14.1514 37.2474 14.0072 37.5733 13.847 37.8914L13.6028 38.436C13.5053 38.6538 13.4216 38.8775 13.3524 39.1058C12.8757 40.4775 12.7236 41.941 12.908 43.3814C12.9642 43.9939 13.1801 44.581 13.534 45.0841C14.0684 45.6836 14.778 46.0998 15.5622 46.2734H15.6624C16.0129 46.3861 16.3635 46.4925 16.7078 46.6177C17.1794 46.7842 17.6292 47.007 18.0474 47.2813C18.4073 47.5045 18.7183 47.7984 18.9613 48.1452C19.122 48.3635 19.2408 48.6097 19.3119 48.8713C19.4043 49.5505 19.3661 50.241 19.1992 50.9058C18.9951 51.8445 18.9739 52.8136 19.1366 53.7603C19.2597 54.242 19.4317 54.7097 19.65 55.1563L19.6938 55.2565L19.7939 55.4818C19.8691 55.6696 19.9379 55.8699 19.9943 56.0452C20.2192 56.7396 20.3435 57.4627 20.3636 58.1924C15.1034 55.9722 10.612 52.2547 7.44771 47.5022C4.28347 42.7497 2.58606 37.1719 2.56657 31.4624C2.53527 30.8803 2.55407 30.2543 2.59789 29.622V29.6471ZM27.575 59.5508L27.7065 59.5007C28.9289 58.9889 30.0518 58.2663 31.0243 57.3661C31.2371 57.172 31.4437 56.9529 31.6503 56.7401C32.1377 56.2388 32.5339 55.6562 32.8209 55.0186C32.9232 54.7907 32.9968 54.551 33.0399 54.305C33.1595 53.7073 33.1807 53.0941 33.1026 52.4896V52.164C33.0984 52.1036 33.0984 52.043 33.1026 51.9825C33.0859 51.7909 33.0859 51.5982 33.1026 51.4066C33.1108 51.2532 33.163 51.1055 33.2528 50.9809C33.5619 50.76 33.9173 50.6123 34.2919 50.549L34.7051 50.4238C36.2075 49.948 37.1026 48.9965 37.1527 47.8196C37.1758 47.2928 37.275 46.772 37.447 46.2734C37.7425 45.5463 38.1666 44.8783 38.6989 44.3016C39.0445 43.9164 39.297 43.457 39.437 42.9589C39.577 42.4607 39.6008 41.937 39.5065 41.4283C39.5065 41.3281 39.4626 41.2342 39.4313 41.1466L39.3875 41.0026C39.1936 40.5381 38.9047 40.1193 38.5392 39.7732C38.1737 39.4271 37.7398 39.1614 37.2654 38.9932C37.0087 38.9055 36.7458 38.8367 36.4015 38.7553C35.9873 38.6821 35.5693 38.632 35.1495 38.605L34.7677 38.5612C34.1888 38.498 33.6181 38.3742 33.065 38.1919C32.7103 38.0675 32.3736 37.897 32.0634 37.6848C31.6157 37.3417 31.2083 36.949 30.849 36.5142L30.3732 35.9508C29.8161 35.2862 29.2159 34.6588 28.5766 34.0728C27.9077 33.4623 27.1629 32.9405 26.3606 32.5204C25.4626 32.0369 24.4683 31.7589 23.4497 31.7066H23.0929C22.9181 31.7092 22.7436 31.6903 22.5733 31.6502C22.4227 31.5807 22.2867 31.4829 22.1727 31.3623L21.8284 31.0368C21.4049 30.5628 20.8624 30.2105 20.2572 30.0164H20.1695C19.9223 29.9831 19.6718 29.9831 19.4246 30.0164H19.1429L18.1601 29.96C17.3205 29.9287 16.4839 29.8409 15.6561 29.6971C15.5741 29.6772 15.4901 29.6666 15.4057 29.6658C15.3279 29.578 15.2607 29.4814 15.2054 29.3779C14.985 29.0198 14.7381 28.6787 14.4667 28.3575C14.1721 28.0535 13.9571 27.6815 13.8407 27.2745C13.7994 26.9806 13.6909 26.7 13.5238 26.4547C13.3566 26.2094 13.1352 26.0058 12.8767 25.8598C12.6155 25.7095 12.323 25.6216 12.0222 25.6032C11.7214 25.5847 11.4203 25.6361 11.1427 25.7534C10.7537 25.9155 10.3771 26.1059 10.0159 26.323L9.59024 26.5609C9.26795 26.766 8.89546 26.8786 8.51351 26.8864L8.56987 26.8363L8.68254 26.3856C8.78719 25.9823 8.98098 25.6075 9.24966 25.289C9.51834 24.9705 9.85505 24.7163 10.235 24.5452C10.8188 24.2451 11.458 24.0683 12.113 24.0256C12.4794 23.9908 12.8483 23.9908 13.2147 24.0256H13.3838C13.4897 24.0273 13.5941 24.0507 13.6905 24.0945C13.7681 24.1937 13.8352 24.3007 13.8908 24.4138L13.9284 24.5014L14.0285 24.7017C14.0285 24.7706 14.0911 24.8332 14.1099 24.8645C14.2807 25.2954 14.5591 25.6753 14.9186 25.9679C15.2781 26.2605 15.7066 26.4561 16.1632 26.5359C16.5252 26.575 16.891 26.5144 17.2211 26.3606C17.5323 26.1938 17.7901 25.9426 17.9651 25.6359C18.14 25.3292 18.225 24.9794 18.2101 24.6266C18.2152 24.2246 18.1901 23.8229 18.135 23.4247C18.0868 23.1204 18.0742 22.8116 18.0975 22.5045V22.4168C18.1509 22.2286 18.2655 22.0634 18.423 21.9473C18.6098 21.8316 18.8068 21.7331 19.0114 21.6531C19.2882 21.5471 19.5561 21.4194 19.8127 21.2713C20.1942 21.0591 20.5371 20.784 20.8268 20.4575C21.3388 19.885 21.6851 19.1838 21.8284 18.4293C21.8766 18.3289 21.9448 18.2395 22.0287 18.1663C22.2122 17.9905 22.4238 17.8467 22.6547 17.7407C22.7486 17.7015 22.8447 17.668 22.9427 17.6405C23.0245 17.6166 23.1083 17.5999 23.1931 17.5904H23.2619C23.6024 17.5462 23.9364 17.4622 24.2573 17.34C24.9354 17.0246 25.5136 16.5287 25.9287 15.9065C26.0447 15.7412 26.1723 15.5843 26.3105 15.437C27.4373 14.3353 29.2527 14.1287 30.561 14.185C31.2152 14.1973 31.8617 14.0422 32.439 13.7343C32.8471 13.5511 33.1817 13.2361 33.3895 12.84C33.5972 12.4438 33.6659 11.9894 33.5846 11.5496C33.5407 11.2491 33.5219 10.9236 33.5032 10.6231L33.4656 10.1161C33.4553 9.39467 33.2842 8.68467 32.9648 8.03776C32.8207 7.76675 32.6226 7.52814 32.3827 7.33665C32.0087 7.04411 31.5593 6.8639 31.0868 6.81706C30.7085 6.77005 30.3258 6.77005 29.9475 6.81706H29.7096H29.5094C29.2517 6.8336 28.9935 6.79519 28.7519 6.70439C28.6448 6.67136 28.5521 6.60294 28.489 6.51033L28.4013 6.37888C28.3087 6.2169 28.204 6.06205 28.0883 5.91563C27.801 5.57767 27.429 5.32214 27.0105 5.17515C26.5919 5.02815 26.1418 4.99498 25.7063 5.07903C25.2707 5.16309 24.8653 5.36136 24.5315 5.65354C24.1977 5.94573 23.9475 6.32133 23.8065 6.74194C23.6616 7.2483 23.6275 7.77992 23.7064 8.30066C23.7064 8.38204 23.7064 8.45718 23.7064 8.5323C23.3376 8.55397 22.9774 8.65202 22.6485 8.82025C22.275 9.03481 21.9642 9.34343 21.747 9.71542C21.6318 9.54978 21.4997 9.39664 21.3526 9.25845C20.9377 8.89551 20.4546 8.61885 19.9316 8.44465C19.7501 8.37579 19.4684 8.26937 19.4246 8.24433C19.4211 8.19222 19.4211 8.13993 19.4246 8.08783C19.4319 7.92077 19.4571 7.755 19.4997 7.59331C19.4997 7.50567 19.5435 7.41176 19.5561 7.36794C19.5808 7.25287 19.6142 7.13985 19.6562 7.0299C20.2585 6.46136 20.6137 5.67914 20.6453 4.85145V4.66991C20.6427 4.65541 20.6427 4.64058 20.6453 4.62608C23.2312 3.58182 25.956 2.9217 28.7331 2.66672C29.6846 2.58534 30.5735 2.54153 31.4499 2.54153C38.2826 2.54757 44.8937 4.96632 50.1171 9.37113C49.8887 10.2561 49.4888 11.0877 48.9402 11.8188L48.8087 11.994C48.6044 12.2538 48.4222 12.5302 48.2641 12.8203C48.0943 13.1375 47.9986 13.489 47.9839 13.8484C47.9692 14.2079 48.0359 14.566 48.1792 14.8959C48.3226 15.2259 48.5387 15.5192 48.8114 15.7538C49.0841 15.9884 49.4063 16.1583 49.754 16.2508C49.9912 16.3339 50.2339 16.4008 50.4801 16.4511H50.5803C50.6867 16.4511 50.7994 16.5012 50.912 16.5387C51.0674 16.5888 51.2109 16.6702 51.3337 16.7779C51.4564 16.8855 51.5558 17.0172 51.6257 17.1647C51.6864 17.2869 51.7122 17.4235 51.7 17.5595C51.6879 17.6954 51.6383 17.8253 51.5568 17.9347C51.4404 18.0325 51.2999 18.0974 51.1499 18.1225L50.9058 18.1726C50.4935 18.2649 50.0751 18.3277 49.6538 18.3604C49.5099 18.3604 49.3721 18.3604 49.2282 18.3604H48.9465C48.6213 18.3393 48.2951 18.3393 47.9699 18.3604C46.7355 18.5066 45.6097 19.1371 44.8399 20.1132C44.7829 20.1812 44.7326 20.2546 44.6897 20.3323L44.6709 20.4387C44.4786 20.7369 44.3211 21.0561 44.2014 21.3902C44.1021 21.6924 44.0185 21.9995 43.951 22.3104C43.9066 22.5663 43.8331 22.8162 43.7319 23.0553L43.6944 23.1242C43.4393 23.4312 43.1294 23.688 42.7804 23.8817C42.2894 24.1811 41.8427 24.5477 41.4533 24.9709C41.1213 25.372 40.8609 25.8273 40.6833 26.3168C40.4687 26.8813 40.3134 27.4666 40.2201 28.0633C39.9008 29.7284 39.7443 31.6064 41.0652 32.9085C41.4032 33.2403 41.6912 33.5908 42.0417 33.9852C42.4501 34.4797 42.8914 34.9461 43.3626 35.3812C43.9414 35.9037 44.624 36.2983 45.3658 36.5392C46.1982 36.7952 47.0617 36.9364 47.9324 36.9587H49.0153L50.718 36.8585C51.4128 36.8084 52.1327 36.7584 52.79 36.7584C53.1374 36.7622 53.4843 36.7852 53.8292 36.8272C53.8292 37.04 53.8292 37.2654 53.8292 37.5283C53.7867 38.1556 53.8161 38.7857 53.9168 39.4063L53.9607 39.6066C54.1984 40.4305 54.5638 41.2121 55.0436 41.9228C55.4393 42.4563 55.7148 43.0693 55.8511 43.7194C55.8619 44.1394 55.8263 44.5593 55.7447 44.9714V45.0402C55.6456 45.7736 55.6859 46.5191 55.8637 47.2375L55.8199 47.3063C53.1922 51.3549 49.5919 54.6803 45.3479 56.9789C41.1039 59.2775 36.3515 60.476 31.525 60.4647C30.1828 60.4646 28.8421 60.3725 27.5124 60.1893C27.4429 60.0085 27.3457 59.8396 27.2245 59.6885L27.575 59.5508ZM56.3707 38.58C56.3707 38.2733 56.3707 37.954 56.3707 37.5659C56.3707 37.1777 56.3707 36.8147 56.3707 36.4454C56.3639 36.1391 56.3046 35.8364 56.1954 35.5502C56.0972 35.3165 55.9548 35.104 55.776 34.9242C55.441 34.6194 55.0181 34.4287 54.5679 34.3796C53.9865 34.2799 53.3985 34.2234 52.8088 34.2105C52.0514 34.2105 51.3002 34.2606 50.574 34.3107L48.9339 34.4171H48.0012C47.3641 34.4065 46.7318 34.3054 46.1232 34.1167C45.7179 33.9879 45.3445 33.7745 45.0277 33.4907C44.6822 33.1637 44.3561 32.8167 44.0512 32.4515L43.9573 32.3451C43.6443 31.9757 43.2624 31.525 42.8242 31.0931C42.386 30.6612 42.4925 29.5406 42.6865 28.5328C42.7614 28.0831 42.8766 27.641 43.0308 27.2119C43.1019 26.9846 43.2144 26.7724 43.3626 26.586C43.6271 26.3243 43.9237 26.0971 44.2452 25.9099C44.8604 25.5424 45.3914 25.0497 45.804 24.4638L45.8853 24.3386C46.1371 23.8586 46.3164 23.3438 46.4174 22.8112C46.4549 22.5991 46.5072 22.39 46.5739 22.1852C46.624 22.042 46.6913 21.9054 46.7742 21.7783L46.8807 21.6343C47.2181 21.2014 47.7088 20.9145 48.2516 20.8331C48.46 20.8202 48.6691 20.8202 48.8776 20.8331H48.9903C49.2532 20.8331 49.5161 20.8331 49.754 20.8331C50.3121 20.7993 50.8668 20.7219 51.4129 20.6015L51.6508 20.5514C52.3238 20.4241 52.9419 20.0943 53.4223 19.6061C53.813 19.1643 54.0774 18.6252 54.1876 18.0457C54.2978 17.4663 54.2496 16.8678 54.0483 16.3134C53.8564 15.8077 53.5556 15.3504 53.1673 14.9739C52.7789 14.5974 52.3124 14.311 51.801 14.1349C51.5586 14.0547 51.312 13.9878 51.0623 13.9346C50.9184 13.9051 50.7763 13.8675 50.6366 13.8219C50.7118 13.7093 50.8056 13.584 50.8933 13.4651L51.006 13.3149C51.4899 12.6715 51.8896 11.9688 52.1954 11.2241C53.521 12.5769 54.7098 14.0573 55.7447 15.6436C56.2142 16.3572 56.6587 17.1084 57.0906 17.9284C57.341 18.4105 57.6353 18.9926 57.9107 19.6124C58.2925 20.4449 58.6243 21.29 58.9373 22.1977C61.1848 28.8818 60.9245 36.1552 58.2049 42.6615C57.9495 41.8948 57.5916 41.1662 57.1407 40.4955C56.824 40.0249 56.5734 39.5131 56.3958 38.9744L56.3707 38.58Z" fill="#28373A"/>
</svg>
