<svg width="189" height="59" viewBox="0 0 189 59" fill="none" xmlns="http://www.w3.org/2000/svg">
<path d="M11.4497 50.1329V58.2257H9.41698V50.2223C9.41698 47.4353 8.15077 46.3379 6.29349 46.3379C4.82064 46.3379 3.49424 47.2274 2.57882 48.6488V58.2257H0.575012V44.9142H2.57647V46.9108C3.72736 45.4267 5.4597 44.658 6.90132 44.658C9.88786 44.6483 11.4497 46.7513 11.4497 50.1329ZM20.0849 44.6483C15.8706 44.6483 13.1291 47.6722 13.1291 51.6751C13.1291 55.0591 15.6062 58.494 20.0272 58.494C23.3573 58.494 26.9518 56.1808 26.9518 51.5857C26.9518 47.5224 24.0061 44.6483 20.0849 44.6483ZM20.056 56.6835C17.2857 56.6835 15.1929 54.6676 15.1929 51.5857C15.1929 48.5038 17.2857 46.4564 19.9383 46.4564C22.6485 46.4564 24.8903 48.3249 24.8903 51.5542C24.8903 54.4911 22.9441 56.6835 20.056 56.6835ZM37.836 46.101L36.7451 47.8486C35.8609 47.0486 35.008 46.5748 34.2704 46.5748C32.9729 46.5748 31.2357 48.0251 30.7047 50.5777V58.2257H28.7009V44.9142H30.688V48.1194C32.1896 45.6877 33.5471 44.6507 34.8734 44.6507C35.9114 44.6483 36.9133 45.2188 37.8263 46.101H37.836ZM38.8379 44.9142H41.4015V41.9798L43.4054 40.8219V44.9142H47.49V46.7223H43.4054V53.8385C43.4054 55.4701 43.6697 56.6545 45.3276 56.6545C46.3109 56.6244 47.2679 56.3279 48.0978 55.7964V57.6939C47.1677 58.2091 46.125 58.4839 45.0633 58.494C42.4996 58.494 41.4088 57.1887 41.4088 53.8385V46.7223H38.8451L38.8379 44.9142ZM60.2026 49.8961V58.2257H58.1699V49.983C58.1699 47.6722 57.1969 46.3379 55.1642 46.3379C53.6601 46.3379 52.5212 47.0776 51.3319 48.6198V58.2257H49.328V38.0059H51.3319V46.9302C52.3938 45.5379 53.9748 44.6483 55.6567 44.6483C58.749 44.6483 60.193 46.7827 60.193 49.8961H60.2026ZM62.5621 44.9142L66.5986 54.4307L70.5486 44.9142H72.711L66.9638 58.552H66.2478L60.3828 44.9142H62.5621ZM76.0892 39.5964V42.1779H74.0854V39.5964H76.0892ZM74.0854 44.9142H76.0892V58.2257H74.0854V44.9142ZM80.008 51.7041V51.5035H89.6452C89.5563 47.1525 87.3458 44.6556 83.9869 44.6556C80.3035 44.6556 77.9441 47.5901 77.9441 51.5325C77.9441 55.8037 80.8273 58.5012 84.4314 58.5012C86.226 58.5352 87.9834 57.984 89.4409 56.93V54.9431C88.082 56.0035 86.4152 56.5868 84.6956 56.6038C81.5889 56.5965 79.9984 54.0754 79.9984 51.7041H80.008ZM83.958 46.4274C86.1685 46.4274 87.4059 47.8487 87.6413 50.2223H80.0681C80.2939 48.0565 81.8652 46.4274 83.9484 46.4274H83.958ZM89.4962 44.9142H91.6586L95.6062 54.2542L99.3497 44.9142H100.791L104.535 54.2542L108.485 44.9142H110.635L104.869 58.494H104.22L100.066 48.2645L95.9979 58.494H95.3203L89.4962 44.9142ZM130.138 45.4484V47.6239C128.84 46.8528 127.778 46.5579 126.572 46.5579C123.689 46.5579 121.973 48.9002 121.973 51.5687C121.973 54.0294 123.415 56.6086 126.925 56.6086C128.22 56.6086 129.254 56.2508 130.344 55.777V57.7882C129.163 58.2658 127.903 58.5119 126.63 58.5133C121.973 58.5133 119.902 55.0132 119.902 51.7234C119.902 47.3942 122.644 44.6676 126.445 44.6676C127.715 44.6625 128.971 44.9329 130.128 45.4605L130.138 45.4484ZM143.016 49.8961V58.2257H140.971V49.983C140.971 47.6722 140.01 46.3379 137.966 46.3379C136.464 46.3379 135.323 47.0776 134.136 48.6198V58.2257H132.132V38.0059H134.136V46.9302C135.195 45.5379 136.779 44.6483 138.461 44.6483C141.562 44.6483 143.007 46.7827 143.007 49.8961H143.016ZM146.817 44.9142V52.8909C146.817 55.5498 147.937 56.8043 149.941 56.8043C151.445 56.8043 152.74 55.9173 153.655 54.4936V44.9166H155.688V58.2281H153.655V56.2412C152.533 57.6359 150.854 58.4964 149.352 58.4964C146.671 58.4964 144.813 56.8938 144.813 52.6951V44.9263L146.817 44.9142ZM166.798 46.101L165.707 47.8486C164.823 47.0486 163.97 46.5748 163.232 46.5748C161.935 46.5748 160.198 48.0251 159.667 50.5777V58.2257H157.663V44.9142H159.667V48.1194C161.169 45.6877 162.524 44.6507 163.85 44.6507C164.873 44.6483 165.875 45.2188 166.788 46.101H166.798ZM176.317 45.4484V47.6239C175.02 46.8528 173.958 46.5579 172.749 46.5579C169.866 46.5579 168.153 48.9002 168.153 51.5687C168.153 54.0294 169.595 56.6086 173.105 56.6086C174.4 56.6086 175.433 56.2508 176.524 55.777V57.7882C175.343 58.2658 174.082 58.5119 172.809 58.5133C168.153 58.5133 166.082 55.0132 166.082 51.7234C166.082 47.3942 168.824 44.6676 172.625 44.6676C173.895 44.6625 175.151 44.9329 176.308 45.4605L176.317 45.4484ZM188.605 49.8961V58.2257H186.572V49.983C186.572 47.6722 185.599 46.3379 183.566 46.3379C182.062 46.3379 180.923 47.0776 179.734 48.6198V58.2257H177.733V38.0059H179.736V46.9302C180.798 45.5379 182.379 44.6483 184.061 44.6483C187.151 44.6483 188.595 46.7827 188.595 49.8961H188.605Z" fill="#EDEDED"/>
<path d="M102.375 9.88166C104.789 9.88166 107.132 9.95173 109.465 9.85504C109.798 9.83832 110.132 9.89163 110.443 10.0116C110.755 10.1316 111.038 10.3156 111.275 10.5519C111.513 10.7882 111.698 11.0715 111.82 11.384C111.943 11.6964 111.999 12.031 111.985 12.3665C111.915 17.9712 111.915 23.5782 111.985 29.1877C112.002 30.4277 110.818 31.646 109.583 31.6339C103.963 31.5856 98.3405 31.6194 92.7182 31.6097C91.1925 31.6097 90.3709 30.7371 90.3685 29.1926C90.3685 28.0033 90.3685 26.8116 90.3685 25.6199C90.351 25.5378 90.3277 25.457 90.2988 25.3782H89.5539C86.3503 25.3782 83.1467 25.3782 79.9432 25.3782C78.2132 25.3782 77.2161 24.3509 77.2137 22.596C77.2137 16.0455 77.2521 9.49734 77.1872 2.94676C77.1728 1.32724 78.2733 -0.0167623 80.0993 0.000158039C86.1877 0.0581706 92.2785 0.021934 98.3597 0.021934C98.8523 0.021934 99.3448 0.00501366 99.8374 0.021934C101.38 0.104118 102.331 1.10723 102.336 2.65423C102.336 4.86112 102.336 7.07047 102.336 9.27736C102.343 9.44415 102.36 9.61577 102.375 9.88166ZM90.3804 22.451V21.5615C90.3804 18.4352 90.3804 15.3099 90.3804 12.1852C90.3804 10.7132 91.2022 9.88166 92.6606 9.87924C94.8775 9.87924 97.0959 9.87924 99.316 9.87924C99.5779 9.87924 99.8399 9.87924 100.169 9.87924C100.169 8.84468 100.116 7.90198 100.169 6.97861C100.28 5.35668 98.7923 4.17467 97.3867 4.19884C93.4415 4.26169 89.4963 4.21814 85.5535 4.22056C83.8716 4.22056 82.7302 5.29139 82.7182 6.95684C82.691 11.2482 82.691 15.5395 82.7182 19.8308C82.7182 21.2811 83.6649 22.3543 85.1089 22.4389C86.8341 22.5332 88.5568 22.4559 90.3804 22.4559V22.451ZM92.204 25.3517C92.2208 27.2467 93.3021 27.9526 94.5131 27.9501C97.9634 27.9501 101.414 27.9719 104.864 27.9187C105.443 27.8742 105.999 27.6702 106.471 27.3289C107.178 26.8455 107.192 26.0236 107.192 25.2477C107.192 21.8249 107.192 18.403 107.192 14.9819C107.197 14.6345 107.164 14.2876 107.094 13.9473C107.029 13.5648 106.846 13.2123 106.572 12.9392C106.298 12.6661 105.946 12.4861 105.565 12.4245C104.537 12.2843 103.475 12.3907 102.353 12.3907V13.1037C102.353 16.3041 102.353 19.5021 102.353 22.7024C102.353 24.3244 101.337 25.342 99.7269 25.3613C98.3213 25.3613 96.9158 25.3613 95.5102 25.3613L92.204 25.3517ZM100.15 12.2988C98.3238 12.2988 96.5794 12.352 94.8375 12.2843C92.9153 12.2094 92.1295 13.6815 92.1488 14.9988C92.1824 17.2299 92.1488 19.4585 92.1609 21.6872C92.1609 21.9289 92.1872 22.1706 92.1992 22.3785C94.2727 22.3785 96.2839 22.4438 98.2877 22.3495C99.2488 22.306 100.116 21.2473 100.133 20.22C100.179 17.6336 100.15 15.0351 100.15 12.3085V12.2988Z" fill="#EDEDED"/>
</svg>
