<?xml version="1.0" encoding="UTF-8"?>
<svg width="124px" height="100px" viewBox="0 0 124 100" version="1.1" xmlns="http://www.w3.org/2000/svg" xmlns:xlink="http://www.w3.org/1999/xlink">
    <!-- Generator: Sketch 60.1 (88133) - https://sketch.com -->
    <title>Group 20</title>
    <desc>Created with Sketch.</desc>
    <g id="Assets" stroke="none" stroke-width="1" fill="none" fill-rule="evenodd">
        <g id="Text-Styles" transform="translate(-268.000000, -1491.000000)" stroke="#FFFFFF" stroke-width="3">
            <g id="Group-20" transform="translate(270.000000, 1493.000000)">
                <g id="Group-18">
                    <g id="Group-15">
                        <g id="Group-13" transform="translate(17.183288, 0.000000)" stroke-linejoin="round">
                            <rect id="Rectangle" x="49.8315364" y="10.309973" width="34.3665768" height="34.3665768" rx="17.1832884"></rect>
                            <rect id="Rectangle" x="-8.52651283e-14" y="-7.46069873e-14" width="41.2398922" height="41.2398922" rx="20.6199461"></rect>
                        </g>
                        <g id="Group-5" transform="translate(0.000000, 41.239892)">
                            <path d="M108.456004,22.8646229 C125.380215,20.4585619 123.685699,-1.95527657 106.284324,1.74256304 C95.8262742,3.96619726 85.3426205,5.16183206 67.8946924,2.85191492 C59.90626,1.79433279 46.4013403,0.3571058 38.1731618,0.0612786313 C38.0614355,0.0637438577 36.6392524,0.0464872729 36.0457063,0.0070436504 C25.3036855,-0.172917877 15.0318463,3.10090279 10.639605,9.21466427 C3.33316876,19.3837232 1.15683301,32.2423441 0,48.6015865 C0.370093459,48.7790828 0.735531654,48.9590444 1.10795274,49.1316102 C1.10795274,49.1316102 13.446729,54.9865229 27.784941,54.9865229 C38.4338565,54.9865229 55.1672017,53.7169313 64.4381592,49.1266797 C65.0596369,48.8185264 65.4227475,48.1257978 65.3831777,47.398556 L63.8865105,27.265052 C83.7621585,26.7695415 104.734121,23.3946465 108.456004,22.8646229 Z" id="Stroke-3"></path>
                        </g>
                    </g>
                </g>
                <path d="M64,89.2084942 C87.2115151,93.2393822 112.441423,89.2084942 116.478208,89.2084942 C120.514993,89.2084942 115.469012,70.0617761 113.450619,62" id="Path-3"></path>
            </g>
        </g>
    </g>
</svg>