<?xml version="1.0" encoding="UTF-8"?>
<svg width="26px" height="25px" viewBox="0 0 26 25" version="1.1" xmlns="http://www.w3.org/2000/svg" xmlns:xlink="http://www.w3.org/1999/xlink">
    <!-- Generator: Sketch 60.1 (88133) - https://sketch.com -->
    <title>MyAccount_Icon</title>
    <desc>Created with Sketch.</desc>
    <g id="Assets" stroke="none" stroke-width="1" fill="none" fill-rule="evenodd">
        <g id="Icons" transform="translate(-192.000000, -948.000000)" fill="#221F1F">
            <g id="MyAccount_Icon" transform="translate(194.000000, 949.000000)">
                <g id="Group-5" transform="translate(-2.000000, -1.000000)">
                    <path d="M13,0.5 C17.1421356,0.5 20.5,3.85786438 20.5,8 C20.5,9.06794315 20.2767915,10.0837532 19.8744818,11.0033226 C21.2429463,11.5969237 22.2839654,12.4965915 23.0607012,13.7721019 L23.2087369,14.0254397 L23.3565053,14.2996845 C23.9410382,15.428155 24.4367029,16.9118954 24.8616734,18.6347929 L24.9664537,19.0704325 C25.2775655,20.3966958 25.5426676,21.8792763 25.596425,22.4188642 C25.6688404,23.2315257 25.177657,24.0464435 24.2670314,24.2285678 L24.0024064,24.2753673 C22.2344903,24.5568208 16.6572676,24.9761059 13.3304709,24.9999381 L13.0509695,25.001 C9.58441379,25.000132 3.26318068,24.5152923 1.83416354,24.2282664 C0.922835917,24.0440618 0.427627902,23.2224667 0.508757228,22.403065 L0.538009443,22.1637315 C0.621557971,21.5573277 0.831627073,20.4105507 1.07898187,19.3208385 L1.13668501,19.0706514 C1.61858695,17.0149267 2.1947569,15.2716363 2.89390684,14.0255223 C3.66987535,12.6412855 4.72889859,11.6726437 6.1427004,11.0401135 C5.72928866,10.1112281 5.5,9.08239064 5.5,8 C5.5,3.85786438 8.85786438,0.5 13,0.5 Z M7.58,13.688 L7.3790604,13.7723736 C6.60708301,14.115127 6.06024434,14.5974908 5.62617981,15.2968053 L5.51051021,15.4929645 C4.98114825,16.4364609 4.480229,17.9520688 4.05750507,19.7553486 C3.96461237,20.1516155 3.87608939,20.5640184 3.79773303,20.952701 L3.698,21.456 L4.53867661,21.5395521 C6.73331019,21.7426409 10.0287489,21.9561345 12.3605349,21.9948136 L13.0509694,22.001 C15.370671,22.0004191 19.1136776,21.7654299 21.5367445,21.5420351 L22.403,21.456 L22.380571,21.3325339 C22.2994181,20.9113395 22.2024524,20.44183 22.098345,19.983516 L22.0457364,19.7555675 C21.6509215,18.0724797 21.1880633,16.6399254 20.6976707,15.6892261 L20.5921799,15.4929645 C20.1407247,14.6877408 19.5664925,14.1478123 18.7241206,13.7730529 L18.523,13.689 L18.2787928,13.87773 C16.8673672,14.9225376 15.1664531,15.530934 13.3719531,15.5953089 L13.054345,15.601 C11.155278,15.601 9.3469404,14.9920451 7.85692349,13.8997955 L7.58,13.688 Z M13,3.5 C10.5147186,3.5 8.5,5.51471863 8.5,8 C8.5,10.4852814 10.5147186,12.5 13,12.5 C15.4852814,12.5 17.5,10.4852814 17.5,8 C17.5,5.51471863 15.4852814,3.5 13,3.5 Z" id="Combined-Shape" fill-rule="nonzero"></path>
                </g>
            </g>
        </g>
    </g>
</svg>