<?xml version="1.0" encoding="UTF-8"?>
<svg width="23px" height="20px" viewBox="0 0 23 20" version="1.1" xmlns="http://www.w3.org/2000/svg" xmlns:xlink="http://www.w3.org/1999/xlink">
    <!-- Generator: Sketch 60.1 (88133) - https://sketch.com -->
    <title>HamburgerIcon</title>
    <desc>Created with Sketch.</desc>
    <g id="Assets" stroke="none" stroke-width="1" fill="none" fill-rule="evenodd">
        <g id="Icons" transform="translate(-73.000000, -951.000000)" fill="#221F1F">
            <g id="Menu" transform="translate(74.000000, 952.000000)">
                <g id="Group-2">
                    <path d="M10.5,-2.5 C11.2796961,-2.5 11.9204487,-1.90511192 11.9931334,-1.14446001 L12,-1 L12,19 C12,19.8284271 11.3284271,20.5 10.5,20.5 C9.72030388,20.5 9.07955132,19.9051119 9.00686658,19.14446 L9,19 L9,-1 C9,-1.82842712 9.67157288,-2.5 10.5,-2.5 Z" id="Line-2" fill-rule="nonzero" transform="translate(10.500000, 9.000000) rotate(-90.000000) translate(-10.500000, -9.000000) "></path>
                    <path d="M10.5,-10.5 C11.2796961,-10.5 11.9204487,-9.90511192 11.9931334,-9.14446001 L12,-9 L12,11 C12,11.8284271 11.3284271,12.5 10.5,12.5 C9.72030388,12.5 9.07955132,11.9051119 9.00686658,11.14446 L9,11 L9,-9 C9,-9.82842712 9.67157288,-10.5 10.5,-10.5 Z" id="Line-2" fill-rule="nonzero" transform="translate(10.500000, 1.000000) rotate(-90.000000) translate(-10.500000, -1.000000) "></path>
                    <path d="M10.5,5.5 C11.2796961,5.5 11.9204487,6.09488808 11.9931334,6.85553999 L12,7 L12,27 C12,27.8284271 11.3284271,28.5 10.5,28.5 C9.72030388,28.5 9.07955132,27.9051119 9.00686658,27.14446 L9,27 L9,7 C9,6.17157288 9.67157288,5.5 10.5,5.5 Z" id="Line-2" fill-rule="nonzero" transform="translate(10.500000, 17.000000) rotate(-90.000000) translate(-10.500000, -17.000000) "></path>
                </g>
            </g>
        </g>
    </g>
</svg>