<?xml version="1.0" encoding="UTF-8"?>
<svg width="16px" height="16px" viewBox="0 0 16 16" version="1.1" xmlns="http://www.w3.org/2000/svg" xmlns:xlink="http://www.w3.org/1999/xlink">
    <!-- Generator: Sketch 63.1 (92452) - https://sketch.com -->
    <title>Group 8</title>
    <desc>Created with Sketch.</desc>
    <g id="Assets" stroke="none" stroke-width="1" fill="none" fill-rule="evenodd">
        <g id="Icons" transform="translate(-592.000000, -3243.000000)">
            <g id="Group-8" transform="translate(592.000000, 3243.000000)">
                <path d="M4.84011628,2.60490292 C4.84011628,2.31423709 5.04199658,2.06256986 5.3257408,1.99951559 L5.3257408,1.99951559 L14.2559734,0.0150194674 C14.6432687,-0.0710461533 15.0106589,0.223663884 15.0106589,0.620406792 L15.0106589,0.620406792 L15.0106589,11.2041344 C14.9878279,12.7610061 13.7193887,14.0155039 12.1579457,14.0155039 C10.5824358,14.0155039 9.30523256,12.7383007 9.30523256,11.1627907 C9.30523256,9.58728071 10.5824358,8.31007752 12.1579457,8.31007752 C12.756553,8.31007752 13.3120971,8.49445233 13.7708876,8.80951125 L13.77,4.039 L6.08,5.748 L6.08042636,13.3540052 C5.96649415,14.833627 4.73331417,16 3.22771318,16 C1.65220319,16 0.375,14.7227968 0.375,13.1472868 C0.375,11.5717768 1.65220319,10.2945736 3.22771318,10.2945736 C3.82632041,10.2945736 4.38186459,10.4789485 4.84065502,10.7940074 Z M3.22771318,11.5348837 C2.33720754,11.5348837 1.61531008,12.2567812 1.61531008,13.1472868 C1.61531008,14.0377925 2.33720754,14.7596899 3.22771318,14.7596899 C4.11821882,14.7596899 4.84011628,14.0377925 4.84011628,13.1472868 C4.84011628,12.2567812 4.11821882,11.5348837 3.22771318,11.5348837 Z M12.1579457,9.5503876 C11.2674401,9.5503876 10.5455426,10.2722851 10.5455426,11.1627907 C10.5455426,12.0532963 11.2674401,12.7751938 12.1579457,12.7751938 C13.0484514,12.7751938 13.7703488,12.0532963 13.7703488,11.1627907 C13.7703488,10.2722851 13.0484514,9.5503876 12.1579457,9.5503876 Z M13.7703488,1.39336803 L6.08042636,3.10201919 L6.08042636,4.47727501 L13.7703488,2.76862385 L13.7703488,1.39336803 Z" id="Combined-Shape" fill="#221F1F" fill-rule="nonzero"></path>
                <g id="Group-11" transform="translate(4.000000, 0.000000)"></g>
            </g>
        </g>
    </g>
</svg>