<?xml version="1.0" encoding="UTF-8"?>
<svg width="15px" height="16px" viewBox="0 0 15 16" version="1.1" xmlns="http://www.w3.org/2000/svg" xmlns:xlink="http://www.w3.org/1999/xlink">
    <!-- Generator: Sketch 63.1 (92452) - https://sketch.com -->
    <title>Resources</title>
    <desc>Created with Sketch.</desc>
    <g id="Assets" stroke="none" stroke-width="1" fill="none" fill-rule="evenodd">
        <g id="Icons" transform="translate(-639.000000, -3243.000000)" fill="#221F1F" fill-rule="nonzero">
            <g id="Resources" transform="translate(639.000000, 3243.000000)">
                <path d="M10.4996693,0 C10.760279,0 11.0113773,0.0904154774 11.2112055,0.253592433 L11.3066538,0.341162636 L13.9319845,3.04402072 C14.1067881,3.2239864 14.2155724,3.45627457 14.2430862,3.7032945 L14.25,3.82785809 L14.25,11.125 C14.25,12.2475788 13.3795366,13.16685 12.2767588,13.2446645 L12.125,13.25 L11,13.25 L11,13.9222222 C11,15.0198548 10.1488802,15.9186977 9.07060863,15.9947831 L8.92222222,16 L2.07777778,16 C0.980145188,16 0.0813022701,15.1488802 0.00521693617,14.0706086 L0,13.9222222 L0,7.07777778 C0,5.98014519 0.851119762,5.08130227 1.92939137,5.00521694 L2.07777778,5 L3,5 L3,2.125 C3,1.00242122 3.87046339,0.0831500489 4.97324118,0.0053355029 L5.125,0 L10.4996693,0 Z M3,6.222 L2.07777778,6.22222222 C1.64161444,6.22222222 1.28168164,6.54860399 1.22888821,6.97045871 L1.22222222,7.07777778 L1.22222222,13.9222222 C1.22222222,14.3583856 1.54860399,14.7183184 1.97045871,14.7711118 L2.07777778,14.7777778 L8.92222222,14.7777778 C9.35838556,14.7777778 9.71831836,14.451396 9.77111179,14.0295413 L9.77777778,13.9222222 L9.777,13.25 L5.125,13.25 C4.00242122,13.25 3.08315005,12.3795366 3.0053355,11.2767588 L3,11.125 L3,6.222 Z M10,1.25 L5.125,1.25 C4.67892386,1.25 4.31081077,1.58379954 4.25681749,2.01524186 L4.25,2.125 L4.25,11.125 C4.25,11.5710761 4.58379954,11.9391892 5.01524186,11.9931825 L5.125,12 L12.125,12 C12.5710761,12 12.9391892,11.6662005 12.9931825,11.2347581 L13,11.125 L13,4 L11,4 C10.482233,4 10.0563729,3.60650027 10.0051629,3.10224419 L10,3 L10,1.25 Z" id="Combined-Shape"></path>
            </g>
        </g>
    </g>
</svg>