<!-- Generated by IcoMoon.io -->
<svg version="1.1" xmlns="http://www.w3.org/2000/svg" width="32" height="32" viewBox="0 0 32 32">
<title>apple</title>
<path d="M30.4 0h-28.8c-0.884 0-1.6 0.716-1.6 1.6v28.8c0 0.884 0.716 1.6 1.6 1.6h28.8c0.884 0 1.6-0.716 1.6-1.6v-28.8c0-0.884-0.716-1.6-1.6-1.6zM19.137 22.534c-0.048 1.871-0.243 3.718-0.838 5.503-0.279 0.837-0.653 1.628-1.314 2.246-0.767 0.716-1.404 0.723-2.175-0.018-0.82-0.788-1.21-1.82-1.494-2.883-0.547-2.049-0.696-4.152-0.657-6.261 0.032-1.762 1.513-3.165 3.232-3.176 1.681-0.010 3.092 1.286 3.239 3.010 0.045 0.522 0.007 1.052 0.007 1.578zM15.905 17.002c-1.782 0.004-3.26-1.469-3.269-3.257-0.009-1.85 1.532-3.35 3.422-3.331 1.646 0.017 3.127 1.558 3.144 3.273 0.018 1.795-1.49 3.31-3.297 3.314zM8.888 15.046c0.125 1.854 0.815 3.435 2.137 4.736 0.054 0.053 0.097 0.105 0.132 0.156-0.009 0.744-0.001 1.488 0.028 2.23-2.295-1.093-4.847-4.773-4.069-8.998 0.737-4.001 4.284-7.123 8.251-7.242 4.363-0.132 8.104 2.641 9.096 6.778 0.99 4.128-1.187 8.024-3.847 9.466 0.006-0.164 0.011-0.328 0.015-0.493 0-0.602 0.033-1.206 0.017-1.806 0.019-0.015 0.037-0.031 0.054-0.047 2.024-1.992 2.71-4.384 1.922-7.098-0.775-2.668-2.632-4.276-5.335-4.894-4.348-0.994-8.702 2.759-8.4 7.212zM20.025 27.427c0.138-0.652 0.246-1.307 0.332-1.967 0.1-0.119 0.271-0.141 0.407-0.206 3.498-1.694 5.704-4.421 6.572-8.216 1.399-6.124-2.779-12.539-8.946-13.744-6.665-1.302-12.832 2.972-13.897 9.631-0.774 4.843 1.845 9.932 6.281 12.062 0.313 0.15 0.54 0.312 0.697 0.515 0.084 0.609 0.188 1.216 0.312 1.82-3.959-0.989-9.208-5.632-9.227-12.725-0.020-7.133 5.668-13.097 12.718-13.408 7.144-0.315 13.425 5.035 14.102 11.997 0.762 7.827-4.786 13.072-9.35 14.24z"></path>
</svg>
