<!-- Generated by IcoMoon.io -->
<svg version="1.1" xmlns="http://www.w3.org/2000/svg" width="32" height="32" viewBox="0 0 32 32">
<title>facebook</title>
<path d="M30.234 0h-28.468c-0.975 0-1.766 0.791-1.766 1.766v28.468c0 0.975 0.791 1.766 1.766 1.766h14.874v-12.8h-3.84v-5.12h3.84v-3.562c0-4.133 2.601-6.384 6.4-6.384 1.82 0 3.384 0.132 3.84 0.19v4.635l-2.645 0.001c-2.074 0-2.475 0.953-2.475 2.351v2.768h5.071l-0.66 5.12h-4.411v12.8h8.474c0.975 0 1.766-0.791 1.766-1.766v-28.468c0-0.975-0.791-1.766-1.766-1.766z"></path>
</svg>
