<!-- Generated by IcoMoon.io -->
<svg version="1.1" xmlns="http://www.w3.org/2000/svg" width="32" height="32" viewBox="0 0 32 32">
<title>instagram</title>
<path d="M16 0c-4.346 0-4.891 0.019-6.597 0.096-1.703 0.078-2.867 0.349-3.884 0.744-1.052 0.409-1.944 0.956-2.834 1.845s-1.437 1.782-1.845 2.834c-0.395 1.018-0.666 2.181-0.744 3.884-0.078 1.706-0.096 2.251-0.096 6.597s0.019 4.89 0.096 6.597c0.078 1.703 0.349 2.867 0.744 3.884 0.409 1.052 0.956 1.944 1.845 2.834s1.782 1.437 2.834 1.846c1.018 0.395 2.181 0.666 3.884 0.744 1.706 0.077 2.251 0.096 6.597 0.096s4.89-0.019 6.597-0.096c1.703-0.077 2.867-0.349 3.884-0.744 1.052-0.409 1.944-0.956 2.834-1.846s1.437-1.782 1.846-2.834c0.395-1.018 0.666-2.181 0.744-3.884 0.077-1.706 0.096-2.251 0.096-6.597s-0.019-4.891-0.096-6.597c-0.077-1.703-0.349-2.867-0.744-3.884-0.409-1.052-0.956-1.944-1.846-2.834s-1.782-1.437-2.834-1.845c-1.018-0.395-2.181-0.666-3.884-0.744-1.706-0.078-2.251-0.096-6.597-0.096zM16 2.883c4.272 0 4.778 0.016 6.466 0.093 1.56 0.071 2.407 0.332 2.971 0.551 0.747 0.29 1.28 0.637 1.84 1.197s0.907 1.093 1.197 1.84c0.219 0.563 0.48 1.41 0.551 2.97 0.077 1.687 0.093 2.194 0.093 6.466s-0.016 4.778-0.093 6.466c-0.071 1.56-0.332 2.407-0.551 2.971-0.29 0.747-0.637 1.28-1.197 1.84s-1.093 0.907-1.84 1.197c-0.563 0.219-1.411 0.48-2.971 0.551-1.687 0.077-2.193 0.093-6.466 0.093s-4.778-0.016-6.466-0.093c-1.56-0.071-2.407-0.332-2.97-0.551-0.747-0.29-1.28-0.637-1.84-1.197s-0.907-1.093-1.197-1.84c-0.219-0.563-0.48-1.411-0.551-2.971-0.077-1.687-0.093-2.194-0.093-6.466s0.016-4.778 0.093-6.466c0.071-1.56 0.332-2.407 0.551-2.97 0.29-0.747 0.637-1.28 1.197-1.84s1.093-0.907 1.84-1.197c0.563-0.219 1.41-0.48 2.97-0.551 1.687-0.077 2.194-0.093 6.466-0.093z"></path>
<path d="M16 21.333c-2.946 0-5.333-2.387-5.333-5.334s2.388-5.333 5.333-5.333 5.334 2.387 5.334 5.333-2.388 5.334-5.334 5.334zM16 7.784c-4.538 0-8.217 3.679-8.217 8.216s3.679 8.217 8.217 8.217 8.217-3.679 8.217-8.217-3.679-8.216-8.217-8.216z"></path>
<path d="M26.461 7.459c0 1.061-0.86 1.92-1.92 1.92s-1.92-0.859-1.92-1.92 0.859-1.92 1.92-1.92 1.92 0.86 1.92 1.92z"></path>
</svg>
