<!-- Generated by IcoMoon.io -->
<svg version="1.1" xmlns="http://www.w3.org/2000/svg" width="32" height="32" viewBox="0 0 32 32">
<title>spotify</title>
<path d="M16 0.016c-8.828 0-15.984 7.156-15.984 15.984s7.156 15.984 15.984 15.984 15.984-7.156 15.984-15.984-7.156-15.983-15.984-15.983v-0.001zM23.33 23.070c-0.286 0.469-0.901 0.619-1.371 0.33-3.753-2.292-8.477-2.812-14.041-1.54-0.536 0.122-1.071-0.214-1.193-0.75s0.212-1.071 0.749-1.193c6.089-1.391 11.311-0.792 15.525 1.783 0.469 0.288 0.619 0.901 0.33 1.371v0zM25.287 18.717c-0.361 0.586-1.128 0.772-1.714 0.411-4.296-2.641-10.846-3.406-15.928-1.863-0.659 0.199-1.355-0.172-1.555-0.83-0.198-0.659 0.173-1.354 0.831-1.554 5.805-1.761 13.021-0.908 17.956 2.124 0.586 0.361 0.771 1.128 0.41 1.713v0zM25.455 14.185c-5.152-3.060-13.651-3.341-18.569-1.848-0.79 0.24-1.625-0.206-1.864-0.996s0.206-1.625 0.996-1.865c5.646-1.714 15.032-1.383 20.963 2.138 0.712 0.422 0.945 1.339 0.523 2.049-0.42 0.71-1.34 0.945-2.048 0.523h-0.001z"></path>
</svg>
