<!-- Generated by IcoMoon.io -->
<svg version="1.1" xmlns="http://www.w3.org/2000/svg" width="32" height="32" viewBox="0 0 32 32">
<title>twitter</title>
<path d="M31.968 5.959c-1.176 0.523-2.44 0.876-3.766 1.035 1.354-0.814 2.393-2.102 2.883-3.637-1.267 0.754-2.671 1.3-4.164 1.596-1.196-1.278-2.9-2.076-4.787-2.076-3.622 0-6.558 2.944-6.558 6.574 0 0.516 0.058 1.018 0.17 1.499-5.45-0.274-10.282-2.892-13.516-6.869-0.564 0.971-0.888 2.1-0.888 3.305 0 2.281 1.158 4.294 2.917 5.472-1.075-0.034-2.086-0.33-2.97-0.822-0.001 0.028-0.001 0.055-0.001 0.083 0 3.186 2.26 5.843 5.26 6.447-0.55 0.15-1.13 0.23-1.728 0.23-0.422 0-0.833-0.041-1.234-0.118 0.835 2.612 3.256 4.513 6.125 4.566-2.244 1.763-5.072 2.814-8.144 2.814-0.529 0-1.051-0.031-1.564-0.092 2.902 1.865 6.349 2.954 10.052 2.954 12.061 0 18.657-10.018 18.657-18.706 0-0.285-0.006-0.569-0.019-0.851 1.281-0.927 2.393-2.085 3.272-3.403z"></path>
</svg>
