<?xml version="1.0" encoding="UTF-8"?>
<svg width="22px" height="22px" viewBox="0 0 22 22" version="1.1" xmlns="http://www.w3.org/2000/svg" xmlns:xlink="http://www.w3.org/1999/xlink">
    <!-- Generator: Sketch 60.1 (88133) - https://sketch.com -->
    <title>Search_Icon</title>
    <desc>Created with Sketch.</desc>
    <g id="Assets" stroke="none" stroke-width="1" fill="none" fill-rule="evenodd">
        <g id="Icons" transform="translate(-255.000000, -950.000000)" fill="#221F1F">
            <g id="Search_Icon" transform="translate(257.000000, 952.000000)">
                <g id="SearchIcon_Blue">
                    <g id="Group-4" transform="translate(-2.000000, -2.000000)">
                        <path d="M9,0.5 C13.6944204,0.5 17.5,4.30557963 17.5,9 C17.5,10.8052401 16.9372353,12.4790395 15.9775717,13.8555325 L21.5606602,19.4393398 C22.1464466,20.0251263 22.1464466,20.9748737 21.5606602,21.5606602 C21.0114854,22.109835 20.142423,22.1441584 19.5532622,21.6636304 L19.4393398,21.5606602 L13.8555325,15.9775717 C12.4790395,16.9372353 10.8052401,17.5 9,17.5 C4.30557963,17.5 0.5,13.6944204 0.5,9 C0.5,4.30557963 4.30557963,0.5 9,0.5 Z M9,3.5 C5.96243388,3.5 3.5,5.96243388 3.5,9 C3.5,12.0375661 5.96243388,14.5 9,14.5 C12.0375661,14.5 14.5,12.0375661 14.5,9 C14.5,5.96243388 12.0375661,3.5 9,3.5 Z" id="Combined-Shape" fill-rule="nonzero"></path>
                    </g>
                </g>
            </g>
        </g>
    </g>
</svg>