<?xml version="1.0" encoding="utf-8"?>
<!-- Generator: Adobe Illustrator 23.1.1, SVG Export Plug-In . SVG Version: 6.00 Build 0)  -->
<svg version="1.1" id="Layer_1" xmlns="http://www.w3.org/2000/svg" xmlns:xlink="http://www.w3.org/1999/xlink" x="0px" y="0px"
	 viewBox="0 0 183 117" style="enable-background:new 0 0 183 117;" xml:space="preserve">
<style type="text/css">
	.st0{display:none;}
	.st1{fill:#FFFFFF;}
</style>
<g id="Layer_3" class="st0">
</g>
<g>
	<path class="st1" d="M151.7,101.3c-0.1-0.8-2.7-15.6-5.8-26.6c2.7-2.7,3.1-6.1,2.7-9.1c-0.4-3.1-1.8-5.5-3.9-7.1
		c-2.6-1.9-6.2-2.4-10.6-1.5c-1.9,0.4-3.7,0.7-5.6,1c3.3-3.3,5.4-7.9,5.4-13c0-10.1-8.2-18.4-18.3-18.4c-10.1,0-18.3,8.2-18.3,18.4
		c0,5.5,2.5,10.5,6.3,13.8c-2.6-0.2-5.2-0.5-8.1-0.8c-3.2-0.4-6.6-1.1-10.2-1.8c-2.1-0.4-4.2-0.9-6.3-1.2C87.2,51.6,93,43.4,93,33.9
		c0-12.6-10.2-22.8-22.8-22.8c-12.6,0-22.8,10.2-22.8,22.8c0,8.8,5,16.4,12.3,20.2c-8.9,1.1-16.1,4.3-19.8,9.1
		c-7.6,10-9.9,22.7-11.1,38.7c0,0.6,0.3,1.2,0.9,1.5l0.3,0.2c0.3,0.1,0.5,0.2,0.8,0.4c0.5,0.2,13,5.8,27.8,5.8
		c12.3,0,26.1-0.4,35.6-4.8c0.1,0,0.2-0.1,0.2-0.1l0,0c6.9,0.6,16,1.2,23,1.2c11.8,0,29.6-1.7,32.7-2.4
		C151.1,103.3,151.8,102.4,151.7,101.3z M100.2,45.1c0-8.5,6.9-15.4,15.3-15.4c8.4,0,15.3,6.9,15.3,15.4c0,6.1-3.5,11.3-8.7,13.8
		c-3.8,0.4-7.9,0.5-12.4,0.4C104.2,56.9,100.2,51.5,100.2,45.1z M50.5,33.9c0-10.9,8.9-19.8,19.8-19.8C81.1,14.1,90,23,90,33.9
		c0,10.9-8.9,19.8-19.8,19.8C59.3,53.7,50.5,44.8,50.5,33.9z M93,80c-0.4,0-0.8,0.2-1.1,0.5c-0.3,0.3-0.4,0.7-0.4,1.1l1.5,20.3
		c0,0.1,0,0.2-0.1,0.2c-9.6,4.5-25.7,4.5-34.3,4.5c-14.1,0-26.4-5.4-26.6-5.5c0,0-0.1,0-0.1-0.1c1.2-15.4,3.4-26.8,10.4-36
		c4-5.2,13.6-8.4,24.6-8.3c0.7,0,2.2,0.1,2.2,0c4.9,0.2,10.3,1.3,15.5,2.3c3.7,0.8,7.1,1.5,10.4,1.9c17.5,2.2,28.4,1.2,39.5-1.1
		c3.6-0.7,6.4-0.4,8.3,1c1.9,1.4,2.5,3.5,2.7,5.1c0.7,5.6-2.4,8.7-9.6,9.7c-0.1,0-1.6,0.2-2.8,0.4C126.4,77.2,110.2,79.6,93,80z
		 M117.5,103c-6.5,0-14.8-0.6-21.4-1.1c0,0,0-0.1,0-0.1l-1.4-18.8c16.8-0.5,32.3-2.8,39.1-3.8c1.1-0.2,2-0.3,2.5-0.4
		c3-0.4,5.3-1.1,7.1-2.1c2.5,9.2,4.7,20.9,5.3,24.2C144.1,101.5,128.2,103,117.5,103z"/>
</g>
</svg>
