<?xml version="1.0" encoding="UTF-8"?>
<svg width="155px" height="63px" viewBox="0 0 155 63" version="1.1" xmlns="http://www.w3.org/2000/svg" xmlns:xlink="http://www.w3.org/1999/xlink">
    <!-- Generator: Sketch 60.1 (88133) - https://sketch.com -->
    <title>Group 16</title>
    <desc>Created with Sketch.</desc>
    <g id="Assets" stroke="none" stroke-width="1" fill="none" fill-rule="evenodd">
        <g id="Text-Styles" transform="translate(-569.000000, -1525.000000)" stroke="#FFFFFF" stroke-width="4">
            <g id="Group-16" transform="translate(571.000000, 1527.000000)">
                <rect id="Rectangle" stroke-linejoin="round" x="0" y="2" width="23" height="57"></rect>
                <g id="Group-4" transform="translate(23.000000, 0.000000)" stroke-linecap="square">
                    <path d="M27.4528302,29.2109434 C30.390566,25.8373585 36.4415094,25.0562264 42.6254717,25.0562264 L59.3349057,25.0562264 L72.5490566,25.0562264 C77.3830189,25.0562264 78.7698113,22.7326415 78.6367925,20.2675472 C78.3141509,14.1713208 74.5669811,7.87981132 64.995283,6.65433962 C56.7933962,5.60433962 54.3792453,6.25245283 46.2849057,5.42603774 C35.9886792,4.32509434 29.8330189,-0.627735849 22.6075472,0.430754717 C18.4924528,0.965660377 10.9216981,3.9345283 4.13773585,6.67981132 C3.30566038,7.05056604 2.4254717,7.42132075 1.57358491,7.78075472 C1.14622642,7.9590566 0.713207547,8.14301887 0.283018868,8.32415094 L0.283018868,55.2203774 C23.1283019,55.2203774 43.6528302,55.364717 58.7575472,55.364717 C67.8820755,55.364717 87.7386792,52.7496226 96.3198113,46.5543396 C107.306604,38.6241509 114.133019,32.7345283 122.654717,23.9977358 C127.225472,19.3081132 128.666038,14.9213208 126.792453,11.114717 C125.119811,7.71283019 120.735849,5.27037736 114.421698,7.8854717 C107.858491,10.6024528 100.216981,19.2118868 92.0688679,23.3326415 C90.9367925,23.9043396 78.0849057,24.9943396 75,25" id="Stroke-3"></path>
                </g>
            </g>
        </g>
    </g>
</svg>