<?xml version="1.0" encoding="UTF-8"?>
<svg width="23px" height="23px" viewBox="0 0 23 23" version="1.1" xmlns="http://www.w3.org/2000/svg" xmlns:xlink="http://www.w3.org/1999/xlink">
    <!-- Generator: Sketch 60.1 (88133) - https://sketch.com -->
    <title>Download_Icon</title>
    <desc>Created with Sketch.</desc>
    <defs>
        <polygon id="path-1" points="0 9.2e-05 22.999816 9.2e-05 22.999816 23 0 23"></polygon>
    </defs>
    <g id="Assets" stroke="none" stroke-width="1" fill="none" fill-rule="evenodd">
        <g id="Icons" transform="translate(-93.000000, -1102.000000)">
            <g id="Download_Icon" transform="translate(93.000000, 1102.000000)">
                <g id="Group-6">
                    <g id="Group-3">
                        <mask id="mask-2" fill="white">
                            <use xlink:href="#path-1"></use>
                        </mask>
                        <g id="Clip-2"></g>
                        <path d="M11.499816,9.2e-05 C17.851496,9.2e-05 22.999816,5.149332 22.999816,11.500092 C22.999816,17.850852 17.851496,23.000092 11.499816,23.000092 C5.149056,23.000092 -0.000184,17.850852 -0.000184,11.500092 C-0.000184,5.149332 5.149056,9.2e-05 11.499816,9.2e-05 Z M11.2426407,5.58333333 C10.8284271,5.58333333 10.4926407,5.91911977 10.4926407,6.33333333 L10.4926407,6.33333333 L10.4932814,14.4313333 L7.53033009,11.4696699 L7.45352615,11.4025486 C7.159555,11.1788107 6.73815536,11.2011845 6.46966991,11.4696699 C6.1767767,11.7625631 6.1767767,12.2374369 6.46966991,12.5303301 L6.46966991,12.5303301 L10.7123106,16.7729708 L10.7891145,16.8400921 C11.0830857,17.06383 11.5044853,17.0414562 11.7729708,16.7729708 L11.7729708,16.7729708 L16.0156115,12.5303301 L16.0827328,12.4535261 C16.3064707,12.159555 16.2840969,11.7381554 16.0156115,11.4696699 L16.0156115,11.4696699 L15.9388075,11.4025486 C15.6448364,11.1788107 15.2234367,11.2011845 14.9549513,11.4696699 L14.9549513,11.4696699 L11.9932814,14.4313333 L11.9926407,6.33333333 L11.9857941,6.23156278 C11.9361316,5.86548721 11.6223365,5.58333333 11.2426407,5.58333333 Z" id="Combined-Shape" fill="#221F1F" mask="url(#mask-2)"></path>
                    </g>
                </g>
                <g id="Group-9" transform="translate(11.500000, 11.000000) rotate(90.000000) translate(-11.500000, -11.000000) translate(5.500000, 5.500000)">
                    <g id="Group" transform="translate(0.000000, 0.757359)"></g>
                </g>
            </g>
        </g>
    </g>
</svg>