<?xml version="1.0" encoding="utf-8"?>
<!-- Generator: Adobe Illustrator 24.0.1, SVG Export Plug-In . SVG Version: 6.00 Build 0)  -->
<svg version="1.1" xmlns="http://www.w3.org/2000/svg" xmlns:xlink="http://www.w3.org/1999/xlink" x="0px" y="0px"
	 viewBox="0 0 183 117" style="enable-background:new 0 0 183 117;" xml:space="preserve">
<style type="text/css">
	.st0{display:none;}
	
		.st1{display:inline;fill-rule:evenodd;clip-rule:evenodd;fill:#FFFFFF;stroke:#221F1F;stroke-width:3;stroke-linejoin:round;stroke-miterlimit:10;}
	.st2{display:inline;fill:#FB1F1F;}
	.st3{display:inline;}
	.st4{fill:#F01FFF;}
	
		.st5{fill-rule:evenodd;clip-rule:evenodd;fill:#FFFFFF;stroke:#000000;stroke-width:3;stroke-linejoin:round;stroke-miterlimit:10;}
	.st6{fill:none;stroke:#E6E7E8;stroke-width:2;stroke-miterlimit:10;}
	.st7{clip-path:url(#SVGID_4_);}
	.st8{opacity:0.5;fill:#777576;}
	.st9{opacity:0.5;}
	.st10{fill:#777576;}
	.st11{fill:#221F1F;}
	.st12{fill:#59EFF4;}
	.st13{fill:#FFFFFF;}
	.st14{fill:#FFFFFF;stroke:#777576;stroke-miterlimit:10;}
	.st15{fill:none;stroke:#221F1F;stroke-width:2;stroke-miterlimit:10;}
	.st16{fill:none;stroke:#221F1F;stroke-width:2;stroke-linecap:round;stroke-linejoin:round;stroke-miterlimit:10;}
	.st17{opacity:0.15;fill:#EDEDED;}
	.st18{fill:none;stroke:#000000;stroke-width:2;stroke-linecap:round;stroke-miterlimit:10;}
	.st19{fill:#43CBDD;}
	.st20{fill:#53DAEC;}
	.st21{fill:#1FB1C9;}
	.st22{fill-rule:evenodd;clip-rule:evenodd;fill:none;stroke:#221F1F;stroke-width:3;stroke-linejoin:round;stroke-miterlimit:10;}
	.st23{fill:#5A5C61;}
	.st24{fill:#FFFFFF;stroke:#5A5C61;stroke-width:4.2;stroke-linecap:square;stroke-miterlimit:10;}
	
		.st25{fill-rule:evenodd;clip-rule:evenodd;fill:#FFFFFF;stroke:#221F1F;stroke-width:3;stroke-linejoin:round;stroke-miterlimit:10;}
	
		.st26{fill-rule:evenodd;clip-rule:evenodd;fill:#FFFFFF;stroke:#221F1F;stroke-width:3.8903;stroke-linejoin:round;stroke-miterlimit:10;}
	.st27{fill:#FFFFFF;stroke:#221F1F;stroke-width:3;stroke-linejoin:round;stroke-miterlimit:10;}
	.st28{fill:#FB1F1F;}
	
		.st29{opacity:0.8;fill-rule:evenodd;clip-rule:evenodd;fill:#FFFFFF;stroke:#221F1F;stroke-width:3;stroke-linejoin:round;stroke-miterlimit:10;}
	.st30{opacity:0.8;fill:#FFFFFF;stroke:#221F1F;stroke-width:3;stroke-linejoin:round;stroke-miterlimit:10;}
	.st31{fill:none;stroke:#FF45D1;stroke-width:3;stroke-linecap:round;stroke-linejoin:round;stroke-miterlimit:10;}
	.st32{fill:none;stroke:#000000;stroke-width:3;stroke-linecap:round;stroke-linejoin:round;stroke-miterlimit:10;}
	
		.st33{fill-rule:evenodd;clip-rule:evenodd;fill:none;stroke:#FF45D1;stroke-width:3;stroke-linecap:round;stroke-linejoin:round;stroke-miterlimit:10;}
	.st34{fill-rule:evenodd;clip-rule:evenodd;fill:none;stroke:#000000;stroke-width:3;stroke-linejoin:round;stroke-miterlimit:10;}
	.st35{fill:#2745D1;}
</style>
<g id="Layer_3" class="st0">
</g>
<g id="Layer_2" class="st0">
</g>
<g id="Layer_1">
	<path class="st11" d="M151.7,101.3c-0.07-0.79-2.66-15.62-5.78-26.55c2.68-2.65,3.07-6.12,2.69-9.13
		c-0.39-3.08-1.76-5.55-3.95-7.12c-2.6-1.87-6.17-2.36-10.61-1.47c-1.88,0.38-3.74,0.72-5.62,1.01c3.33-3.32,5.4-7.91,5.4-12.98
		c0-10.12-8.2-18.35-18.28-18.35c-10.09,0-18.3,8.23-18.3,18.35c0,5.53,2.47,10.48,6.35,13.84c-2.55-0.19-5.24-0.46-8.14-0.82
		c-3.21-0.4-6.62-1.1-10.22-1.84c-2.08-0.43-4.19-0.86-6.3-1.24C87.19,51.57,93,43.42,93,33.94c0-12.59-10.21-22.83-22.75-22.83
		c-12.56,0-22.77,10.24-22.77,22.83c0,8.78,4.99,16.42,12.28,20.22c-8.87,1.06-16.14,4.31-19.76,9.07
		c-7.58,9.97-9.93,22.66-11.13,38.65c-0.05,0.63,0.3,1.22,0.88,1.48l0.32,0.15c0.28,0.13,0.55,0.25,0.82,0.37
		c0.52,0.24,13.02,5.76,27.76,5.76c12.27,0,26.15-0.37,35.57-4.77c0.08-0.04,0.16-0.09,0.24-0.14c0,0,0,0,0,0
		c6.9,0.64,16.03,1.25,23.02,1.25c11.77,0,29.63-1.74,32.68-2.4C151.15,103.34,151.8,102.39,151.7,101.3z M100.25,45.06
		c0-8.46,6.86-15.35,15.3-15.35c8.43,0,15.28,6.88,15.28,15.35c0,6.06-3.54,11.3-8.65,13.78c-3.84,0.37-7.88,0.52-12.41,0.4
		C104.19,56.94,100.25,51.46,100.25,45.06z M50.47,33.94c0-10.94,8.87-19.83,19.77-19.83C81.14,14.11,90,23,90,33.94
		c0,10.92-8.86,19.8-19.75,19.8C59.34,53.73,50.47,44.85,50.47,33.94z M92.99,79.98c-0.41,0.01-0.8,0.19-1.08,0.49
		c-0.28,0.3-0.42,0.71-0.38,1.12l1.52,20.33c0.01,0.09-0.04,0.18-0.1,0.21c-9.61,4.49-25.67,4.49-34.3,4.49
		c-14.08,0-26.42-5.44-26.56-5.5c-0.05-0.02-0.1-0.04-0.15-0.06c1.21-15.37,3.44-26.8,10.45-36.01c3.95-5.19,13.64-8.43,24.57-8.26
		c0.66,0.04,2.15,0.06,2.21,0.05c4.88,0.16,10.26,1.27,15.47,2.34c3.66,0.75,7.12,1.46,10.45,1.88c17.47,2.18,28.44,1.15,39.55-1.08
		c3.59-0.72,6.37-0.4,8.27,0.97c1.89,1.36,2.53,3.5,2.73,5.06c0.71,5.55-2.42,8.74-9.58,9.73c-0.08,0.01-1.65,0.23-2.8,0.4
		C126.36,77.17,110.22,79.58,92.99,79.98z M117.47,102.97c-6.49,0-14.84-0.55-21.44-1.13c0-0.04,0-0.08,0-0.12l-1.4-18.78
		c16.82-0.51,32.33-2.83,39.07-3.83c1.12-0.17,1.96-0.29,2.5-0.36c3.01-0.39,5.34-1.13,7.13-2.1c2.53,9.16,4.74,20.87,5.27,24.15
		C144.09,101.47,128.23,102.96,117.47,102.97z"/>
</g>
</svg>
