<?xml version="1.0" encoding="utf-8"?>
<!-- Generator: Adobe Illustrator 23.1.1, SVG Export Plug-In . SVG Version: 6.00 Build 0)  -->
<svg version="1.1" id="Layer_1" xmlns="http://www.w3.org/2000/svg" xmlns:xlink="http://www.w3.org/1999/xlink" x="0px" y="0px"
	 viewBox="0 0 183 117" style="enable-background:new 0 0 183 117;" xml:space="preserve">
<style type="text/css">
	.st0{display:none;}
	.st1{fill:#FFFFFF;}
</style>
<g id="Layer_3" class="st0">
</g>
<g>
	<path class="st1" d="M122.5,87.7l5-5c1.4-1.4,2.1-3.2,2.1-5.1s-0.8-3.7-2.1-5.1c-1.1-1.1-2.4-1.8-3.9-2l1.1-1.1
		c1.4-1.4,2.1-3.2,2.1-5.1s-0.8-3.7-2.1-5.1c-1.1-1.1-2.4-1.8-3.9-2l0.4-0.4c1.4-1.4,2.1-3.2,2.1-5.1s-0.8-3.7-2.1-5.1
		c-1.1-1.1-2.4-1.8-3.9-2l0.4-0.4c2.8-2.8,2.8-7.4,0-10.2s-7.4-2.8-10.2,0L96.8,44.8l-9.5-16.6c4.1-6,4.4-13.9,0.7-20.3
		c-3.3-5.7-10.5-7.6-16.2-4.3l-0.3,0.2C71.2,4,71,4.3,70.9,4.7S70.8,5.5,71,5.8l5.2,8.9l-2.8,5.9l-6.5-0.5l-5.2-8.9
		c-0.4-0.7-1.3-1-2-0.6l-0.3,0.2C53.7,14.1,51.8,21.4,55,27c3.7,6.4,10.6,10,17.9,9.5l3.9,6.8c-1,0.6-1.8,1.5-2.4,2.5l-8.3,12.6
		c-0.3,0.4-0.8,1.2-1.5,2.2c-2,3-5.1,7.5-5.9,9.1c-6.5,13-5.1,22.9,5.1,33.8c0.1,0.1,0.1,0.2,0.2,0.3l0,0l1.3,1.3
		c0.1,0.1,0.2,0.2,0.4,0.3c6.1,5.4,13.3,8.2,20.2,8.2c6.7,0,13.2-2.6,18.5-7.8l5.5-5.5c0,0,0.1-0.1,0.1-0.2c0.1,0,0.1-0.1,0.2-0.1
		l0.1-0.1l1.7,2.9c1.1,1.9,2.9,3.3,5.1,3.9c0.7,0.2,1.4,0.3,2.2,0.3c1.4,0,2.9-0.4,4.1-1.1c4-2.3,5.3-7.4,3-11.4L122.5,87.7z
		 M75.1,34.2c-0.3-0.5-0.9-0.8-1.5-0.8c-6.4,0.8-12.7-2.3-16-7.9c-2.2-3.9-1.2-8.8,2.3-11.5l4.8,8.3c0.2,0.4,0.7,0.7,1.2,0.8
		l8.3,0.6c0.6,0,1.2-0.3,1.5-0.8l3.6-7.5c0.2-0.4,0.2-1-0.1-1.4l-4.8-8.3c4.1-1.7,8.8-0.1,11.1,3.8c3.2,5.6,2.8,12.6-1.1,17.8
		c-0.4,0.5-0.4,1.1-0.1,1.6L94.6,47l-7.8,7.8L75.1,34.2z M107.9,98c-0.1,0-0.1,0.1-0.2,0.1l-5.5,5.5c-9.7,9.7-24.6,9.1-35.6-1.4
		c-8.3-8.6-12.2-17.3-5.3-31.2c0.7-1.5,3.9-6.1,5.7-8.8c0.7-1,1.2-1.8,1.5-2.2L77,47.4c0.3-0.6,0.8-1,1.4-1.4l4.5,7.9l-6.7,11.6
		c0,0.1-0.1,0.1-0.1,0.2c0,0,0,0,0,0.1C76,65.9,76,66,76,66.2c0,0,0,0,0,0.1c0,0.2,0,0.3,0.1,0.5c0,0,0,0,0,0.1
		c0.1,0.2,0.2,0.3,0.3,0.4c0,0,0,0,0,0c0,0,0,0,0,0c0.1,0.1,0.2,0.2,0.3,0.2c0.1,0,0.1,0.1,0.2,0.1c0,0,0,0,0.1,0
		c0.2,0.1,0.3,0.1,0.5,0.1c0,0,0,0,0,0c0,0,0,0,0,0c0.2,0,0.3,0,0.5-0.1c0,0,0,0,0.1,0c0.2-0.1,0.3-0.2,0.4-0.3c0,0,0,0,0,0l30.9-31
		c1.6-1.6,4.3-1.6,5.9,0s1.6,4.3,0,5.9L97.9,59.8l0,0l-8.2,8.2c-0.6,0.6-0.6,1.5,0,2.1c0.3,0.3,0.7,0.4,1.1,0.4s0.8-0.2,1.1-0.4
		l21.2-21.2c0.8-0.8,1.8-1.2,3-1.2s2.2,0.4,3,1.2s1.2,1.8,1.2,3s-0.4,2.2-1.2,3l-4.5,4.5l0,0L99,74.8c-0.6,0.6-0.6,1.5,0,2.1
		c0.3,0.3,0.7,0.4,1.1,0.4s0.8-0.2,1.1-0.4l15.4-15.4l0,0c0.8-0.8,1.8-1.2,3-1.2s2.2,0.4,3,1.2s1.2,1.8,1.2,3c0,1.1-0.4,2.2-1.2,3
		l-5.2,5.2l-13.2,13.2c-0.6,0.6-0.6,1.5,0,2.1c0.6,0.6,1.5,0.6,2.1,0l13.2-13.2c0.8-0.8,1.8-1.2,3-1.2s2.2,0.4,3,1.2
		c0.8,0.8,1.2,1.8,1.2,3s-0.4,2.2-1.2,3l-17.3,17.3C108,97.9,108,98,107.9,98z M121.8,103.2c-1.2,0.7-2.7,0.9-4,0.5
		c-1.4-0.4-2.5-1.2-3.2-2.5l-2.1-3.6l7.8-7.8l3.5,6C125.2,98.5,124.4,101.7,121.8,103.2z"/>
</g>
</svg>
