<?xml version="1.0" encoding="UTF-8"?>
<svg width="17px" height="17px" viewBox="0 0 17 17" version="1.1" xmlns="http://www.w3.org/2000/svg" xmlns:xlink="http://www.w3.org/1999/xlink">
    <!-- Generator: Sketch 60.1 (88133) - https://sketch.com -->
    <title>Phone_Icon</title>
    <desc>Created with Sketch.</desc>
    <defs>
        <polygon id="path-1" points="0 0 17 0 17 16.9998 0 16.9998"></polygon>
    </defs>
    <g id="Assets" stroke="none" stroke-width="1" fill="none" fill-rule="evenodd">
        <g id="Icons" transform="translate(-137.000000, -1155.000000)">
            <g id="Phone_Icon" transform="translate(137.000000, 1155.000000)">
                <g id="Group-8">
                    <g id="Phone">
                        <mask id="mask-2" fill="white">
                            <use xlink:href="#path-1"></use>
                        </mask>
                        <g id="Clip-2"></g>
                        <path d="M17,13.4258 C17,13.6438 16.96,13.9268 16.879,14.2778 C16.799,14.6278 16.714,14.9038 16.626,15.1048 C16.457,15.5068 15.966,15.9338 15.152,16.3838 C14.396,16.7948 13.647,16.9998 12.907,16.9998 C12.689,16.9998 12.477,16.9868 12.267,16.9578 C12.058,16.9298 11.826,16.8788 11.573,16.8068 C11.319,16.7348 11.13,16.6758 11.005,16.6318 C10.881,16.5878 10.657,16.5048 10.335,16.3838 C10.014,16.2638 9.816,16.1918 9.743,16.1668 C8.955,15.8848 8.25,15.5508 7.631,15.1648 C6.608,14.5298 5.546,13.6588 4.443,12.5568 C3.34,11.4538 2.471,10.3918 1.835,9.3688 C1.449,8.7498 1.115,8.0458 0.833,7.2568 C0.809,7.1838 0.736,6.9868 0.616,6.6648 C0.495,6.3428 0.413,6.1198 0.368,5.9948 C0.324,5.8698 0.266,5.6808 0.193,5.4268 C0.121,5.1738 0.07,4.9428 0.042,4.7328 C0.014,4.5238 0,4.3108 0,4.0928 C0,3.3528 0.205,2.6038 0.616,1.8468 C1.066,1.0338 1.493,0.5438 1.896,0.3748 C2.097,0.2858 2.373,0.2008 2.723,0.1208 C3.073,0.0398 3.356,-0.0002 3.574,-0.0002 C3.687,-0.0002 3.771,0.0118 3.828,0.0358 C3.972,0.0848 4.186,0.3908 4.467,0.9538 C4.556,1.1068 4.677,1.3238 4.83,1.6058 C4.982,1.8878 5.124,2.1428 5.252,2.3728 C5.381,2.6018 5.506,2.8178 5.626,3.0188 C5.65,3.0508 5.721,3.1518 5.838,3.3208 C5.955,3.4888 6.041,3.6328 6.097,3.7488 C6.154,3.8658 6.182,3.9808 6.182,4.0928 C6.182,4.2538 6.067,4.4548 5.838,4.6968 C5.608,4.9378 5.359,5.1598 5.089,5.3608 C4.819,5.5618 4.57,5.7758 4.34,6.0008 C4.111,6.2258 3.997,6.4108 3.997,6.5558 C3.997,6.6288 4.017,6.7188 4.057,6.8278 C4.097,6.9368 4.131,7.0188 4.16,7.0748 C4.187,7.1318 4.244,7.2278 4.329,7.3648 C4.413,7.5018 4.459,7.5778 4.467,7.5938 C5.079,8.6968 5.779,9.6428 6.568,10.4318 C7.357,11.2208 8.303,11.9208 9.406,12.5318 C9.422,12.5408 9.498,12.5868 9.635,12.6718 C9.771,12.7558 9.868,12.8128 9.925,12.8408 C9.981,12.8688 10.063,12.9038 10.172,12.9438 C10.281,12.9838 10.371,13.0038 10.444,13.0038 C10.589,13.0038 10.773,12.8888 10.999,12.6588 C11.225,12.4298 11.438,12.1808 11.64,11.9108 C11.841,11.6418 12.062,11.3918 12.304,11.1618 C12.545,10.9328 12.746,10.8188 12.907,10.8188 C13.02,10.8188 13.135,10.8468 13.251,10.9028 C13.368,10.9588 13.511,11.0458 13.68,11.1618 C13.849,11.2798 13.949,11.3498 13.981,11.3738 C14.183,11.4938 14.398,11.6188 14.628,11.7478 C14.856,11.8768 15.112,12.0178 15.395,12.1708 C15.676,12.3228 15.894,12.4448 16.046,12.5318 C16.609,12.8148 16.915,13.0278 16.964,13.1728 C16.988,13.2288 17,13.3138 17,13.4258" id="Fill-1" fill="#221F1F" mask="url(#mask-2)"></path>
                    </g>
                </g>
            </g>
        </g>
    </g>
</svg>