<?xml version="1.0" encoding="UTF-8"?>
<svg width="26px" height="22px" viewBox="0 0 26 22" version="1.1" xmlns="http://www.w3.org/2000/svg" xmlns:xlink="http://www.w3.org/1999/xlink">
    <!-- Generator: Sketch 60.1 (88133) - https://sketch.com -->
    <title>Likes_Icon</title>
    <desc>Created with Sketch.</desc>
    <g id="Assets" stroke="none" stroke-width="1" fill="none" fill-rule="evenodd">
        <g id="Icons" transform="translate(-467.000000, -1262.000000)" fill="#373737" fill-rule="nonzero">
            <g id="Likes_Icon" transform="translate(468.000000, 1263.000000)">
                <path d="M12,2.45 L11.8325986,2.25413058 C6.32736394,-4.04418789 -3.00064279,-0.683984081 -0.627813192,8.01658431 C0.462512544,11.9900404 4.00452989,15.5695981 11.4225219,20.8164183 C11.7683569,21.0610309 12.2307927,21.0612087 12.5768157,20.8168621 C19.8578669,15.6752966 23.4073573,12.1316505 24.5614001,8.24990994 L24.6277788,8.01658431 C27.0006235,-0.684039376 17.6737021,-4.04408126 12.1676176,2.25407015 L12,2.45 Z M22.6980114,7.49123024 L22.6401563,7.69352409 C21.709262,10.7936568 18.7382726,13.8922232 12.6617576,18.2973152 L12,18.773 L11.749329,18.5929972 C5.26699327,13.9299996 2.18973254,10.7265309 1.30130463,7.48885142 C-0.561076959,0.659962666 7.03419437,-1.61625824 11.1639348,4.67668075 C11.5588332,5.27843067 12.4409995,5.27848163 12.8359674,4.67677734 C16.9218839,-1.54781439 24.3963922,0.611372026 22.7556572,7.26924543 L22.6980114,7.49123024 Z" id="Stroke-3"></path>
            </g>
        </g>
    </g>
</svg>