<?xml version="1.0" encoding="UTF-8"?>
<svg width="22px" height="22px" viewBox="0 0 22 22" version="1.1" xmlns="http://www.w3.org/2000/svg" xmlns:xlink="http://www.w3.org/1999/xlink">
    <!-- Generator: Sketch 60.1 (88133) - https://sketch.com -->
    <title>Subscribe_Icon</title>
    <desc>Created with Sketch.</desc>
    <g id="Assets" stroke="none" stroke-width="1" fill="none" fill-rule="evenodd">
        <g id="Icons" transform="translate(-57.000000, -1102.000000)" fill="#221F1F">
            <g id="Subscribe_Icon" transform="translate(57.000000, 1102.000000)">
                <g id="Group-6">
                    <path d="M10.999824,8.8e-05 C17.075344,8.8e-05 21.999824,4.925448 21.999824,11.000088 C21.999824,17.074728 17.075344,22.000088 10.999824,22.000088 C4.925184,22.000088 -0.000176,17.074728 -0.000176,11.000088 C-0.000176,4.925448 4.925184,8.8e-05 10.999824,8.8e-05 Z M11,6 C10.3229167,6 9.67621745,6.1323763 9.05989583,6.39713542 C8.44357422,6.66189453 7.91189453,7.01779297 7.46484375,7.46484375 C7.01779297,7.91189453 6.66189453,8.44357422 6.39713542,9.05989583 C6.1323763,9.67621745 6,10.3229167 6,11 C6,11.6770833 6.1323763,12.3237826 6.39713542,12.9401042 C6.66189453,13.5564258 7.01779297,14.0881055 7.46484375,14.5351562 C7.91189453,14.982207 8.44357422,15.3381055 9.05989583,15.6028646 C9.67621745,15.8676237 10.3229167,16 11,16 C11.7465299,16 12.4561654,15.8426628 13.1289062,15.5279948 C13.8016471,15.2133268 14.3745638,14.7695312 14.8476562,14.1966146 C14.8823763,14.1532096 14.8986523,14.1043815 14.8964844,14.0501302 C14.8943164,13.9958789 14.8736979,13.9513867 14.8346354,13.9166667 L14.8346354,13.9166667 L13.9427083,13.0182292 C13.8993034,12.9791667 13.8450521,12.9596354 13.7799479,12.9596354 C13.7105013,12.9683138 13.6605924,12.9943555 13.6302083,13.0377604 C13.3133659,13.4500846 12.9249154,13.7690951 12.4648437,13.9947917 C12.0047721,14.2204883 11.5164909,14.3333333 11,14.3333333 C10.5486133,14.3333333 10.1178385,14.2454427 9.70768229,14.0696615 C9.29752604,13.8938802 8.94270833,13.65625 8.64322917,13.3567708 C8.34375,13.0572917 8.10611979,12.702474 7.93033854,12.2923177 C7.75455729,11.8821615 7.66666667,11.4513867 7.66666667,11 C7.66666667,10.5486133 7.75455729,10.1178385 7.93033854,9.70768229 C8.10611979,9.29752604 8.34375,8.94270833 8.64322917,8.64322917 C8.94270833,8.34375 9.29752604,8.10611979 9.70768229,7.93033854 C10.1178385,7.75455729 10.5486133,7.66666667 11,7.66666667 C11.8723958,7.66666667 12.6297721,7.96397786 13.2721354,8.55859375 L13.2721354,8.55859375 L12.3736979,9.45703125 C12.2391471,9.58723958 12.2087695,9.73697917 12.2825521,9.90625 C12.3563346,10.0798633 12.484375,10.1666667 12.6666667,10.1666667 L12.6666667,10.1666667 L15.5833333,10.1666667 C15.6961784,10.1666667 15.7938346,10.1254362 15.8763021,10.0429687 C15.9587695,9.9605013 16,9.86284505 16,9.75 L16,9.75 L16,6.83333333 C16,6.65104167 15.9153646,6.5230013 15.7460937,6.44921875 C15.5681445,6.3754362 15.4162305,6.4058138 15.2903646,6.54036458 L15.2903646,6.54036458 L14.4440104,7.38020833 C13.9796029,6.94184245 13.4490039,6.60221354 12.8522135,6.36132812 C12.2554232,6.12044271 11.6380208,6 11,6 Z" id="Combined-Shape"></path>
                </g>
            </g>
        </g>
    </g>
</svg>